<svg width="120" height="120" viewBox="0 0 120 120" fill="none" xmlns="http://www.w3.org/2000/svg">
<circle cx="60" cy="60" r="60" fill="#FCE3E4"/>
<path d="M55.7393 65.2603H57.8695V67.3905H55.7393V65.2603Z" fill="#2A2A2A"/>
<path d="M62.1299 65.2603H64.2601V67.3905H62.1299V65.2603Z" fill="#2A2A2A"/>
<path d="M91.0393 43.9687L86.8789 43.3722C86.6812 42.7899 86.4468 42.2207 86.177 41.668L88.6928 38.3129C88.8467 38.1079 88.9216 37.8543 88.9036 37.5986C88.8856 37.3428 88.776 37.1022 88.5948 36.9208L84.0787 32.4047C83.8975 32.2234 83.6569 32.1136 83.4012 32.0954C83.1455 32.0772 82.8918 32.1519 82.6866 32.3056L79.3337 34.8225C78.781 34.5528 78.2118 34.3183 77.6295 34.1206L77.0309 29.9603C76.9945 29.7065 76.8678 29.4745 76.6741 29.3066C76.4804 29.1387 76.2327 29.0464 75.9764 29.0464H69.5857C69.3294 29.0464 69.0817 29.1387 68.888 29.3066C68.6943 29.4745 68.5676 29.7065 68.5312 29.9603L67.9337 34.1206C67.3514 34.3183 66.7822 34.5528 66.2295 34.8225L62.8755 32.3056C62.6704 32.1519 62.4167 32.0772 62.1609 32.0954C61.9052 32.1136 61.6646 32.2234 61.4834 32.4047L56.9673 36.9208C56.7862 37.1022 56.6765 37.3428 56.6585 37.5986C56.6405 37.8543 56.7154 38.1079 56.8693 38.3129L59.3851 41.6659C59.1153 42.2185 58.8809 42.7877 58.6832 43.3701L54.5228 43.9665C54.2688 44.003 54.0364 44.13 53.8685 44.3241C53.7006 44.5182 53.6084 44.7665 53.609 45.0231V51.4138C53.6089 51.6701 53.7013 51.9179 53.8692 52.1115C54.037 52.3052 54.2691 52.4319 54.5228 52.4683L54.5995 52.4789H51.4787V36.5022C51.4787 36.2197 51.3665 35.9488 51.1668 35.749C50.967 35.5493 50.6961 35.4371 50.4136 35.4371H33.3718C33.0893 35.4371 32.8184 35.5493 32.6186 35.749C32.4189 35.9488 32.3066 36.2197 32.3066 36.5022V53.5441C32.3066 53.8265 32.4189 54.0975 32.6186 54.2972C32.8184 54.497 33.0893 54.6092 33.3718 54.6092H47.6251L49.2228 57.8045L48.3952 59.4587C48.2954 59.6586 48.261 59.8849 48.297 60.1055C48.3329 60.3261 48.4373 60.5298 48.5955 60.6878L51.0782 63.1706C50.2711 63.2689 49.5322 63.672 49.0125 64.2974C48.4929 64.9228 48.232 65.7231 48.2832 66.5346C48.3344 67.3461 48.6938 68.1073 49.2878 68.6624C49.8819 69.2176 50.6657 69.5246 51.4787 69.5208C51.5703 69.5208 51.6566 69.492 51.7471 69.4835C52.1222 70.9714 52.892 72.3304 53.9754 73.417C54.5027 73.9314 55.0958 74.3737 55.7392 74.7324V76.2843L50.5766 78.5807C49.2599 79.1669 48.1414 80.1221 47.3563 81.3308C46.5712 82.5395 46.1533 83.9498 46.1532 85.391V91.8882C46.1532 92.1707 46.2654 92.4417 46.4651 92.6414C46.6649 92.8411 46.9358 92.9534 47.2183 92.9534H72.7811C73.0635 92.9534 73.3345 92.8411 73.5342 92.6414C73.734 92.4417 73.8462 92.1707 73.8462 91.8882V85.391C73.846 83.9498 73.4281 82.5395 72.643 81.3308C71.858 80.1221 70.7394 79.1669 69.4227 78.5807L64.2601 76.2843V74.7473C65.2437 74.1815 66.104 73.4242 66.79 72.5203C67.476 71.6164 67.9739 70.5842 68.2543 69.4846C68.3438 69.492 68.4301 69.5208 68.5206 69.5208C69.1791 69.5181 69.8207 69.312 70.3576 68.9306C70.8945 68.5493 71.3005 68.0114 71.52 67.3906H75.9764C76.2327 67.3906 76.4804 67.2982 76.6741 67.1304C76.8678 66.9625 76.9945 66.7304 77.0309 66.4767L77.6284 62.3164C78.2107 62.1186 78.7799 61.8842 79.3326 61.6144L82.6866 64.1313C82.8918 64.2851 83.1455 64.3598 83.4012 64.3416C83.6569 64.3234 83.8975 64.2135 84.0787 64.0323L88.5948 59.5162C88.776 59.3348 88.8856 59.0941 88.9036 58.8384C88.9216 58.5827 88.8467 58.3291 88.6928 58.1241L86.177 54.7711C86.4468 54.2184 86.6812 53.6492 86.8789 53.0669L91.0393 52.4704C91.2933 52.434 91.5257 52.307 91.6936 52.1129C91.8615 51.9187 91.9537 51.6705 91.9531 51.4138V45.0231C91.9532 44.7668 91.8608 44.5191 91.6929 44.3254C91.5251 44.1317 91.293 44.0051 91.0393 43.9687V43.9687ZM34.4369 37.5673H49.3485V52.4789H34.4369V37.5673ZM51.3722 57.3284L50.0067 54.6092H65.3252C66.1727 54.6092 66.9854 54.9458 67.5847 55.5451C68.1839 56.1443 68.5206 56.9571 68.5206 57.8045V60.5589L67.0145 62.065H66.8601C66.6364 62.065 66.4185 61.9947 66.237 61.8639C66.0556 61.7332 65.9199 61.5486 65.8493 61.3365L65.2699 59.5982C65.2166 59.438 65.1261 59.2927 65.0057 59.1744C64.8854 59.0561 64.7386 58.968 64.5775 58.9176C64.4747 58.8859 64.3677 58.8698 64.2601 58.8696C64.0297 58.8696 63.8054 58.9444 63.6211 59.0827L61.6335 60.5738C60.3414 61.5387 58.7727 62.0616 57.1601 62.065H52.9848L50.6416 59.7217L51.3637 58.2774C51.4384 58.1307 51.478 57.9686 51.4795 57.8039C51.481 57.6393 51.4443 57.4765 51.3722 57.3284V57.3284ZM65.3252 48.2185C65.3161 46.6041 65.8282 45.0299 66.7854 43.7299C67.7426 42.4299 69.0938 41.4736 70.6381 41.0031C72.1824 40.5326 73.8374 40.573 75.3568 41.1184C76.8763 41.6638 78.1791 42.6851 79.0717 44.0303C79.9643 45.3755 80.3988 46.9728 80.3108 48.5848C80.2228 50.1968 79.6169 51.7373 78.5831 52.9774C77.5494 54.2174 76.1431 55.0907 74.5733 55.4674C73.0035 55.8441 71.354 55.7041 69.8701 55.0682C69.1929 53.9492 68.1269 53.1191 66.8761 52.7367C65.8771 51.4417 65.3321 49.854 65.3252 48.2185V48.2185ZM50.4136 66.3255C50.4136 66.043 50.5258 65.7721 50.7256 65.5723C50.9253 65.3726 51.1962 65.2603 51.4787 65.2603V67.3906C51.1962 67.3906 50.9253 67.2784 50.7256 67.0786C50.5258 66.8789 50.4136 66.6079 50.4136 66.3255ZM67.4555 90.8231H52.5438V80.0367L54.6741 79.0898V84.4324C54.6741 84.7149 54.7863 84.9858 54.986 85.1856C55.1858 85.3853 55.4567 85.4975 55.7392 85.4975H64.2601C64.5426 85.4975 64.8135 85.3853 65.0133 85.1856C65.213 84.9858 65.3252 84.7149 65.3252 84.4324V79.0898L67.4555 80.0367V90.8231ZM63.195 79.7651V83.3673H56.8043V79.7651C57.199 80.2267 57.689 80.5973 58.2406 80.8515C58.7922 81.1056 59.3923 81.2372 59.9997 81.2372C60.607 81.2372 61.2071 81.1056 61.7587 80.8515C62.3103 80.5973 62.8003 80.2267 63.195 79.7651ZM59.9997 79.1069C59.4347 79.1069 58.8929 78.8824 58.4934 78.4829C58.0939 78.0834 57.8694 77.5416 57.8694 76.9766V75.6324C59.2652 76.0045 60.7341 76.0045 62.1299 75.6324V76.9766C62.1299 77.5416 61.9055 78.0834 61.506 78.4829C61.1065 78.8824 60.5646 79.1069 59.9997 79.1069ZM48.2834 85.391C48.2855 84.5672 48.4791 83.7552 48.8488 83.0189C49.2184 82.2827 49.7542 81.6424 50.4136 81.1487V90.8231H48.2834V85.391ZM71.7159 85.391V90.8231H69.5857V81.1487C70.2452 81.6424 70.7809 82.2827 71.1506 83.0189C71.5202 83.7552 71.7138 84.5672 71.7159 85.391V85.391ZM66.3531 68.0446C66.2475 69.0617 65.8994 70.0386 65.3381 70.8933C64.7767 71.748 64.0184 72.4555 63.1269 72.9564C62.2354 73.4573 61.2368 73.7369 60.2148 73.7719C59.1928 73.8068 58.1774 73.596 57.2538 73.1571C56.5944 72.8484 55.9942 72.4267 55.4804 71.9109C54.434 70.8627 53.7842 69.4837 53.642 68.0094C53.618 67.804 53.6069 67.5973 53.609 67.3906V64.1952H57.159C59.2325 64.1914 61.2495 63.5191 62.9106 62.278L63.7169 61.6741L63.8298 62.0107C64.0162 62.5704 64.3543 63.0675 64.8063 63.4466C65.2584 63.8257 65.8067 64.0719 66.3904 64.1579V67.3906C66.392 67.6091 66.3796 67.8276 66.3531 68.0446ZM68.5206 67.3906V65.2603C68.8031 65.2603 69.074 65.3726 69.2737 65.5723C69.4735 65.7721 69.5857 66.043 69.5857 66.3255C69.5857 66.6079 69.4735 66.8789 69.2737 67.0786C69.074 67.2784 68.8031 67.3906 68.5206 67.3906ZM89.8229 50.4904L85.9118 51.0517C85.7082 51.0808 85.5175 51.1682 85.3625 51.3033C85.2075 51.4384 85.0949 51.6155 85.0384 51.8132C84.7844 52.6998 84.4325 53.5554 83.9893 54.3642C83.8912 54.5437 83.8469 54.7476 83.8616 54.9516C83.8764 55.1556 83.9495 55.351 84.0724 55.5145L86.4348 58.663L83.2266 61.8722L80.0782 59.5087C79.9143 59.3856 79.7184 59.3124 79.514 59.2979C79.3096 59.2833 79.1053 59.3281 78.9257 59.4267C78.1174 59.8703 77.2621 60.2225 76.3758 60.4769C76.1783 60.5334 76.0013 60.6458 75.8661 60.8005C75.731 60.9553 75.6435 61.1459 75.6143 61.3492L75.054 65.2603H71.52C71.3225 64.7057 70.975 64.2167 70.5161 63.8478C70.0573 63.4789 69.5052 63.2444 68.9211 63.1706L70.3387 61.7529C70.5385 61.5532 70.6508 61.2823 70.6508 60.9999V57.8045C70.6508 57.7193 70.6295 57.6405 70.6253 57.5564C72.7552 58.0544 74.9912 57.8119 76.9648 56.8686C78.9383 55.9254 80.5316 54.3379 81.4819 52.3677C82.4321 50.3976 82.6827 48.1624 82.1923 46.0307C81.7018 43.899 80.4997 41.9981 78.784 40.6413C77.0682 39.2845 74.9414 38.5528 72.7541 38.5669C70.5668 38.581 68.4495 39.34 66.7514 40.7188C65.0533 42.0975 63.8757 44.0138 63.4128 46.1516C62.9498 48.2894 63.2292 50.5212 64.2047 52.4789H60.7548C60.6781 52.2595 60.5844 52.0295 60.5237 51.8164C60.4677 51.6181 60.3554 51.4404 60.2003 51.3046C60.0453 51.1689 59.8543 51.081 59.6503 51.0517L55.7392 50.4904V45.9466L59.6503 45.3853C59.8539 45.3562 60.0446 45.2688 60.1996 45.1337C60.3546 44.9985 60.4672 44.8214 60.5237 44.6237C60.7777 43.7371 61.1296 42.8815 61.5728 42.0728C61.6709 41.8933 61.7152 41.6894 61.7005 41.4854C61.6857 41.2814 61.6126 41.086 61.4898 40.9224L59.1273 37.7739L62.3355 34.5648L65.4839 36.9282C65.6478 37.0513 65.8437 37.1245 66.0481 37.1391C66.2525 37.1536 66.4568 37.1089 66.6364 37.0103C67.4448 36.5667 68.3 36.2144 69.1863 35.9601C69.3838 35.9036 69.5608 35.7912 69.696 35.6364C69.8311 35.4816 69.9186 35.2911 69.9478 35.0877L70.5081 31.1766H75.054L75.6143 35.0877C75.6435 35.2911 75.731 35.4816 75.8661 35.6364C76.0013 35.7912 76.1783 35.9036 76.3758 35.9601C77.2621 36.2144 78.1174 36.5667 78.9257 37.0103C79.1053 37.1089 79.3096 37.1536 79.514 37.1391C79.7184 37.1245 79.9143 37.0513 80.0782 36.9282L83.2266 34.5648L86.4348 37.7739L84.0713 40.9224C83.9485 41.086 83.8753 41.2814 83.8606 41.4854C83.8458 41.6894 83.8902 41.8933 83.9882 42.0728C84.4315 42.8815 84.7833 43.7371 85.0373 44.6237C85.0939 44.8214 85.2064 44.9985 85.3614 45.1337C85.5164 45.2688 85.7072 45.3562 85.9107 45.3853L89.8229 45.9466V50.4904Z" fill="#2A2A2A"/>
<path d="M71.7158 33.3069H73.8461V35.4371H71.7158V33.3069Z" fill="#2A2A2A"/>
<path d="M61.4795 38.4302L62.9858 36.9239L64.4921 38.4302L62.9858 39.9365L61.4795 38.4302Z" fill="#2A2A2A"/>
<path d="M57.8691 47.1533H59.9994V49.2835H57.8691V47.1533Z" fill="#2A2A2A"/>
<path d="M71.7158 61H73.8461V63.1302H71.7158V61Z" fill="#2A2A2A"/>
<path d="M81.0566 58.0122L82.5629 56.5059L84.0692 58.0122L82.5629 59.5185L81.0566 58.0122Z" fill="#2A2A2A"/>
<path d="M85.5625 47.1533H87.6927V49.2835H85.5625V47.1533Z" fill="#2A2A2A"/>
<path d="M81.0586 38.4326L82.5649 36.9263L84.0712 38.4326L82.5649 39.9389L81.0586 38.4326Z" fill="#2A2A2A"/>
<path d="M39.7621 75.9116H37.6319V69.5209H38.697C38.9795 69.5209 39.2504 69.4087 39.4502 69.209C39.6499 69.0092 39.7621 68.7383 39.7621 68.4558V66.3256C39.7621 66.2383 39.7514 66.1514 39.7302 66.0668L38.6651 61.8063C38.6074 61.576 38.4744 61.3715 38.2872 61.2254C38.1 61.0794 37.8694 61 37.6319 61H35.5017C35.2642 61 35.0336 61.0794 34.8464 61.2254C34.6592 61.3715 34.5262 61.576 34.4685 61.8063L33.4034 66.0668C33.3822 66.1514 33.3715 66.2383 33.3714 66.3256V68.4558C33.3714 68.7383 33.4837 69.0092 33.6834 69.209C33.8832 69.4087 34.1541 69.5209 34.4366 69.5209H35.5017V75.9116H33.3714C32.8065 75.9116 32.2646 76.1361 31.8651 76.5356C31.4656 76.9351 31.2412 77.4769 31.2412 78.0419V90.8233C31.2412 91.3882 31.4656 91.9301 31.8651 92.3296C32.2646 92.7291 32.8065 92.9535 33.3714 92.9535H39.7621C40.3271 92.9535 40.8689 92.7291 41.2684 92.3296C41.6679 91.9301 41.8924 91.3882 41.8924 90.8233V78.0419C41.8924 77.4769 41.6679 76.9351 41.2684 76.5356C40.8689 76.1361 40.3271 75.9116 39.7621 75.9116ZM35.5017 66.4566L36.3335 63.1302H36.8001L37.6319 66.4566V67.3907H35.5017V66.4566ZM37.6319 90.8233V81.2372H35.5017V90.8233H33.3714V78.0419H39.7621V90.8233H37.6319Z" fill="#2A2A2A"/>
<path d="M46.1525 39.6975H37.6315C37.349 39.6975 37.0781 39.8097 36.8784 40.0095C36.6786 40.2092 36.5664 40.4801 36.5664 40.7626V49.2836C36.5664 49.566 36.6786 49.837 36.8784 50.0367C37.0781 50.2365 37.349 50.3487 37.6315 50.3487H42.9571C43.2396 50.3486 43.5104 50.2364 43.7101 50.0366L46.9055 46.8412C47.1053 46.6415 47.2175 46.3707 47.2176 46.0882V40.7626C47.2176 40.4801 47.1054 40.2092 46.9056 40.0095C46.7059 39.8097 46.4349 39.6975 46.1525 39.6975ZM45.0873 45.6472L42.5193 48.2184H38.6966V41.8277H45.0873V45.6472Z" fill="#2A2A2A"/>
<path d="M40.8271 56.7395H42.9574V58.8697H40.8271V56.7395Z" fill="#2A2A2A"/>
<path d="M45.0879 56.7395H47.2181V58.8697H45.0879V56.7395Z" fill="#2A2A2A"/>
<path d="M36.5664 56.7395H38.6966V58.8697H36.5664V56.7395Z" fill="#2A2A2A"/>
<path d="M28.0459 48.2185H30.1761V50.3487H28.0459V48.2185Z" fill="#2A2A2A"/>
<path d="M28.0459 43.958H30.1761V46.0882H28.0459V43.958Z" fill="#2A2A2A"/>
<path d="M28.0459 39.6975H30.1761V41.8277H28.0459V39.6975Z" fill="#2A2A2A"/>
<path d="M53.6084 39.6975H55.7386V41.8277H53.6084V39.6975Z" fill="#2A2A2A"/>
<path d="M40.8271 31.1765H42.9574V33.3067H40.8271V31.1765Z" fill="#2A2A2A"/>
<path d="M45.0879 31.1765H47.2181V33.3067H45.0879V31.1765Z" fill="#2A2A2A"/>
<path d="M36.5664 31.1765H38.6966V33.3067H36.5664V31.1765Z" fill="#2A2A2A"/>
</svg>
