<svg width="120" height="120" viewBox="0 0 120 120" fill="none" xmlns="http://www.w3.org/2000/svg">
<circle cx="60" cy="60" r="60" fill="#FCE3E4"/>
<path d="M71.25 29C70.5598 29 70 29.5598 70 30.25V36C70 36.6902 70.5598 37.25 71.25 37.25C71.9402 37.25 72.5 36.6902 72.5 36V30.25C72.5 29.5598 71.9402 29 71.25 29Z" fill="#2A2A2A"/>
<path d="M42.5 68C41.81 68 41.25 68.56 41.25 69.25C41.25 69.94 41.81 70.5 42.5 70.5C43.19 70.5 43.75 69.94 43.75 69.25C43.75 68.56 43.19 68 42.5 68Z" fill="#2A2A2A"/>
<path d="M88.75 65.5C88.75 62.743 86.507 60.5 83.75 60.5H74.4185C75.8631 56.7996 76.4479 52.4441 76.3351 48.567C76.3136 47.8271 76.2853 47.3993 76.2469 47.1299C76.1823 44.429 73.9645 42.25 71.25 42.25C68.493 42.25 66.25 44.493 66.25 47.25V48.5C66.25 56.4057 56.0983 60.8476 48.437 62.7524C47.8578 61.4281 46.5355 60.5 45 60.5H32.5C31.8098 60.5 31.25 61.0598 31.25 61.75V91.75C31.25 92.4402 31.8098 93 32.5 93H45C46.5252 93 47.8399 92.0841 48.4251 90.7739C49.0595 90.9366 49.6484 91.0904 50.192 91.2324C54.5564 92.3723 56.9605 93 62.8075 93H76.25C79.007 93 81.25 90.757 81.25 88C81.25 86.972 80.9379 86.0157 80.4038 85.2202C82.3348 84.5449 83.75 82.6999 83.75 80.5C83.75 79.4757 83.4455 78.5164 82.913 77.7173C84.8355 77.0408 86.25 75.2 86.25 73C86.25 71.972 85.9379 71.0157 85.4038 70.2202C87.3348 69.5449 88.75 67.6999 88.75 65.5ZM46.25 89.25C46.25 89.9392 45.6892 90.5 45 90.5H33.75V63H45C45.6892 63 46.25 63.5608 46.25 64.25V89.25ZM83.75 68C81.0689 68 80.4297 68 77.5 68C76.8098 68 76.25 68.5598 76.25 69.25C76.25 69.9402 76.8098 70.5 77.5 70.5H81.25C82.6285 70.5 83.75 71.6215 83.75 73C83.75 74.3807 82.6307 75.5 81.25 75.5H75C74.3098 75.5 73.75 76.0598 73.75 76.75C73.75 77.4402 74.3098 78 75 78H78.75C80.1121 78 81.25 79.0881 81.25 80.5C81.25 81.8807 80.1307 83 78.75 83C76.0689 83 75.4297 83 72.5 83C71.8098 83 71.25 83.5598 71.25 84.25C71.25 84.9402 71.8098 85.5 72.5 85.5H76.25C77.6285 85.5 78.75 86.6215 78.75 88C78.75 89.3785 77.6285 90.5 76.25 90.5H62.8075C57.2816 90.5 55.1234 89.9364 50.8237 88.8135C50.1939 88.649 49.503 88.4686 48.75 88.2766V65.2531C57.796 63.0984 68.75 57.8389 68.75 48.5V47.25C68.75 45.8715 69.8715 44.75 71.25 44.75C72.626 44.75 73.7474 45.8697 73.75 47.2461V47.25C73.75 47.7933 74.428 54.4604 71.7093 60.5H67.5C66.8098 60.5 66.25 61.0598 66.25 61.75C66.25 62.4402 66.8098 63 67.5 63C68.3729 63 82.3253 63 83.75 63C85.1285 63 86.25 64.1215 86.25 65.5C86.25 66.8807 85.1307 68 83.75 68Z" fill="#2A2A2A"/>
<path d="M42.5 73C41.8098 73 41.25 73.5598 41.25 74.25V84.25C41.25 84.9402 41.8098 85.5 42.5 85.5C43.1902 85.5 43.75 84.9402 43.75 84.25V74.25C43.75 73.5598 43.1902 73 42.5 73Z" fill="#2A2A2A"/>
<path d="M61.25 44.75H56.25C55.5598 44.75 55 45.3098 55 46C55 46.6902 55.5598 47.25 56.25 47.25H61.25C61.9402 47.25 62.5 46.6902 62.5 46C62.5 45.3098 61.9402 44.75 61.25 44.75Z" fill="#2A2A2A"/>
<path d="M86.25 44.75H81.25C80.5598 44.75 80 45.3098 80 46C80 46.6902 80.5598 47.25 81.25 47.25H86.25C86.9402 47.25 87.5 46.6902 87.5 46C87.5 45.3098 86.9402 44.75 86.25 44.75Z" fill="#2A2A2A"/>
<path d="M82.7401 34.5098C82.2519 34.0218 81.4606 34.0218 80.9723 34.5098L77.4374 38.0447C76.9493 38.5328 76.9493 39.3243 77.4374 39.8125C77.9258 40.3007 78.7169 40.3005 79.2053 39.8125L82.7401 36.2777C83.2283 35.7895 83.2283 34.998 82.7401 34.5098Z" fill="#2A2A2A"/>
<path d="M65.0624 38.0447L61.5275 34.5098C61.0393 34.0218 60.248 34.0218 59.7596 34.5098C59.2715 34.9979 59.2715 35.7894 59.7596 36.2777L63.2945 39.8125C63.783 40.3007 64.5741 40.3005 65.0624 39.8125C65.5505 39.3244 65.5505 38.5329 65.0624 38.0447Z" fill="#2A2A2A"/>
</svg>
