<svg width="120" height="120" viewBox="0 0 120 120" fill="none" xmlns="http://www.w3.org/2000/svg">
<circle cx="60" cy="60" r="60" fill="#FCE3E4"/>
<path d="M56.8135 37.6306H58.938V39.7551H56.8135V37.6306Z" fill="#2A2A2A"/>
<path d="M42.0996 44.5957L43.6018 43.0935L45.1041 44.5957L43.6018 46.0979L42.0996 44.5957Z" fill="#2A2A2A"/>
<path d="M36.6309 57.8132H38.7553V59.9377H36.6309V57.8132Z" fill="#2A2A2A"/>
<path d="M42.0889 73.1594L43.5911 71.6572L45.0933 73.1594L43.5911 74.6617L42.0889 73.1594Z" fill="#2A2A2A"/>
<path d="M56.8135 77.9956H58.938V80.1201H56.8135V77.9956Z" fill="#2A2A2A"/>
<path d="M76.9961 57.8132H79.1206V59.9377H76.9961V57.8132Z" fill="#2A2A2A"/>
<path d="M70.6455 44.6233L72.1477 43.1211L73.65 44.6233L72.1477 46.1255L70.6455 44.6233Z" fill="#2A2A2A"/>
<path d="M58.9388 55.4317V42.9419H56.8143V55.4317L54.4317 57.8133H44.0674V59.9377H54.4317L57.1255 62.6305C57.3247 62.8297 57.5948 62.9415 57.8765 62.9415C58.1582 62.9415 58.4283 62.8297 58.6275 62.6305L61.6326 59.6265C61.8317 59.4273 61.9436 59.1572 61.9436 58.8755C61.9436 58.5938 61.8317 58.3237 61.6326 58.1245L58.9388 55.4317ZM57.8765 60.3775L56.3745 58.8755L57.8765 57.3735L59.3785 58.8755L57.8765 60.3775Z" fill="#2A2A2A"/>
<path d="M76.996 73.7468C76.1557 73.7468 75.3342 73.996 74.6354 74.4629C73.9367 74.9298 73.3921 75.5934 73.0705 76.3698C72.7489 77.1462 72.6648 78.0005 72.8287 78.8247C72.9927 79.6489 73.3973 80.406 73.9916 81.0003C74.5858 81.5945 75.3429 81.9992 76.1671 82.1631C76.9913 82.3271 77.8457 82.2429 78.622 81.9213C79.3984 81.5997 80.062 81.0551 80.5289 80.3564C80.9958 79.6577 81.245 78.8362 81.245 77.9958C81.245 76.8689 80.7973 75.7882 80.0005 74.9913C79.2037 74.1945 78.1229 73.7468 76.996 73.7468ZM76.996 80.1203C76.5759 80.1203 76.1651 79.9957 75.8157 79.7622C75.4664 79.5288 75.1941 79.197 75.0333 78.8088C74.8725 78.4206 74.8304 77.9934 74.9124 77.5813C74.9944 77.1692 75.1967 76.7907 75.4938 76.4936C75.7909 76.1964 76.1695 75.9941 76.5816 75.9121C76.9937 75.8302 77.4208 75.8722 77.809 76.033C78.1972 76.1938 78.529 76.4661 78.7625 76.8155C78.9959 77.1649 79.1205 77.5756 79.1205 77.9958C79.1205 78.5592 78.8967 79.0996 78.4983 79.498C78.0999 79.8964 77.5595 80.1203 76.996 80.1203Z" fill="#2A2A2A"/>
<path d="M86.8137 75.9031L85.1077 75.4782C84.9539 74.9826 84.7548 74.5022 84.5128 74.0431L85.4189 72.5337C85.5406 72.3305 85.5909 72.0926 85.5618 71.8576C85.5327 71.6226 85.426 71.404 85.2585 71.2367L83.7565 69.7347C83.5891 69.5669 83.3703 69.46 83.1351 69.431C82.8999 69.4019 82.6617 69.4523 82.4585 69.5743L80.949 70.4803C80.4908 70.2381 80.0111 70.039 79.5161 69.8855L79.0912 68.1795C79.0339 67.9491 78.9011 67.7444 78.714 67.5983C78.5268 67.4522 78.2961 67.3729 78.0587 67.3733H75.9342C75.6972 67.3734 75.4671 67.4526 75.2804 67.5985C75.0937 67.7444 74.9612 67.9486 74.9038 68.1785L74.4789 69.8844C73.9839 70.0379 73.5042 70.2371 73.046 70.4793L71.5365 69.5732C71.3333 69.4513 71.0951 69.4009 70.8599 69.4299C70.6247 69.459 70.4059 69.5659 70.2385 69.7336L68.7364 71.2356C68.569 71.403 68.4622 71.6215 68.4332 71.8565C68.4041 72.0915 68.4544 72.3294 68.5761 72.5326L69.4821 74.042C69.2402 74.5011 69.0411 74.9815 68.8873 75.4771L67.1813 75.902C66.9509 75.959 66.7461 76.0915 66.5998 76.2785C66.4534 76.4655 66.374 76.696 66.374 76.9335V79.0579C66.3741 79.2949 66.4534 79.525 66.5993 79.7117C66.7452 79.8984 66.9493 80.031 67.1792 80.0883L68.8852 80.5132C69.0388 81.0085 69.2379 81.4886 69.48 81.9472L68.5739 83.4577C68.4523 83.6609 68.402 83.8988 68.4311 84.1338C68.4601 84.3688 68.5669 84.5873 68.7343 84.7547L70.2363 86.2567C70.4038 86.4244 70.6225 86.5313 70.8577 86.5604C71.093 86.5895 71.3311 86.539 71.5344 86.4171L73.0438 85.511C73.502 85.7532 73.9818 85.9524 74.4768 86.1059L74.9017 87.8119C74.9589 88.0423 75.0917 88.2469 75.2789 88.3931C75.466 88.5392 75.6967 88.6184 75.9342 88.6181H78.0587C78.2956 88.618 78.5257 88.5387 78.7124 88.3928C78.8991 88.2469 79.0317 88.0428 79.089 87.8129L79.5139 86.107C80.009 85.9534 80.4887 85.7543 80.9469 85.5121L82.4563 86.4182C82.6596 86.5401 82.8978 86.5905 83.133 86.5615C83.3682 86.5324 83.5869 86.4255 83.7544 86.2578L85.2564 84.7558C85.4239 84.5884 85.5306 84.3699 85.5597 84.1349C85.5887 83.8999 85.5384 83.6619 85.4168 83.4588L84.5107 81.9483C84.7528 81.4897 84.952 81.0096 85.1056 80.5143L86.8115 80.0894C87.042 80.0324 87.2467 79.8998 87.3931 79.7129C87.5394 79.5259 87.6189 79.2953 87.6188 79.0579V76.9335C87.6188 76.6965 87.5395 76.4664 87.3936 76.2797C87.2477 76.093 87.0436 75.9604 86.8137 75.9031V75.9031ZM85.4944 78.2283L83.987 78.6054C83.7962 78.6531 83.6224 78.7528 83.4849 78.8935C83.3474 79.0342 83.2517 79.2102 83.2084 79.4021C83.0498 80.109 82.7702 80.7832 82.382 81.3949C82.2767 81.5613 82.2197 81.7538 82.2174 81.9507C82.2152 82.1477 82.2677 82.3414 82.3692 82.5102L83.1702 83.8454L82.8409 84.1747L81.5067 83.3749C81.3381 83.2734 81.1447 83.2208 80.9479 83.2229C80.7512 83.2249 80.5588 83.2816 80.3924 83.3866C79.7812 83.7736 79.1083 84.0531 78.4028 84.213C78.211 84.2563 78.0349 84.352 77.8942 84.4895C77.7536 84.627 77.6538 84.8008 77.6062 84.9916L77.2291 86.4936H76.7638L76.3867 84.9863C76.339 84.7955 76.2393 84.6217 76.0986 84.4842C75.958 84.3467 75.7819 84.251 75.59 84.2077C74.8834 84.0481 74.2094 83.7686 73.5973 83.3813C73.4305 83.2771 73.2383 83.2209 73.0418 83.2188C72.8452 83.2168 72.6518 83.2689 72.483 83.3696L71.1488 84.1694L70.8195 83.8401L71.6204 82.5049C71.7219 82.3361 71.7745 82.1424 71.7722 81.9454C71.77 81.7485 71.713 81.556 71.6077 81.3896C71.22 80.7795 70.9404 80.1072 70.7813 79.4021C70.738 79.2102 70.6422 79.0342 70.5048 78.8935C70.3673 78.7528 70.1935 78.6531 70.0026 78.6054L68.4985 78.2283V77.7631L70.0058 77.386C70.1966 77.3383 70.3705 77.2385 70.5079 77.0979C70.6454 76.9572 70.7411 76.7811 70.7844 76.5893C70.9436 75.8826 71.2232 75.2085 71.6109 74.5965C71.716 74.4302 71.7728 74.2379 71.7751 74.0412C71.7773 73.8444 71.7249 73.6509 71.6236 73.4822L70.8227 72.1534L71.152 71.8241L72.4862 72.6239C72.6546 72.7244 72.8475 72.7763 73.0437 72.7739C73.2398 72.7715 73.4314 72.7148 73.5973 72.6101C74.2084 72.2231 74.8813 71.9436 75.5868 71.7837C75.7787 71.7404 75.9548 71.6447 76.0954 71.5072C76.2361 71.3697 76.3358 71.1959 76.3835 71.0051L76.7638 69.4978H77.2291L77.6062 71.0051C77.6538 71.1959 77.7536 71.3697 77.8942 71.5072C78.0349 71.6447 78.211 71.7404 78.4028 71.7837C79.1083 71.9436 79.7812 72.2231 80.3924 72.6101C80.5588 72.7151 80.7512 72.7718 80.9479 72.7738C81.1447 72.7759 81.3381 72.7233 81.5067 72.6218L82.8409 71.822L83.1702 72.1512L82.3692 73.4854C82.2686 73.6538 82.2165 73.8467 82.2187 74.0428C82.221 74.2389 82.2775 74.4305 82.382 74.5965C82.7693 75.2075 83.0489 75.8805 83.2084 76.5861C83.2517 76.778 83.3474 76.954 83.4849 77.0947C83.6224 77.2354 83.7962 77.3351 83.987 77.3828L85.4944 77.7631V78.2283Z" fill="#2A2A2A"/>
<path d="M86.5758 66.6383C88.2985 60.3002 87.8787 53.5705 85.3816 47.4957C82.8845 41.4209 78.45 36.3414 72.7679 33.0472C67.0857 29.7529 60.4743 28.4286 53.9617 29.28C47.4491 30.1315 41.4003 33.111 36.756 37.7553C32.1117 42.3996 29.1322 48.4483 28.2808 54.9609C27.4293 61.4735 28.7537 68.085 32.0479 73.7672C35.3421 79.4493 40.4216 83.8837 46.4964 86.3808C52.5712 88.8779 59.3009 89.2978 65.639 87.575C66.9643 89.1511 68.6028 90.4344 70.4504 91.3437C72.298 92.253 74.3144 92.7683 76.3717 92.857C78.429 92.9457 80.4823 92.6059 82.4013 91.859C84.3203 91.1122 86.0632 89.9746 87.5193 88.5185C88.9754 87.0624 90.1129 85.3196 90.8598 83.4006C91.6066 81.4816 91.9465 79.4283 91.8578 77.371C91.7691 75.3137 91.2537 73.2973 90.3444 71.4497C89.4352 69.6021 88.1518 67.9636 86.5758 66.6383V66.6383ZM57.8762 86.4937C52.1244 86.5027 46.5129 84.7186 41.8224 81.3896C37.1319 78.0606 33.5959 73.3522 31.7062 67.9197C29.8166 62.4872 29.6674 56.6008 31.2793 51.0795C32.8913 45.5582 36.1843 40.6768 40.7 37.1144C45.2158 33.552 50.7297 31.4858 56.4746 31.2035C62.2194 30.9211 67.9094 32.4365 72.7527 35.5389C77.5961 38.6412 81.3519 43.1762 83.4976 48.5128C85.6433 53.8493 86.072 59.722 84.7243 65.3137C84.102 64.9265 83.4519 64.586 82.7793 64.295C83.9597 58.903 83.3611 53.2736 81.0731 48.2505C78.7852 43.2273 74.9311 39.0808 70.0884 36.4321C65.2457 33.7835 59.6751 32.7754 54.2113 33.559C48.7475 34.3425 43.6847 36.8754 39.7815 40.7782C35.8783 44.681 33.3448 49.7435 32.5607 55.2072C31.7766 60.6709 32.784 66.2416 35.4321 71.0846C38.0802 75.9276 42.2263 79.7821 47.2493 82.0706C52.2722 84.3591 57.9014 84.9584 63.2936 83.7786C63.5846 84.4512 63.9251 85.1013 64.3123 85.7236C62.2045 86.2315 60.0443 86.49 57.8762 86.4937ZM62.1251 77.9958C62.13 79.2643 62.2978 80.5271 62.6244 81.7529C57.6936 82.7803 52.5629 82.1888 47.9952 80.0663C43.4276 77.9439 39.6669 74.4039 37.2725 69.9727C34.8781 65.5416 33.9779 60.4559 34.7056 55.4721C35.4333 50.4883 37.7502 45.8724 41.3117 42.3109C44.8732 38.7495 49.489 36.4326 54.4728 35.7049C59.4567 34.9771 64.5423 35.8774 68.9735 38.2718C73.4046 40.6662 76.9446 44.4268 79.067 48.9945C81.1895 53.5621 81.781 58.6928 80.7536 63.6236C78.5549 63.0379 76.2509 62.9665 74.0201 63.415C71.7894 63.8635 69.6919 64.8197 67.8904 66.2096C66.0888 67.5995 64.6317 69.3857 63.6319 71.4297C62.632 73.4736 62.1165 75.7204 62.1251 77.9958V77.9958ZM76.9965 90.7426C74.4754 90.7426 72.0109 89.995 69.9147 88.5944C67.8185 87.1938 66.1847 85.203 65.2199 82.8738C64.2551 80.5446 64.0027 77.9816 64.4945 75.509C64.9864 73.0363 66.2004 70.765 67.9831 68.9823C69.7658 67.1997 72.037 65.9856 74.5097 65.4938C76.9823 65.0019 79.5453 65.2544 81.8745 66.2192C84.2037 67.1839 86.1945 68.8177 87.5951 70.914C88.9958 73.0102 89.7434 75.4747 89.7434 77.9958C89.7397 81.3753 88.3956 84.6154 86.0059 87.0051C83.6161 89.3948 80.376 90.739 76.9965 90.7426V90.7426Z" fill="#2A2A2A"/>
</svg>
