<svg width="120" height="120" viewBox="0 0 120 120" fill="none" xmlns="http://www.w3.org/2000/svg">
<circle cx="60" cy="60" r="60" fill="#FCE3E4"/>
<path d="M78.0002 48H60C59.3096 48 58.75 48.5596 58.75 49.25C58.75 49.9404 59.3096 50.5 60 50.5H78.0002C78.6906 50.5 79.2502 49.9404 79.2502 49.25C79.2502 48.5596 78.6906 48 78.0002 48Z" fill="#2A2A2A"/>
<path d="M73.6259 54.3662C73.3934 54.1337 73.0709 54 72.7422 54C72.4134 54 72.0909 54.1337 71.8584 54.3662C71.6259 54.5987 71.4922 54.9212 71.4922 55.25C71.4922 55.5787 71.6259 55.9012 71.8584 56.1337C72.0909 56.3662 72.4134 56.5 72.7422 56.5C73.0709 56.5 73.3934 56.3662 73.6259 56.1337C73.8584 55.9012 73.9922 55.5787 73.9922 55.25C73.9922 54.9212 73.8584 54.5987 73.6259 54.3662Z" fill="#2A2A2A"/>
<path d="M60.8828 34.7412C60.6503 34.5087 60.3278 34.375 59.999 34.375C59.6703 34.375 59.3478 34.5087 59.1153 34.7412C58.8828 34.9737 58.749 35.2962 58.749 35.625C58.749 35.9537 58.8828 36.2762 59.1153 36.5087C59.3478 36.7412 59.6703 36.875 59.999 36.875C60.3278 36.875 60.6503 36.7412 60.8828 36.5087C61.1153 36.2762 61.249 35.9537 61.249 35.625C61.249 35.2962 61.1153 34.9737 60.8828 34.7412Z" fill="#2A2A2A"/>
<path d="M67.4846 54H60C59.3096 54 58.75 54.5596 58.75 55.25C58.75 55.9404 59.3096 56.5 60 56.5H67.4846C68.175 56.5 68.7346 55.9404 68.7346 55.25C68.7346 54.5596 68.175 54 67.4846 54Z" fill="#2A2A2A"/>
<path d="M78.0002 61.5H60C59.3096 61.5 58.75 62.0596 58.75 62.75C58.75 63.4404 59.3096 64 60 64H78.0002C78.6906 64 79.2502 63.4404 79.2502 62.75C79.2502 62.0596 78.6906 61.5 78.0002 61.5Z" fill="#2A2A2A"/>
<path d="M73.6259 67.8662C73.3934 67.6337 73.0709 67.5 72.7422 67.5C72.4134 67.5 72.0909 67.6337 71.8584 67.8662C71.6259 68.0987 71.4922 68.4212 71.4922 68.75C71.4922 69.0787 71.6259 69.4012 71.8584 69.6337C72.0909 69.8662 72.4134 70 72.7422 70C73.0709 70 73.3934 69.8662 73.6259 69.6337C73.8584 69.4012 73.9922 69.0787 73.9922 68.75C73.9922 68.4212 73.8584 68.0987 73.6259 67.8662Z" fill="#2A2A2A"/>
<path d="M67.4846 67.5H60C59.3096 67.5 58.75 68.0596 58.75 68.75C58.75 69.4404 59.3096 70 60 70H67.4846C68.175 70 68.7346 69.4404 68.7346 68.75C68.7346 68.0596 68.175 67.5 67.4846 67.5Z" fill="#2A2A2A"/>
<path d="M78.0002 75H60C59.3096 75 58.75 75.5596 58.75 76.25C58.75 76.9404 59.3096 77.5 60 77.5H78.0002C78.6906 77.5 79.2502 76.9404 79.2502 76.25C79.2502 75.5596 78.6906 75 78.0002 75Z" fill="#2A2A2A"/>
<path d="M73.6259 81.3662C73.3934 81.1337 73.0709 81 72.7422 81C72.4134 81 72.0909 81.1337 71.8584 81.3662C71.6259 81.5987 71.4922 81.9212 71.4922 82.25C71.4922 82.5787 71.6259 82.9012 71.8584 83.1337C72.0909 83.3662 72.4134 83.5 72.7422 83.5C73.0709 83.5 73.3934 83.3662 73.6259 83.1337C73.8584 82.9012 73.9922 82.5787 73.9922 82.25C73.9922 81.9212 73.8584 81.5987 73.6259 81.3662Z" fill="#2A2A2A"/>
<path d="M67.4846 80.9998H60C59.3096 80.9998 58.75 81.5594 58.75 82.2498C58.75 82.9401 59.3096 83.4998 60 83.4998H67.4846C68.175 83.4998 68.7346 82.9401 68.7346 82.2498C68.7346 81.5594 68.175 80.9998 67.4846 80.9998Z" fill="#2A2A2A"/>
<path d="M80.4052 33.8751H70.8578C69.4777 32.56 67.6121 31.75 65.5597 31.75H64.4647C63.6276 30.0927 61.9077 29 59.9998 29C58.0919 29 56.3722 30.0927 55.535 31.75H54.4373C52.385 31.75 50.5195 32.56 49.1393 33.8751H39.5947C36.2341 33.8751 33.5 36.6092 33.5 39.9699V86.9053C33.5 90.2659 36.2341 93 39.5947 93H80.405C83.7656 93 86.4998 90.2659 86.4998 86.9053V39.9699C86.4999 36.6092 83.7658 33.8751 80.4052 33.8751ZM54.4375 34.25H56.3857C56.948 34.25 57.441 33.8746 57.5906 33.3327C57.8887 32.2536 58.8794 31.5 59.9999 31.5C61.1204 31.5 62.1112 32.2536 62.4092 33.3327C62.5588 33.8746 63.0519 34.25 63.6141 34.25H65.5597C68.2728 34.25 70.5061 36.3437 70.7289 39.0001H49.2682C49.4911 36.3437 51.7245 34.25 54.4375 34.25ZM83.9999 86.9054C83.9999 88.8875 82.3873 90.5001 80.4052 90.5001H39.5947C37.6126 90.5001 36 88.8875 36 86.9054V39.9699C36 37.9877 37.6126 36.3751 39.5947 36.3751H47.3881C46.9786 37.3141 46.75 38.3494 46.75 39.4376V40.2501C46.75 40.9405 47.3096 41.5001 48 41.5001H71.9973C72.6877 41.5001 73.2473 40.9405 73.2473 40.2501V39.4376C73.2473 38.3495 73.0187 37.3141 72.6092 36.3751H80.4052C82.3873 36.3751 83.9999 37.9877 83.9999 39.9699V86.9054Z" fill="#2A2A2A"/>
<path d="M52.0508 47.6994C51.5627 47.2112 50.7712 47.2112 50.2831 47.6992L44.9378 53.0446L43.2912 51.3979C42.8031 50.9099 42.0116 50.9099 41.5233 51.3979C41.0352 51.886 41.0352 52.6775 41.5233 53.1657L44.0539 55.6963C44.2981 55.9405 44.6179 56.0625 44.9378 56.0625C45.2577 56.0625 45.5777 55.9405 45.8217 55.6963L52.0508 49.4672C52.5389 48.9791 52.5389 48.1876 52.0508 47.6994Z" fill="#2A2A2A"/>
<path d="M49 75H43C42.3096 75 41.75 75.5596 41.75 76.25V82.25C41.75 82.9404 42.3096 83.5 43 83.5H49C49.6904 83.5 50.25 82.9404 50.25 82.25V76.25C50.25 75.5596 49.6904 75 49 75ZM47.75 81H44.25V77.5H47.75V81Z" fill="#2A2A2A"/>
<path d="M49 61.5H43C42.3096 61.5 41.75 62.0596 41.75 62.75V68.75C41.75 69.4404 42.3096 70 43 70H49C49.6904 70 50.25 69.4404 50.25 68.75V62.75C50.25 62.0596 49.6904 61.5 49 61.5ZM47.75 67.5H44.25V64H47.75V67.5Z" fill="#2A2A2A"/>
</svg>
