<svg width="120" height="120" viewBox="0 0 120 120" fill="none" xmlns="http://www.w3.org/2000/svg">
<circle cx="60" cy="60" r="60" fill="#FCE3E4"/>
<g clip-path="url(#clip0)">
<path d="M39.2563 78.4937C38.3604 78.4937 37.499 78.7173 36.7349 79.1372C32.7095 73.9771 30.5 67.5669 30.5 61C30.5 44.7334 43.7334 31.5 60 31.5C61.9775 31.5 63.9541 31.6968 65.875 32.085C66.5508 32.2217 67.2109 31.7842 67.3477 31.1074C67.4844 30.4307 67.0469 29.7715 66.3701 29.6343C64.2866 29.2134 62.1436 29 60 29C51.4526 29 43.4165 32.3286 37.3726 38.3726C31.3286 44.4165 28 52.4526 28 61C28 68.1899 30.4414 75.2065 34.8862 80.8315C34.314 81.6865 34.0063 82.6914 34.0063 83.7437C34.0063 85.146 34.5527 86.4644 35.5444 87.4556C36.5356 88.4473 37.854 88.9937 39.2563 88.9937C40.6587 88.9937 41.9771 88.4473 42.9688 87.4556C43.9605 86.4644 44.5063 85.1455 44.5063 83.7432C44.5063 82.3413 43.9605 81.0225 42.9688 80.0313C41.9771 79.0396 40.6587 78.4937 39.2563 78.4937V78.4937ZM41.2007 85.688C40.6816 86.2075 39.9907 86.4937 39.2563 86.4937C38.522 86.4937 37.8315 86.2075 37.312 85.688C36.7925 85.1685 36.5063 84.478 36.5063 83.7437C36.5063 83.0088 36.7925 82.3184 37.312 81.7988C37.8311 81.2793 38.522 80.9937 39.2563 80.9937C39.9907 80.9937 40.6812 81.2798 41.2007 81.7988C41.7202 82.3184 42.0063 83.0088 42.0063 83.7437C42.0063 84.478 41.7202 85.1685 41.2007 85.688V85.688Z" fill="#2A2A2A"/>
<path d="M85.1129 41.167C86.4717 39.1284 86.2535 36.3413 84.4561 34.5439C83.4644 33.5527 82.1461 33.0063 80.7437 33.0063C79.3414 33.0063 78.023 33.5527 77.0313 34.5439C76.0396 35.5356 75.4937 36.854 75.4937 38.2563C75.4937 39.6587 76.0396 40.9771 77.0313 41.9688C78.023 42.9605 79.3414 43.5063 80.7437 43.5063C81.6397 43.5063 82.501 43.2827 83.2652 42.8628C87.2906 48.0234 89.5001 54.4331 89.5001 61C89.5001 77.2666 76.2667 90.5 60.0001 90.5C58.0421 90.5 56.084 90.3071 54.1812 89.9263C53.5045 89.791 52.8458 90.23 52.71 90.9067C52.5748 91.584 53.0137 92.2422 53.6905 92.3779C55.7545 92.7905 57.8775 93 60.0001 93C68.5474 93 76.5836 89.6714 82.6275 83.6274C88.6714 77.5835 92.0001 69.5474 92.0001 61C92.0001 53.8096 89.5582 46.7925 85.1129 41.167V41.167ZM78.7994 40.2012C78.2798 39.6816 77.9937 38.9912 77.9937 38.2563C77.9937 37.522 78.2798 36.8315 78.7994 36.312C79.3184 35.7925 80.0093 35.5063 80.7437 35.5063C81.4781 35.5063 82.169 35.7925 82.6885 36.312C83.7603 37.3843 83.7603 39.1289 82.6885 40.2012C82.169 40.7202 81.4781 41.0063 80.7437 41.0063C80.0088 41.0063 79.3184 40.7202 78.7994 40.2012Z" fill="#2A2A2A"/>
<path d="M54.8418 82.5C54.8418 83.1904 55.4019 83.75 56.0918 83.75H63.9077C64.5981 83.75 65.1577 83.1904 65.1577 82.5V80.0767C66.8013 79.6343 68.3726 78.9829 69.8491 78.1323L71.5601 79.8433C71.7944 80.0776 72.1123 80.2095 72.4443 80.2095C72.7754 80.2095 73.0938 80.0776 73.3281 79.8428L78.8525 74.3145C79.3403 73.8262 79.3403 73.0347 78.8525 72.5469L77.1436 70.8379C77.9941 69.3613 78.6455 67.79 79.0879 66.1465H81.502C82.1924 66.1465 82.752 65.5869 82.752 64.8965V57.0806C82.752 56.3901 82.1924 55.8306 81.502 55.8306H79.0874C78.645 54.1875 77.9941 52.6162 77.1436 51.1396L78.8433 49.4399C79.0776 49.2056 79.2095 48.8872 79.2095 48.5557C79.209 48.2241 79.0771 47.9058 78.8428 47.6714L73.314 42.147C72.8262 41.6592 72.0347 41.6592 71.5464 42.1475L69.8491 43.8452C68.3726 42.9946 66.8013 42.3433 65.1577 41.9009V39.5C65.1577 38.8096 64.5981 38.25 63.9077 38.25H56.0918C55.4019 38.25 54.8418 38.8096 54.8418 39.5V41.9014C53.1987 42.3433 51.6274 42.9946 50.1509 43.8452L48.4531 42.1475C47.9653 41.6597 47.1738 41.6592 46.6855 42.147L41.1572 47.6719C40.9224 47.9062 40.7905 48.2241 40.7905 48.5557C40.7905 48.8872 40.9224 49.2056 41.1567 49.4399L42.8564 51.1396C42.0059 52.6162 41.3545 54.187 40.9121 55.8306H38.5024C37.812 55.8306 37.2524 56.3901 37.2524 57.0801L37.248 64.896C37.2476 65.2275 37.3794 65.5459 37.6138 65.7803C37.8481 66.0146 38.166 66.1465 38.498 66.1465H40.9121C41.3545 67.79 42.0059 69.3613 42.8564 70.8379L41.1475 72.5469C40.6597 73.0347 40.6592 73.8262 41.1475 74.3145L46.6719 79.8428C46.9063 80.0771 47.2241 80.2095 47.5557 80.2095H47.5562C47.8877 80.2095 48.2056 80.0776 48.4399 79.8433L50.1504 78.1323C51.6274 78.9829 53.1987 79.6343 54.8418 80.0767V82.5ZM50.6406 75.5034C50.146 75.1836 49.4951 75.2529 49.0781 75.6694L47.5562 77.1914L43.7988 73.4312L45.3193 71.9102C45.7358 71.4937 45.8052 70.8428 45.4854 70.3481C44.3521 68.5942 43.5552 66.6719 43.1177 64.6338C42.9937 64.0581 42.4849 63.6465 41.8955 63.6465H39.7485L39.7515 58.3306H41.8955C42.4849 58.3306 42.9937 57.9194 43.1177 57.3433C43.5552 55.3057 44.3521 53.3833 45.4854 51.6294C45.8052 51.1348 45.7358 50.4839 45.3193 50.0674L43.8086 48.5562L47.5688 44.7988L49.0781 46.3086C49.4951 46.7251 50.1455 46.7939 50.6406 46.4746C52.394 45.3413 54.3164 44.5444 56.3545 44.1069C56.9302 43.9829 57.3418 43.4736 57.3418 42.8848V40.75H62.6577V42.8843C62.6577 43.4736 63.0688 43.9829 63.645 44.1064C65.6826 44.5444 67.6055 45.3408 69.3589 46.4741C69.8535 46.7939 70.5044 46.7251 70.9209 46.3081L72.4307 44.7988L76.1909 48.5562L74.6802 50.0669C74.2632 50.4839 74.1943 51.1348 74.5142 51.6294C75.6475 53.3833 76.4438 55.3057 76.8818 57.3433C77.0054 57.9194 77.5146 58.3306 78.104 58.3306H80.252V63.6465H78.104C77.5146 63.6465 77.0059 64.0581 76.8818 64.6338C76.4443 66.6714 75.6475 68.5942 74.5142 70.3477C74.1943 70.8428 74.2637 71.4937 74.6802 71.9102L76.2007 73.4307L72.4434 77.1909L70.9214 75.6694C70.5044 75.2524 69.8535 75.1836 69.3589 75.5034C67.605 76.6367 65.6826 77.4331 63.645 77.8711C63.0688 77.9951 62.6577 78.5039 62.6577 79.0933V81.25H57.3418V79.0933C57.3418 78.5044 56.9302 77.9951 56.3545 77.8711C54.3169 77.4336 52.3945 76.6367 50.6406 75.5034V75.5034Z" fill="#2A2A2A"/>
<path d="M70.3291 61C70.3291 55.3047 65.6958 50.6714 60.0005 50.6714C54.3052 50.6714 49.6719 55.3047 49.6719 61C49.6719 66.6953 54.3052 71.3286 60.0005 71.3286C65.6958 71.3286 70.3291 66.6953 70.3291 61ZM52.1719 61C52.1719 56.6831 55.6836 53.1714 60.0005 53.1714C64.3174 53.1714 67.8291 56.6836 67.8291 61C67.8291 65.3164 64.3174 68.8286 60.0005 68.8286C55.6836 68.8286 52.1719 65.3169 52.1719 61Z" fill="#2A2A2A"/>
<path d="M71.5098 33.7275C71.8389 33.7275 72.1611 33.5938 72.3936 33.3613C72.626 33.1274 72.7598 32.8052 72.7598 32.4761C72.7598 32.1489 72.6265 31.8262 72.3936 31.5923C72.1611 31.3599 71.8389 31.2261 71.5098 31.2261C71.1797 31.2261 70.8589 31.3599 70.6265 31.5923C70.3936 31.8262 70.2598 32.1475 70.2598 32.4761C70.2598 32.8062 70.3936 33.1274 70.6265 33.3613C70.8589 33.5938 71.1797 33.7275 71.5098 33.7275Z" fill="#2A2A2A"/>
<path d="M48.5449 88.2949C48.2163 88.2949 47.8936 88.4287 47.6611 88.6611C47.4287 88.8936 47.2949 89.2163 47.2949 89.5449C47.2949 89.875 47.4287 90.1963 47.6611 90.4287C47.8936 90.6611 48.2163 90.7949 48.5449 90.7949C48.8735 90.7949 49.1963 90.6611 49.4287 90.4287C49.6611 90.1963 49.7949 89.8735 49.7949 89.5449C49.7949 89.2163 49.6611 88.8936 49.4287 88.6611C49.1963 88.4287 48.8735 88.2949 48.5449 88.2949Z" fill="#2A2A2A"/>
</g>
<defs>
<clipPath id="clip0">
<rect width="64" height="64" fill="white" transform="translate(28 29)"/>
</clipPath>
</defs>
</svg>
