<svg width="102" height="102" viewBox="0 0 102 102" fill="none" xmlns="http://www.w3.org/2000/svg">
<circle cx="51" cy="51" r="51" fill="#FCE3E4"/>
<g clip-path="url(#clip0)">
<path d="M99.3234 78.6876L95.3614 76.0479C104.297 60.3319 104.197 41.0492 95.0994 25.4266C86.0019 9.804 69.2805 0.200288 51.2019 0.215227C50.2631 0.215227 49.5022 0.97613 49.5022 1.91491C49.5022 2.85369 50.2631 3.61459 51.2019 3.61459C68.025 3.60204 83.5917 12.5164 92.0951 27.0325C100.598 41.5484 100.761 59.4862 92.5229 74.1543L78.6717 64.9194C76.0516 63.1871 72.5403 63.7574 70.6029 66.2299L64.596 73.962C63.8225 74.9805 62.4185 75.2759 61.3002 74.6556L60.1563 74.025C56.3641 71.958 51.6457 69.3847 42.139 59.8746C32.6323 50.3645 30.0538 45.6425 27.9868 41.8573L27.3596 40.7134C26.7299 39.5955 27.02 38.1847 28.0394 37.4056L35.7663 31.3937C38.2387 29.4566 38.8098 25.9457 37.0786 23.325L23.3106 2.6798C21.5363 0.0112574 17.9768 -0.789882 15.2301 0.861198L6.59708 6.04709C3.88452 7.6418 1.89442 10.2245 1.04409 13.254C-2.06466 24.581 0.274019 44.1299 29.0712 72.9304C41.6153 85.4746 52.4002 92.9874 61.5193 97.2369C47.4837 100.408 32.7678 97.0136 21.5393 88.015C10.3108 79.0163 3.7923 65.3931 3.82995 51.0039C3.82995 50.0651 3.06904 49.3042 2.13026 49.3042C1.19149 49.3042 0.430583 50.0651 0.430583 51.0039C0.456876 79.0362 23.1698 101.757 51.2021 101.792C56.4537 101.794 61.6733 100.972 66.6698 99.3549C71.1776 101.039 75.9422 101.932 80.7538 101.996C83.4514 102.008 86.1385 101.657 88.7427 100.953C91.7728 100.103 94.3559 98.1131 95.9496 95.3998L101.141 86.7719C102.794 84.0245 101.993 80.4628 99.3234 78.6876ZM98.2185 85.0224L93.0394 93.6555C91.8943 95.6173 90.0339 97.0592 87.8483 97.6787C82.9039 99.0386 76.2067 99.2085 67.601 96.1065C67.4645 96.03 67.3179 95.9728 67.1657 95.9366C57.6471 92.4028 45.8288 84.8712 31.471 70.5187C3.83333 42.8824 1.45203 24.6117 4.32294 14.1533C4.94361 11.9686 6.38534 10.1084 8.34616 8.96222L16.9792 3.7831C18.171 3.06602 19.7159 3.41361 20.4857 4.57169L27.9647 15.8002L34.242 25.2151C34.9937 26.3518 34.7467 27.8754 33.6743 28.7166L25.9455 34.7285C23.5935 36.527 22.9218 39.7812 24.3699 42.3639L24.9836 43.4789C27.156 47.4631 29.8568 52.4195 39.7171 62.2782C49.5773 72.1367 54.5322 74.8377 58.5146 77.0098L59.6312 77.6251C62.2137 79.073 65.468 78.4016 67.2665 76.0495L73.2785 68.3208C74.1198 67.249 75.6428 67.0022 76.78 67.7531L97.4234 81.5211C98.5817 82.2879 98.932 83.8303 98.2185 85.0224Z" fill="#2A2A2A"/>
</g>
<defs>
<clipPath id="clip0">
<rect width="102" height="102" fill="white"/>
</clipPath>
</defs>
</svg>
