<svg width="102" height="102" viewBox="0 0 102 102" fill="none" xmlns="http://www.w3.org/2000/svg">
<circle cx="51" cy="51" r="51" fill="#FCE3E4"/>
<path d="M96.9 11.8999H5.1C2.28345 11.8999 0 14.1832 0 16.9999V84.9998C0 87.8164 2.28325 90.0998 5.1 90.0998H96.9C99.7166 90.0998 102 87.8166 102 84.9998V16.9999C102 14.1834 99.7168 11.8999 96.9 11.8999ZM98.5999 85C98.5999 85.9389 97.8389 86.7 96.9 86.7H5.1C4.16108 86.7 3.40007 85.9389 3.40007 85V16.9999C3.40007 16.061 4.16108 15.3 5.1 15.3H96.9C97.8389 15.3 98.5999 16.061 98.5999 16.9999V85Z" fill="#2A2A2A"/>
<path d="M93.6488 18.7062C93.1996 18.6669 92.7531 18.8078 92.4079 19.0979L53.1887 52.0437C51.9239 53.1069 50.0777 53.1069 48.8129 52.0437L9.59405 19.0977C9.12888 18.7072 8.49058 18.5944 7.91982 18.802C7.34906 19.0096 6.93229 19.5061 6.8267 20.1043C6.72112 20.7026 6.94265 21.3116 7.40783 21.702L46.6268 54.6463C49.1545 56.7745 52.8472 56.7745 55.3751 54.6463L94.5939 21.7022C94.9394 21.4124 95.1553 20.9972 95.1946 20.548C95.2338 20.0987 95.093 19.6523 94.8029 19.307C94.5132 18.9614 94.0981 18.7454 93.6488 18.7062Z" fill="#2A2A2A"/>
<path d="M32.6966 54.4126C32.0947 54.2783 31.4676 54.4804 31.0572 54.9405L7.25713 80.4405C6.82642 80.8816 6.66824 81.5215 6.84395 82.1124C7.01966 82.7035 7.50157 83.1529 8.10321 83.2872C8.70505 83.4215 9.33219 83.2195 9.74258 82.7593L33.5426 57.2593C33.9734 56.8182 34.1315 56.1783 33.9558 55.5874C33.7801 54.9965 33.2984 54.5469 32.6966 54.4126Z" fill="#2A2A2A"/>
<path d="M70.9418 54.9405C70.5316 54.4804 69.9043 54.2783 69.3024 54.4126C68.7006 54.5469 68.2189 54.9965 68.0432 55.5874C67.8675 56.1785 68.0256 56.8182 68.4563 57.2593L92.2564 82.7593C92.9019 83.4203 93.9569 83.445 94.6325 82.8146C95.3081 82.1843 95.3567 81.13 94.7419 80.4403L70.9418 54.9405Z" fill="#2A2A2A"/>
</svg>
