<svg width="102" height="102" viewBox="0 0 102 102" fill="none" xmlns="http://www.w3.org/2000/svg">
<rect width="102" height="102" rx="51" fill="#ED1B24" fill-opacity="0.12"/>
<g clip-path="url(#clip0)">
<path d="M89.5784 66.0347L86.997 52.3456C86.9385 49.0358 85.1958 46.1313 82.5901 44.4527L82.4097 42.5887C82.3 41.4541 81.3575 40.5985 80.2177 40.5985H74.6101C73.4705 40.5985 72.528 41.4539 72.4181 42.5885L72.2677 44.1427H50.89L50.7396 42.5882C50.6295 41.4539 49.6872 40.5985 48.5474 40.5985H42.94C42.7509 40.5985 42.5681 40.6241 42.3929 40.6685V2.58485C42.3929 1.70959 41.6836 1 40.8081 1H30.477C29.6015 1 28.8922 1.70959 28.8922 2.58485V4.90928H26.0978V2.58485C26.0978 1.70959 25.3884 1 24.5129 1H14.1825C13.307 1 12.5976 1.70959 12.5976 2.58485V90.3747L9.3992 97.7871C9.18789 98.277 9.23713 98.8401 9.53022 99.286C9.82352 99.7316 10.3209 100 10.8545 100H44.1363C44.6696 100 45.1673 99.7316 45.4606 99.286C45.7537 98.8403 45.8029 98.277 45.5916 97.7871L42.3929 90.3745V75.0235C44.6362 74.6816 46.8368 73.3461 48.0764 70.6037L50.4085 65.4419C51.3822 66.0359 52.5254 66.3785 53.747 66.3785C56.7459 66.3785 59.2713 64.3148 59.979 61.5331H63.1785C63.8862 64.3148 66.4116 66.3785 69.4105 66.3785C70.6323 66.3785 71.7758 66.0357 72.7497 65.4415L75.0817 70.6037C76.5411 73.8336 79.3338 75.1173 81.9598 75.1173C82.7917 75.1173 83.6067 74.9884 84.3573 74.7519C87.4778 73.7689 90.4427 70.6214 89.5784 66.0347ZM75.7191 58.7059C75.248 56.3111 73.4439 54.3898 71.1137 53.7489C71.0351 53.3453 70.995 52.9326 70.995 52.5168C70.995 48.9775 73.8743 46.0984 77.4134 46.0984C80.9524 46.0984 83.8318 48.9775 83.8318 52.5168C83.8318 56.056 80.9524 58.9354 77.4134 58.9354C76.8346 58.9354 76.267 58.8562 75.7191 58.7059ZM74.6099 42.7119H80.2175C80.2638 42.7119 80.3016 42.7463 80.3062 42.7924L80.3648 43.3955C79.4344 43.0937 78.4431 42.9287 77.4134 42.9287C76.3841 42.9287 75.393 43.0935 74.4628 43.3952L74.5211 42.7926C74.5258 42.7465 74.564 42.7119 74.6099 42.7119ZM47.4385 58.7059C46.8901 58.8562 46.3225 58.9354 45.7437 58.9354C42.2044 58.9354 39.3251 56.056 39.3251 52.5168C39.3251 48.9775 42.2044 46.0984 45.7437 46.0984C49.2828 46.0984 52.1621 48.9775 52.1621 52.5168C52.1621 52.9328 52.122 53.3455 52.0432 53.7491C49.7134 54.3903 47.9093 56.3111 47.4385 58.7059ZM39.223 89.1174H32.0616V37.1345H39.223V45.4959C37.3768 47.2118 36.2074 49.644 36.1596 52.3458L33.5795 66.0347C32.7148 70.6208 35.6789 73.7683 38.7987 74.7519C38.9378 74.7959 39.0798 74.8346 39.223 74.8709V89.1174ZM26.0978 89.1174V37.1345H28.8922V89.1174H26.0978ZM15.7673 37.1345H22.9281V89.1174H15.7673V37.1345ZM42.9398 42.7119H48.5472C48.5935 42.7119 48.6315 42.7465 48.6362 42.7924L48.6945 43.3955C47.7643 43.0937 46.773 42.9289 45.7435 42.9289C44.714 42.9289 43.7227 43.0939 42.7925 43.3955L42.8511 42.7922C42.8557 42.7463 42.8937 42.7119 42.9398 42.7119ZM39.223 4.16969V35.0213H32.0616V4.16969H39.223ZM28.8922 8.07898V35.0213H26.0978V8.07898H28.8922ZM22.9281 4.16969V35.0213H15.7673V4.16969H22.9281ZM13.2643 96.8303L15.2249 92.2871H39.7657L41.7262 96.8303H13.2643ZM45.188 69.2988C43.9776 71.9761 41.5035 72.2813 39.752 71.7289C38.0014 71.1769 36.1501 69.5082 36.6943 66.6219L38.2318 58.465C39.9897 60.6802 42.7025 62.1051 45.7437 62.1051C46.3808 62.1051 47.0103 62.0413 47.6267 61.9183C47.7417 62.2746 47.8869 62.6169 48.0593 62.9431L45.188 69.2988ZM53.747 64.2658C51.3665 64.2658 49.4299 62.3291 49.4299 59.9486C49.4299 57.5682 51.3665 55.6315 53.747 55.6315C56.1274 55.6315 58.0641 57.5682 58.0641 59.9486C58.0641 62.3291 56.1274 64.2658 53.747 64.2658ZM63.1785 58.3636H59.979C59.3941 56.0645 57.5667 54.2574 55.2572 53.6991C55.3056 53.3079 55.3318 52.9132 55.3318 52.5168C55.3318 50.5991 54.7638 48.8127 53.7903 47.3126H69.367C68.3935 48.8127 67.8255 50.5991 67.8255 52.5168C67.8255 52.9132 67.8517 53.3079 67.9001 53.6991C65.5904 54.2576 63.7634 56.0647 63.1785 58.3636ZM65.0934 59.9484C65.0934 57.568 67.0301 55.6313 69.4105 55.6313C71.791 55.6313 73.7277 57.568 73.7277 59.9484C73.7277 62.3289 71.791 64.2655 69.4105 64.2655C67.0301 64.2655 65.0934 62.3291 65.0934 59.9484ZM83.4045 71.7291C81.6534 72.2811 79.1795 71.9755 77.9704 69.299L75.0986 62.9425C75.2709 62.6167 75.416 62.2743 75.5308 61.9185C76.147 62.0415 76.7763 62.1051 77.4134 62.1051C80.4546 62.1051 83.1676 60.68 84.9255 58.4646L86.4639 66.6219C87.0076 69.5086 85.1557 71.1774 83.4045 71.7291Z" fill="#2B2B2B"/>
<path d="M53.747 56.7185C51.9658 56.7185 50.5171 58.1675 50.5171 59.9484C50.5171 61.7294 51.9658 63.1783 53.747 63.1783C55.5281 63.1783 56.9769 61.7294 56.9769 59.9484C56.9769 58.1675 55.5281 56.7185 53.747 56.7185ZM53.747 61.0654C53.1312 61.0654 52.6302 60.5644 52.6302 59.9486C52.6302 59.3329 53.1312 58.8318 53.747 58.8318C54.3627 58.8318 54.8638 59.3329 54.8638 59.9486C54.8638 60.5644 54.3627 61.0654 53.747 61.0654Z" fill="#2B2B2B"/>
<path d="M69.4105 56.7185C67.6293 56.7185 66.1806 58.1675 66.1806 59.9484C66.1806 61.7294 67.6293 63.1783 69.4105 63.1783C71.1917 63.1783 72.6404 61.7294 72.6404 59.9484C72.6404 58.1675 71.1917 56.7185 69.4105 56.7185ZM69.4105 61.0654C68.7947 61.0654 68.2937 60.5644 68.2937 59.9486C68.2937 59.3329 68.7947 58.8318 69.4105 58.8318C70.0263 58.8318 70.5273 59.3329 70.5273 59.9486C70.5273 60.5644 70.0263 61.0654 69.4105 61.0654Z" fill="#2B2B2B"/>
<path d="M58.9174 51.5745H57.6598C57.0762 51.5745 56.6033 52.0476 56.6033 52.631C56.6033 53.2145 57.0762 53.6876 57.6598 53.6876H58.9174C59.501 53.6876 59.9739 53.2145 59.9739 52.631C59.9739 52.0476 59.5008 51.5745 58.9174 51.5745Z" fill="#2B2B2B"/>
<path d="M65.4976 51.5745H64.2401C63.6565 51.5745 63.1836 52.0476 63.1836 52.631C63.1836 53.2145 63.6565 53.6876 64.2401 53.6876H65.4976C66.0813 53.6876 66.5542 53.2145 66.5542 52.631C66.5542 52.0476 66.0813 51.5745 65.4976 51.5745Z" fill="#2B2B2B"/>
<path d="M77.414 51.3535C77.8303 51.3535 78.2382 51.1844 78.534 50.8907C78.8298 50.5949 78.9989 50.187 78.9989 49.7708C78.9989 49.3524 78.8298 48.9445 78.534 48.6487C78.2384 48.355 77.8303 48.1859 77.414 48.1859C76.9959 48.1859 76.5878 48.355 76.292 48.6487C75.998 48.9445 75.8292 49.3524 75.8292 49.7708C75.8292 50.187 75.9982 50.5949 76.292 50.8907C76.5878 51.1844 76.9956 51.3535 77.414 51.3535Z" fill="#2B2B2B"/>
<path d="M78.534 56.3849C78.8298 56.0891 78.9989 55.6812 78.9989 55.2649C78.9989 54.8465 78.8298 54.4387 78.534 54.1429C78.2384 53.8491 77.8303 53.678 77.414 53.678C76.9959 53.678 76.5878 53.8491 76.292 54.1429C75.998 54.4387 75.8292 54.8465 75.8292 55.2649C75.8292 55.6812 75.9982 56.0891 76.292 56.3849C76.5876 56.6786 76.9956 56.8498 77.414 56.8498C77.8303 56.8498 78.2382 56.6786 78.534 56.3849Z" fill="#2B2B2B"/>
<path d="M75.7869 51.3958C75.4913 51.102 75.0833 50.933 74.667 50.933C74.2488 50.933 73.8407 51.102 73.5449 51.3958C73.251 51.6916 73.0821 52.0994 73.0821 52.5178C73.0821 52.9341 73.2512 53.342 73.5449 53.6378C73.8405 53.9336 74.2486 54.1027 74.667 54.1027C75.0833 54.1027 75.4911 53.9336 75.7869 53.6378C76.0828 53.342 76.2518 52.9341 76.2518 52.5178C76.2518 52.0994 76.0828 51.6916 75.7869 51.3958Z" fill="#2B2B2B"/>
<path d="M79.039 53.6378C79.3347 53.9316 79.7427 54.1006 80.1611 54.1006C80.5774 54.1006 80.9852 53.9316 81.2811 53.6378C81.5769 53.342 81.746 52.9342 81.746 52.5179C81.746 52.0995 81.5769 51.6916 81.2811 51.3958C80.9854 51.1021 80.5774 50.9309 80.1611 50.9309C79.7429 50.9309 79.3349 51.1021 79.039 51.3958C78.7451 51.6916 78.5763 52.0995 78.5763 52.5179C78.5763 52.9342 78.7453 53.342 79.039 53.6378Z" fill="#2B2B2B"/>
<path d="M45.7445 51.3535C46.161 51.3535 46.5687 51.1845 46.8647 50.8907C47.1603 50.5949 47.3294 50.1871 47.3294 49.7708C47.3294 49.3524 47.1603 48.9446 46.8647 48.6487C46.5689 48.355 46.161 48.1838 45.7445 48.1838C45.3263 48.1838 44.9183 48.355 44.6225 48.6487C44.3287 48.9446 44.1597 49.3524 44.1597 49.7708C44.1597 50.1871 44.3289 50.5949 44.6225 50.8907C44.9183 51.1845 45.3261 51.3535 45.7445 51.3535Z" fill="#2B2B2B"/>
<path d="M45.7445 53.6801C45.3263 53.6801 44.9183 53.8491 44.6225 54.1428C44.3287 54.4387 44.1597 54.8465 44.1597 55.2628C44.1597 55.6812 44.3289 56.089 44.6225 56.3849C44.9181 56.6807 45.3261 56.8498 45.7445 56.8498C46.161 56.8498 46.5687 56.6807 46.8647 56.3849C47.1603 56.089 47.3294 55.6812 47.3294 55.2628C47.3294 54.8465 47.1603 54.4387 46.8647 54.1428C46.5687 53.8491 46.1608 53.6801 45.7445 53.6801Z" fill="#2B2B2B"/>
<path d="M44.1176 51.3958C43.8218 51.102 43.414 50.933 42.9954 50.933C42.5791 50.933 42.1691 51.102 41.8754 51.3958C41.5817 51.6916 41.4126 52.0994 41.4126 52.5178C41.4126 52.9341 41.5819 53.342 41.8754 53.6378C42.171 53.9336 42.5791 54.1027 42.9954 54.1027C43.4138 54.1027 43.8216 53.9336 44.1176 53.6378C44.4114 53.342 44.5802 52.9341 44.5802 52.5178C44.5802 52.0994 44.4112 51.6916 44.1176 51.3958Z" fill="#2B2B2B"/>
<path d="M48.4916 50.9309C48.0734 50.9309 47.6654 51.1021 47.3695 51.3958C47.0758 51.6916 46.9068 52.0995 46.9068 52.5158C46.9068 52.9342 47.076 53.342 47.3695 53.6378C47.6652 53.9337 48.0732 54.1027 48.4916 54.1027C48.9081 54.1027 49.3157 53.9337 49.6118 53.6378C49.9055 53.342 50.0764 52.9342 50.0764 52.5158C50.0764 52.0995 49.9053 51.6916 49.6118 51.3958C49.3157 51.1021 48.9079 50.9309 48.4916 50.9309Z" fill="#2B2B2B"/>
</g>
<defs>
<clipPath id="clip0">
<rect width="99" height="99" fill="white" transform="translate(0 1)"/>
</clipPath>
</defs>
</svg>
