<svg width="102" height="102" viewBox="0 0 102 102" fill="none" xmlns="http://www.w3.org/2000/svg">
<rect width="102" height="102" rx="51" fill="#ED1B24" fill-opacity="0.12"/>
<g clip-path="url(#clip0)">
<path d="M75.1172 1H23.8828C20.4267 1 17.6152 3.81164 17.6152 7.26776V93.7324C17.6152 97.1884 20.4269 100 23.883 100H75.1172C78.5734 100 81.385 97.1886 81.385 93.7324V7.26776C81.3848 3.81164 78.5734 1 75.1172 1ZM20.756 16.7534H78.2442V82.2256H20.756V16.7534ZM23.8828 4.14079H75.1172C76.8413 4.14079 78.2442 5.54347 78.2442 7.26776V14.6595H20.756V7.26776C20.756 5.54347 22.1587 4.14079 23.8828 4.14079ZM75.1172 96.8592H23.8828C22.1587 96.8592 20.7558 95.4565 20.7558 93.7322V84.3193H78.244V93.7322C78.244 95.4565 76.8413 96.8592 75.1172 96.8592Z" fill="#2B2B2B"/>
<path d="M49.5001 85.7075C46.664 85.7075 44.3568 88.015 44.3568 90.8511C44.3568 93.6872 46.6642 95.9944 49.5001 95.9944C52.336 95.9944 54.6435 93.687 54.6435 90.8511C54.6435 88.0152 52.3362 85.7075 49.5001 85.7075ZM49.5001 93.9006C47.8185 93.9006 46.4506 92.5325 46.4506 90.8511C46.4506 89.1695 47.8185 87.8014 49.5001 87.8014C51.1817 87.8014 52.5496 89.1695 52.5496 90.8511C52.5496 92.5325 51.1817 93.9006 49.5001 93.9006Z" fill="#2B2B2B"/>
<path d="M42.381 10.9762H56.6192C57.1976 10.9762 57.6662 10.5074 57.6662 9.92925C57.6662 9.35114 57.1976 8.88232 56.6192 8.88232H42.381C41.8027 8.88232 41.3341 9.35114 41.3341 9.92925C41.3341 10.5074 41.8027 10.9762 42.381 10.9762Z" fill="#2B2B2B"/>
<path d="M38.6127 10.9762C38.887 10.9762 39.1571 10.8652 39.3518 10.6705C39.5465 10.4737 39.6596 10.2056 39.6596 9.92925C39.6596 9.65286 39.5465 9.38485 39.3518 9.18803C39.1569 8.9933 38.8868 8.88232 38.6127 8.88232C38.3363 8.88232 38.0681 8.9933 37.8714 9.18803C37.6767 9.38276 37.5657 9.65286 37.5657 9.92925C37.5657 10.2056 37.6767 10.4737 37.8714 10.6705C38.0662 10.8652 38.3363 10.9762 38.6127 10.9762Z" fill="#2B2B2B"/>
</g>
<defs>
<clipPath id="clip0">
<rect width="99" height="99" fill="white" transform="translate(0 1)"/>
</clipPath>
</defs>
</svg>
