<svg width="102" height="102" viewBox="0 0 102 102" fill="none" xmlns="http://www.w3.org/2000/svg">
<rect width="102" height="102" rx="51" fill="#ED1B24" fill-opacity="0.12"/>
<g clip-path="url(#clip0)">
<path d="M94.0449 9.2876H81.0754C78.3433 9.2876 76.1206 11.5102 76.1206 14.2424V57.9251C76.1206 60.5978 78.2951 62.7721 80.9676 62.7721H94.1527C96.8255 62.7721 98.9997 60.5978 98.9997 57.9251V14.2424C99 11.5102 96.7773 9.2876 94.0449 9.2876ZM95.6869 57.9251C95.6869 58.771 94.9987 59.459 94.153 59.459H80.9679C80.1219 59.459 79.4339 58.7708 79.4339 57.9251V14.2424C79.4339 13.337 80.1703 12.6007 81.0756 12.6007H94.0452C94.9505 12.6007 95.6871 13.337 95.6871 14.2424V57.9251H95.6869Z" fill="#2B2B2B"/>
<path d="M68.1691 51.4682V15.3616C68.1691 14.7517 67.6746 14.2572 67.0648 14.2572H6.07396C5.46413 14.2572 4.9696 14.7517 4.9696 15.3616V51.4682C4.9696 52.078 5.46413 52.5725 6.07396 52.5725H67.0648C67.6746 52.5725 68.1691 52.0782 68.1691 51.4682ZM65.9604 50.3638H7.17831V16.4659H65.9604V50.3638Z" fill="#2B2B2B"/>
<path d="M25.0326 59.459H20.5072C19.5923 59.459 18.8507 60.2007 18.8507 61.1156C18.8507 62.0304 19.5923 62.7721 20.5072 62.7721H52.6315C53.5464 62.7721 54.288 62.0304 54.288 61.1156C54.288 60.2007 53.5464 59.459 52.6315 59.459H48.1061L47.3145 57.5421H68.2915C70.9642 57.5421 73.1385 55.3676 73.1385 52.6951V14.1346C73.1385 11.4618 70.964 9.2876 68.2915 9.2876H4.84701C2.17447 9.2876 0 11.4621 0 14.1346V52.6949C0 55.3676 2.17447 57.5419 4.84701 57.5419H25.8242L25.0326 59.459ZM44.5218 59.459H28.6171L29.4087 57.5421H43.73L44.5218 59.459ZM3.31306 52.6951V14.1346C3.31306 13.2887 4.00129 12.6007 4.84701 12.6007H68.2915C69.1374 12.6007 69.8254 13.2889 69.8254 14.1346V52.6949C69.8254 53.5408 69.1372 54.2288 68.2915 54.2288H4.84701C4.00129 54.229 3.31306 53.5408 3.31306 52.6951Z" fill="#2B2B2B"/>
<path d="M93.6059 13.7845H81.515C80.9052 13.7845 80.4106 14.2791 80.4106 14.8889V41.0548C80.4106 41.6646 80.9052 42.1591 81.515 42.1591H93.6059C94.2157 42.1591 94.7103 41.6646 94.7103 41.0548V14.8889C94.7103 14.2789 94.2157 13.7845 93.6059 13.7845ZM92.5015 15.9933V24.4895H82.6194V15.9933H92.5015ZM82.6194 29.6428V26.698H92.5015V29.6428H82.6194ZM92.5015 31.8516V34.7964H82.6194V31.8516H92.5015ZM82.6194 39.9502V37.0053H92.5015V39.9502H82.6194Z" fill="#2B2B2B"/>
<path d="M84.0271 44.073C83.7356 44.073 83.4507 44.1901 83.2453 44.3977C83.0399 44.6009 82.9228 44.8858 82.9228 45.1774C82.9228 45.4689 83.0399 45.7538 83.2453 45.9592C83.4507 46.1646 83.7356 46.2817 84.0271 46.2817C84.3165 46.2817 84.6014 46.1646 84.8068 45.9592C85.0122 45.7516 85.1315 45.4689 85.1315 45.1774C85.1315 44.8858 85.0122 44.6031 84.8068 44.3977C84.6014 44.1901 84.3165 44.073 84.0271 44.073Z" fill="#2B2B2B"/>
<path d="M87.5611 44.073C87.2695 44.073 86.9846 44.1923 86.7792 44.3977C86.5738 44.6031 86.4567 44.8858 86.4567 45.1774C86.4567 45.4689 86.5738 45.7516 86.7792 45.9592C86.9846 46.1646 87.2695 46.2817 87.5611 46.2817C87.8504 46.2817 88.1353 46.1646 88.3408 45.9592C88.5462 45.7538 88.6654 45.4689 88.6654 45.1774C88.6654 44.8858 88.5462 44.6009 88.3408 44.3977C88.1353 44.1923 87.8504 44.073 87.5611 44.073Z" fill="#2B2B2B"/>
<path d="M91.095 44.073C90.8035 44.073 90.5185 44.1923 90.3131 44.3977C90.1077 44.6009 89.9907 44.8858 89.9907 45.1774C89.9907 45.4689 90.1077 45.7538 90.3131 45.9592C90.5185 46.1646 90.8035 46.2817 91.095 46.2817C91.3844 46.2817 91.6693 46.1646 91.8747 45.9592C92.0801 45.7538 92.1994 45.4689 92.1994 45.1774C92.1994 44.8858 92.0801 44.6009 91.8747 44.3977C91.6693 44.1923 91.3844 44.073 91.095 44.073Z" fill="#2B2B2B"/>
<path d="M62.5586 65.0484H10.5802C9.66533 65.0484 8.92365 65.7901 8.92365 66.7049V88.0558C8.92365 88.9707 9.66533 89.7124 10.5802 89.7124H62.5583C63.4732 89.7124 64.2149 88.9707 64.2149 88.0558V66.7049C64.2151 65.7901 63.4734 65.0484 62.5586 65.0484ZM60.902 86.3993H12.2367V68.3615H60.9018V86.3993H60.902Z" fill="#2B2B2B"/>
<path d="M72.8476 67.8462C69.0926 67.8462 66.0375 70.9013 66.0375 74.6563V79.3681C66.0375 83.1232 69.0926 86.1782 72.8476 86.1782C76.6026 86.1782 79.6577 83.1232 79.6577 79.3681V74.6563C79.6577 70.9013 76.6028 67.8462 72.8476 67.8462ZM76.1631 73.5519H73.9519V71.3408C74.9925 71.6885 75.8156 72.5114 76.1631 73.5519ZM71.7432 71.3408V73.5519H69.5319C69.8797 72.5114 70.7027 71.6885 71.7432 71.3408ZM72.8476 82.8654C70.9194 82.8654 69.3505 81.2966 69.3505 79.3684V75.7609H76.3448V79.3684C76.3446 81.2966 74.776 82.8654 72.8476 82.8654Z" fill="#2B2B2B"/>
<path d="M14.9976 84.5954H58.1409C58.7507 84.5954 59.2453 84.1009 59.2453 83.4911V71.2696C59.2453 70.6598 58.7507 70.1653 58.1409 70.1653H14.9976C14.3877 70.1653 13.8932 70.6598 13.8932 71.2696V83.4911C13.8932 84.1011 14.3877 84.5954 14.9976 84.5954ZM16.1019 80.5217H19.2862V82.3867H16.1019V80.5217ZM26.093 76.4477V78.313H22.9087V76.4477H26.093ZM53.0576 76.4477V78.313H49.8733V76.4477H53.0576ZM47.6648 76.4477V78.313H44.4805V76.4477H47.6648ZM42.2718 76.4477V78.313H39.0875V76.4477H42.2718ZM36.8788 76.4477V78.313H33.6945V76.4477H36.8788ZM31.4858 76.4477V78.313H28.3015V76.4477H31.4858ZM24.679 80.5217V82.3867H21.4949V80.5217H24.679ZM26.8877 80.5217H30.072V82.3867H26.8877V80.5217ZM32.2807 80.5217H35.465V82.3867H32.2807V80.5217ZM37.6737 80.5217H40.858V82.3867H37.6737V80.5217ZM43.0667 80.5217H46.251V82.3867H43.0667V80.5217ZM48.4595 80.5217H51.6438V82.3867H48.4595V80.5217ZM55.2663 76.4477H57.0368V78.313H55.2663V76.4477ZM48.4595 74.239V72.374H51.6438V74.239H48.4595ZM46.2508 74.239H43.0665V72.374H46.2508V74.239ZM40.858 74.239H37.6737V72.374H40.858V74.239ZM35.465 74.239H32.2807V72.374H35.465V74.239ZM30.072 74.239H26.8877V72.374H30.072V74.239ZM24.679 74.239H21.4949V72.374H24.6792V74.239H24.679ZM20.6998 76.4477V78.313H16.1017V76.4477H20.6998ZM53.8523 82.3867V80.5217H57.0366V82.3867H53.8523ZM57.0366 74.239H53.8523V72.374H57.0366V74.239ZM19.286 72.374V74.239H16.1017V72.374H19.286Z" fill="#2B2B2B"/>
</g>
<defs>
<clipPath id="clip0">
<rect width="99" height="99" fill="white"/>
</clipPath>
</defs>
</svg>
