<svg width="102" height="102" viewBox="0 0 102 102" fill="none" xmlns="http://www.w3.org/2000/svg">
<rect width="102" height="102" rx="51" fill="#ED1B24" fill-opacity="0.12"/>
<g clip-path="url(#clip0)">
<path d="M98.3352 12.5415H2.6648C1.74539 12.5415 1 13.2869 1 14.2063V80.3543C1 81.2737 1.74539 82.0191 2.6648 82.0191H6.99327V83.4024C6.99327 85.0874 8.36418 86.4585 10.0494 86.4585H21.2513C22.9363 86.4585 24.3074 85.0876 24.3074 83.4024V82.0191H76.6931V83.4024C76.6931 85.0874 78.064 86.4585 79.7492 86.4585H90.951C92.6363 86.4585 94.0072 85.0876 94.0072 83.4024V82.0191H98.3357C99.2553 82.0191 100 81.2737 100 80.3543V14.2063C100 13.2869 99.2548 12.5415 98.3352 12.5415ZM96.6704 67.9238H75.9159V15.8711H96.6704V67.9238ZM4.3296 15.8711H73.6962V78.6895H4.3296V15.8711ZM20.9776 83.1289H10.3229V82.0191H20.9776V83.1289ZM90.6771 83.1289H80.0224V82.0191H90.6771V83.1289ZM75.9159 78.6895V70.1435H96.6704V78.6895H75.9159Z" fill="#2B2B2B"/>
<path d="M66.584 77.0247C69.2816 77.0247 71.4765 74.8298 71.4765 72.1322V22.4284C71.4765 19.7308 69.2818 17.5359 66.584 17.5359H10.8869C8.18927 17.5359 5.9944 19.7308 5.9944 22.4284V72.1322C5.9944 74.83 8.18927 77.0247 10.8869 77.0247H66.584ZM8.21413 72.1322V22.4284C8.21413 20.9547 9.41301 19.7556 10.8869 19.7556H66.584C68.0579 19.7556 69.2567 20.9545 69.2567 22.4284V72.1322C69.2567 73.6061 68.0579 74.8049 66.584 74.8049H10.8869C9.41301 74.8049 8.21413 73.6061 8.21413 72.1322Z" fill="#2B2B2B"/>
<path d="M65.9271 72.5852C66.5402 72.5852 67.037 72.0882 67.037 71.4753V23.0852C67.037 22.4723 66.5402 21.9753 65.9271 21.9753H11.5437C10.9309 21.9753 10.4339 22.4723 10.4339 23.0852V71.4753C10.4339 72.0882 10.9309 72.5852 11.5437 72.5852H65.9271ZM12.6536 24.1951H64.8173V70.3655H12.6536V24.1951Z" fill="#2B2B2B"/>
<path d="M86.6816 32.852C90.2924 32.852 93.2298 29.9147 93.2298 26.3038C93.2298 22.693 90.2924 19.7556 86.6816 19.7556C83.0708 19.7556 80.1334 22.693 80.1334 26.3038C80.1334 29.9147 83.071 32.852 86.6816 32.852ZM86.6816 21.9753C89.0683 21.9753 91.0101 23.9172 91.0101 26.3038C91.0101 28.6905 89.0683 30.6323 86.6816 30.6323C84.295 30.6323 82.3531 28.6905 82.3531 26.3038C82.3531 23.9172 84.2952 21.9753 86.6816 21.9753Z" fill="#2B2B2B"/>
<path d="M86.6816 47.6972C90.2924 47.6972 93.2298 44.7598 93.2298 41.149C93.2298 37.5381 90.2924 34.6008 86.6816 34.6008C83.0708 34.6008 80.1334 37.5381 80.1334 41.149C80.1334 44.7598 83.071 47.6972 86.6816 47.6972ZM86.6816 36.8205C89.0683 36.8205 91.0101 38.7623 91.0101 41.149C91.0101 43.5356 89.0683 45.4775 86.6816 45.4775C84.295 45.4775 82.3531 43.5356 82.3531 41.149C82.3531 38.7623 84.2952 36.8205 86.6816 36.8205Z" fill="#2B2B2B"/>
<path d="M81.2433 59.4888H92.12C92.733 59.4888 93.2298 58.9918 93.2298 58.379C93.2298 57.7661 92.733 57.2691 92.12 57.2691H81.2433C80.6302 57.2691 80.1334 57.7661 80.1334 58.379C80.1334 58.9918 80.6304 59.4888 81.2433 59.4888Z" fill="#2B2B2B"/>
<path d="M92.12 61.4866H81.2433C80.6302 61.4866 80.1334 61.9836 80.1334 62.5964C80.1334 63.2093 80.6302 63.7063 81.2433 63.7063H92.12C92.733 63.7063 93.2298 63.2093 93.2298 62.5964C93.2298 61.9836 92.733 61.4866 92.12 61.4866Z" fill="#2B2B2B"/>
<path d="M59.157 65.926H18.3139C17.701 65.926 17.204 66.423 17.204 67.0359C17.204 67.6488 17.701 68.1458 18.3139 68.1458H59.157C59.77 68.1458 60.2668 67.6488 60.2668 67.0359C60.2668 66.423 59.77 65.926 59.157 65.926Z" fill="#2B2B2B"/>
<path d="M84.9134 41.9327C85.1198 41.7263 85.2397 41.44 85.2397 41.1492C85.2397 40.8562 85.1198 40.5698 84.9134 40.3634C84.7067 40.157 84.4204 40.0393 84.1298 40.0393C83.8368 40.0393 83.5504 40.157 83.344 40.3634C83.1376 40.5698 83.0199 40.8562 83.0199 41.1492C83.0199 41.44 83.1376 41.7263 83.344 41.9327C83.5504 42.1392 83.8368 42.259 84.1298 42.259C84.4204 42.259 84.7067 42.1392 84.9134 41.9327Z" fill="#2B2B2B"/>
<path d="M84.9134 27.0894C85.1198 26.8829 85.2397 26.5966 85.2397 26.3036C85.2397 26.0106 85.1198 25.7265 84.9134 25.52C84.7067 25.3136 84.4204 25.1937 84.1298 25.1937C83.8368 25.1937 83.5504 25.3136 83.344 25.52C83.1376 25.7265 83.0199 26.0128 83.0199 26.3036C83.0199 26.5966 83.1376 26.8829 83.344 27.0894C83.5504 27.2958 83.8368 27.4135 84.1298 27.4135C84.4204 27.4135 84.7067 27.2958 84.9134 27.0894Z" fill="#2B2B2B"/>
</g>
<defs>
<clipPath id="clip0">
<rect width="99" height="99" fill="white" transform="translate(1)"/>
</clipPath>
</defs>
</svg>
