<svg width="102" height="102" viewBox="0 0 102 102" fill="none" xmlns="http://www.w3.org/2000/svg">
<rect width="102" height="102" rx="51" fill="#ED1B24" fill-opacity="0.12"/>
<g clip-path="url(#clip0)">
<path d="M93.2198 19.2185H5.78026C5.19993 19.2185 4.72931 19.6891 4.72931 20.2695V73.5514C4.72931 74.1318 5.19993 74.6024 5.78026 74.6024H93.2198C93.8003 74.6024 94.2707 74.1318 94.2707 73.5514V20.2695C94.2707 19.6889 93.8003 19.2185 93.2198 19.2185ZM92.1688 72.5005H6.83122V21.3204H92.1688V72.5005Z" fill="#2B2B2B"/>
<path d="M94.3874 14.4892H4.61285C2.06933 14.4892 0 16.5585 0 19.1018V74.7188C0 77.2623 2.06933 79.3315 4.61285 79.3315H35.7932L34.1306 83.3579H27.4524C26.5818 83.3579 25.876 84.0637 25.876 84.9343C25.876 85.8049 26.5818 86.5107 27.4524 86.5107H71.5484C72.4192 86.5107 73.1248 85.8049 73.1248 84.9343C73.1248 84.0637 72.4192 83.3579 71.5484 83.3579H64.8702L63.2074 79.3315H94.3878C96.9313 79.3315 99.0004 77.2621 99.0004 74.7188V19.1018C99 16.5585 96.9309 14.4892 94.3874 14.4892ZM61.4586 83.3581H37.5414L39.2042 79.3317H59.796L61.4586 83.3581ZM95.8471 74.719C95.8471 75.5241 95.1924 76.1788 94.3874 76.1788H4.61285C3.80782 76.1788 3.15287 75.5238 3.15287 74.719V19.1018C3.15287 18.2968 3.80782 17.6419 4.61285 17.6419H94.3874C95.1924 17.6419 95.8471 18.2968 95.8471 19.1018V74.719Z" fill="#2B2B2B"/>
</g>
<defs>
<clipPath id="clip0">
<rect width="99" height="99" fill="white" transform="translate(0 1)"/>
</clipPath>
</defs>
</svg>
