<svg width="102" height="102" viewBox="0 0 102 102" fill="none" xmlns="http://www.w3.org/2000/svg">
<rect width="102" height="102" rx="51" fill="#ED1B24" fill-opacity="0.12"/>
<g clip-path="url(#clip0)">
<path d="M30.1019 50.745C38.7264 50.745 45.7427 43.7287 45.7427 35.1042C45.7427 26.4798 38.7264 19.4633 30.1019 19.4633C21.4775 19.4633 14.4612 26.4798 14.4612 35.1042C14.4612 43.7287 21.4775 50.745 30.1019 50.745ZM30.1019 21.6741C37.5072 21.6741 43.5316 27.6988 43.5316 35.104C43.5316 42.5093 37.5072 48.5339 30.1019 48.5339C22.6967 48.5339 16.6723 42.5093 16.6723 35.1042C16.6723 27.6992 22.6967 21.6741 30.1019 21.6741Z" fill="#2B2B2B"/>
<path d="M30.1019 41.9143C33.857 41.9143 36.9119 38.8594 36.9119 35.1043C36.9119 31.3492 33.857 28.2941 30.1019 28.2941C26.3468 28.2941 23.2917 31.3492 23.2917 35.1043C23.2917 38.8594 26.3468 41.9143 30.1019 41.9143ZM30.1019 30.505C32.6378 30.505 34.7008 32.5681 34.7008 35.1041C34.7008 37.64 32.6376 39.703 30.1019 39.703C27.566 39.703 25.5028 37.6398 25.5028 35.1041C25.5028 32.5681 27.566 30.505 30.1019 30.505Z" fill="#2B2B2B"/>
<path d="M93.6246 42.7808H54.2734C51.888 42.7808 49.8615 44.3432 49.161 46.4979H47.8213C49.9424 43.2107 51.1749 39.2988 51.1749 35.1041C51.1749 23.4844 41.7217 14.0312 30.1021 14.0312C27.9728 14.0312 25.9167 14.3499 23.9775 14.94H12.5428C9.19404 14.94 6.46972 17.6643 6.46972 21.0131V22.9171C2.78048 23.685 0 26.9612 0 30.8749V72.7089C0 79.469 5.49993 84.9689 12.26 84.9689H41.4703C44.6493 84.9689 47.2356 82.3825 47.2356 79.2036V76.5399H49.1608C49.8615 78.6946 51.8878 80.257 54.2731 80.257H93.6243C96.5883 80.257 99 77.8456 99 74.8816V48.1563C99 45.1923 96.5886 42.7808 93.6246 42.7808ZM52.2146 54.7273H95.6833V59.1389H52.2146V54.7273ZM54.2734 46.0975H93.6246C94.76 46.0975 95.6835 47.0211 95.6835 48.1563V52.5161H52.2146V48.1563C52.2146 47.0211 53.1382 46.0975 54.2734 46.0975ZM47.858 35.1041C47.858 44.8949 39.8927 52.8602 30.1019 52.8602C20.3111 52.8602 12.3458 44.8949 12.3458 35.1041C12.3458 25.3132 20.3111 17.3479 30.1019 17.3479C39.8927 17.3479 47.858 25.3132 47.858 35.1041ZM9.78639 21.0131C9.78639 19.4931 11.0228 18.2567 12.5428 18.2567H17.4581C15.773 19.5245 14.2842 21.0392 13.0445 22.7459H9.78639V21.0131ZM8.1285 26.063H11.0697C9.76229 28.8044 9.02909 31.8701 9.02909 35.1041C9.02909 42.179 12.5337 48.4503 17.8979 52.274V81.652H14.862V56.6746C14.862 54.1232 12.7862 52.0474 10.235 52.0474H3.31667V39.1398H5.20916C5.81965 39.1398 6.31472 38.6447 6.31472 38.0342C6.31472 37.4237 5.81965 36.9287 5.20916 36.9287H3.31667V34.8283H5.20916C5.81965 34.8283 6.31472 34.3333 6.31472 33.7228C6.31472 33.1123 5.81965 32.6172 5.20916 32.6172H3.31667V30.8749C3.31667 28.2215 5.47516 26.063 8.1285 26.063ZM3.31667 72.7087V54.2585H10.235C11.5672 54.2585 12.6509 55.3424 12.6509 56.6746V81.652H12.26C7.32874 81.652 3.31667 77.6401 3.31667 72.7087ZM41.4703 81.652H20.109V53.6526C23.0845 55.2621 26.4883 56.1769 30.1019 56.1769C35.3834 56.1769 40.2169 54.2236 43.9189 51.0017V79.2034C43.9189 80.5537 42.8207 81.652 41.4703 81.652ZM47.2356 49.8146H48.8979V73.223H47.2356V49.8146ZM93.6246 76.9401H54.2734C53.1382 76.9401 52.2146 76.0165 52.2146 74.8813V61.35H95.6833V74.8813C95.6833 76.0165 94.76 76.9401 93.6246 76.9401Z" fill="#2B2B2B"/>
<path d="M39.8978 55.5338C39.6059 55.5338 39.3229 55.651 39.1173 55.8566C38.9094 56.0623 38.7922 56.3475 38.7922 56.6394C38.7922 56.929 38.9094 57.2143 39.1173 57.4199C39.3229 57.6255 39.6081 57.7449 39.8978 57.7449C40.1897 57.7449 40.4749 57.6255 40.6805 57.4199C40.8862 57.2143 41.0034 56.929 41.0034 56.6394C41.0034 56.3475 40.8862 56.0623 40.6805 55.8566C40.4749 55.651 40.1897 55.5338 39.8978 55.5338Z" fill="#2B2B2B"/>
</g>
<defs>
<clipPath id="clip0">
<rect width="99" height="99" fill="white"/>
</clipPath>
</defs>
</svg>
