<svg width="32" height="32" viewBox="0 0 32 32" fill="none" xmlns="http://www.w3.org/2000/svg">
<rect x="32" width="32" height="32" rx="16" transform="rotate(90 32 0)" fill="#EEF0F2"/>
<g clip-path="url(#clip0)">
<path d="M16.4209 22.2258L20.23 18.4167C20.4624 18.1843 20.4624 17.8074 20.23 17.575C19.9975 17.3426 19.6207 17.3426 19.3883 17.575L16.5952 20.3681L16.5952 10.1953C16.5952 9.86659 16.3287 9.6001 16.0001 9.6001C15.6714 9.6001 15.4049 9.86659 15.4049 10.1953L15.4049 20.3681L12.6119 17.5751C12.3794 17.3427 12.0026 17.3427 11.7701 17.5751C11.654 17.6913 11.5958 17.8436 11.5958 17.996C11.5958 18.1483 11.654 18.3006 11.7701 18.4168L15.5792 22.2258C15.8117 22.4582 16.1885 22.4582 16.4209 22.2258Z" fill="#2A2A2A"/>
</g>
<defs>
<clipPath id="clip0">
<rect width="12.8" height="12.8" fill="white" transform="translate(22.4004 9.6001) rotate(90)"/>
</clipPath>
</defs>
</svg>
