<svg width="32" height="32" viewBox="0 0 32 32" fill="none" xmlns="http://www.w3.org/2000/svg">
<rect width="32" height="32" rx="16" transform="matrix(-4.37114e-08 -1 -1 4.37114e-08 32 32)" fill="#ED1B24"/>
<g clip-path="url(#clip0)">
<path d="M16.4209 9.77422L20.23 13.5833C20.4624 13.8157 20.4624 14.1926 20.23 14.425C19.9975 14.6574 19.6207 14.6574 19.3883 14.425L16.5952 11.6319L16.5952 21.8047C16.5952 22.1334 16.3287 22.3999 16.0001 22.3999C15.6714 22.3999 15.4049 22.1334 15.4049 21.8047L15.4049 11.6319L12.6119 14.4249C12.3794 14.6573 12.0026 14.6573 11.7701 14.4249C11.654 14.3087 11.5958 14.1564 11.5958 14.004C11.5958 13.8517 11.654 13.6994 11.7701 13.5832L15.5792 9.77422C15.8117 9.54177 16.1885 9.54177 16.4209 9.77422Z" fill="white"/>
</g>
<defs>
<clipPath id="clip0">
<rect width="12.8" height="12.8" fill="white" transform="matrix(-4.37122e-08 -1 -1 4.37106e-08 22.4004 22.3999)"/>
</clipPath>
</defs>
</svg>
