<svg width="24" height="24" viewBox="0 0 24 24" fill="none" xmlns="http://www.w3.org/2000/svg">
<path d="M21.3317 1.12651C21.2707 1.1245 21.2096 1.1245 21.1486 1.12651H7.25955C5.60964 1.12651 4.19974 2.32643 4.19974 3.97634V10.7259H1.64991C0.659965 10.7259 0 11.6258 0 12.6157V18.1954C0 19.1853 0.659965 20.0252 1.64991 20.0252H2.99981L3.53977 22.4251C3.59197 22.638 3.75102 22.8083 3.95973 22.8751H4.13974C4.29798 22.8728 4.44893 22.8081 4.55969 22.6951L7.01955 20.0252H10.7393C11.7485 20.0097 12.5673 19.2041 12.5992 18.1954V15.2256H13.0492L17.1589 19.6953C17.2564 19.8295 17.4131 19.9078 17.5789 19.9053H17.7589C17.9632 19.8493 18.1228 19.6896 18.1788 19.4853L19.1387 15.2256H21.1486C22.7985 15.2256 23.9984 13.8157 23.9984 12.1658V3.97629C24.049 2.45292 22.855 1.17704 21.3317 1.12651ZM11.3993 18.1954C11.3694 18.5416 11.0866 18.8115 10.7393 18.8253H6.74957C6.59132 18.8276 6.44037 18.8923 6.32961 19.0053L4.43975 21.0452L4.04976 19.2753C3.97971 19.0034 3.73046 18.8165 3.4498 18.8253H1.64991C1.31993 18.8253 1.19993 18.5254 1.19993 18.1954V12.6157C1.19993 12.2857 1.31993 11.9258 1.64991 11.9258H4.19974V12.1658C4.23166 13.8423 5.58306 15.1937 7.25955 15.2256H11.3993V18.1954ZM22.7985 3.97629V12.1658C22.7985 13.1557 22.1386 14.0257 21.1486 14.0257H18.6588C18.3812 14.0064 18.1345 14.2012 18.0888 14.4757L17.2789 18.0454L13.7391 14.2057C13.6283 14.0926 13.4774 14.028 13.3191 14.0257H7.25955C6.24561 13.9944 5.4309 13.1798 5.39966 12.1658V3.97629C5.39966 2.98634 6.26961 2.32638 7.25955 2.32638H21.1487C22.0087 2.27516 22.7474 2.93076 22.7986 3.79077C22.8022 3.85255 22.8022 3.91451 22.7985 3.97629Z" fill="#ED1B24"/>
<path d="M8.06969 6.82614H15.2692C15.6006 6.82614 15.8692 6.55754 15.8692 6.22618C15.8692 5.89482 15.6006 5.62622 15.2692 5.62622H8.06969C7.73833 5.62622 7.46973 5.89482 7.46973 6.22618C7.46973 6.55754 7.73833 6.82614 8.06969 6.82614Z" fill="#ED1B24"/>
<path d="M20.0689 9.22607H8.06969C7.73833 9.22607 7.46973 9.49468 7.46973 9.82604C7.46973 10.1574 7.73833 10.426 8.06969 10.426H20.0689C20.4003 10.426 20.6689 10.1574 20.6689 9.82604C20.6689 9.49468 20.4003 9.22607 20.0689 9.22607Z" fill="#ED1B24"/>
</svg>
