<svg width="50" height="50" viewBox="0 0 50 50" fill="none" xmlns="http://www.w3.org/2000/svg">
<rect width="50" height="50" rx="25" transform="matrix(-1 0 0 1 50 0)" fill="#ED1B24"/>
<g clip-path="url(#clip0)">
<path d="M15.2724 24.3424L21.224 18.3908C21.5872 18.0276 22.1761 18.0276 22.5392 18.3908C22.9024 18.754 22.9024 19.3427 22.5392 19.7059L18.1751 24.0701H34.0701C34.5836 24.0701 35 24.4865 35 25C35 25.5135 34.5836 25.93 34.0701 25.93H18.1751L22.5391 30.2941C22.9023 30.6573 22.9023 31.2461 22.5391 31.6093C22.3575 31.7907 22.1195 31.8816 21.8815 31.8816C21.6435 31.8816 21.4055 31.7907 21.2239 31.6093L15.2724 25.6576C14.9092 25.2944 14.9092 24.7056 15.2724 24.3424Z" fill="white"/>
</g>
<defs>
<clipPath id="clip0">
<rect width="20" height="20" fill="white" transform="matrix(-1 0 0 1 35 15)"/>
</clipPath>
</defs>
</svg>
