<svg width="80" height="80" viewBox="0 0 80 80" fill="none" xmlns="http://www.w3.org/2000/svg">
<g clip-path="url(#clip0)">
<path d="M33.5299 35.2854C36.561 35.2854 38.6257 37.3793 38.6257 40.2649V47.694C38.6257 47.8865 38.4696 48.0426 38.2771 48.0426H35.5288C35.3363 48.0426 35.1802 47.8865 35.1802 47.694V40.9032C35.1802 39.244 33.7051 38.2524 32.2796 38.2524C30.4351 38.2524 29.4387 39.6182 29.4387 40.9032V47.694C29.4387 47.8865 29.2826 48.0426 29.0901 48.0426H26.3426C26.1501 48.0426 25.994 47.8865 25.994 47.694V35.8445C25.994 35.652 26.1501 35.4959 26.3426 35.4959H29.0907C29.2832 35.4959 29.4393 35.652 29.4393 35.8446L29.4387 37.2937L29.4393 37.2931L29.4387 37.2957C30.4426 35.9551 32.0854 35.2854 33.5299 35.2854Z" fill="#579ADD"/>
<path d="M36.9509 47.6945V40.9037C36.9509 39.2445 35.4758 38.2529 34.0503 38.2529C33.7214 38.2529 33.4208 38.2981 33.1466 38.3767C34.2461 38.6886 35.1803 39.5837 35.1803 40.9037V47.6945C35.1803 47.887 35.3364 48.0431 35.5289 48.0431H37.2997C37.107 48.0431 36.9509 47.887 36.9509 47.6945Z" fill="#4987CE"/>
<path d="M27.7648 47.6944V35.8449C27.7648 35.6524 27.9209 35.4963 28.1134 35.4963H26.3426C26.1501 35.4963 25.994 35.6524 25.994 35.8449V47.6944C25.994 47.8869 26.1501 48.043 26.3426 48.043H28.1134C27.9209 48.043 27.7648 47.8869 27.7648 47.6944Z" fill="#4987CE"/>
<path d="M63.3566 35.4966H66.5272C66.7754 35.4966 66.944 35.7485 66.8496 35.9778L61.9743 47.8233C61.9205 47.9539 61.7932 48.0392 61.6519 48.0392H58.3435C58.2023 48.0392 58.0749 47.9539 58.0212 47.8233L53.1459 35.9778C53.0515 35.7485 53.2201 35.4966 53.4682 35.4966H56.6396C56.7862 35.4966 56.917 35.5881 56.9671 35.7258L59.6707 43.1444C59.7821 43.45 60.2143 43.45 60.3257 43.1444L63.0293 35.7258C63.0793 35.5881 63.2101 35.4966 63.3566 35.4966Z" fill="#579ADD"/>
<path d="M59.7918 47.8233L54.9165 35.9778C54.8221 35.7485 54.9907 35.4966 55.2388 35.4966H53.4681C53.2199 35.4966 53.0513 35.7485 53.1457 35.9778L58.021 47.8233C58.0748 47.9539 58.2021 48.0392 58.3434 48.0392H60.1142C59.9729 48.0392 59.8456 47.9539 59.7918 47.8233Z" fill="#4987CE"/>
<path d="M24.7132 40.5712C24.4935 39.3195 23.9938 38.2028 23.2517 37.3398C22.0944 35.9958 20.3816 35.2847 18.296 35.2847C14.5077 35.2847 11.6512 38.0794 11.6512 41.7706C11.6512 45.5576 14.5144 48.2559 18.6757 48.2559C20.8275 48.2559 23.0239 47.3146 24.2263 46.1546C24.381 46.0054 24.3699 45.7551 24.1994 45.624L22.5339 44.3437C22.4128 44.2506 22.2443 44.2471 22.1199 44.3361C20.7955 45.2825 19.9844 45.5142 18.7266 45.5142C17.8004 45.5142 17.0305 45.2903 16.425 44.8856C16.194 44.7311 16.2299 44.38 16.4868 44.2734L24.5022 40.9483C24.6511 40.8864 24.7411 40.73 24.7132 40.5712ZM20.673 39.929L15.4526 42.0948C15.2268 42.1884 14.9772 42.0261 14.9696 41.7818C14.9363 40.7353 15.2446 39.899 15.7085 39.2761C16.2952 38.4883 17.2297 38.0258 18.3585 38.0258C19.45 38.0258 20.31 38.5739 20.8328 39.4175C20.9474 39.6023 20.8739 39.8458 20.673 39.929Z" fill="#579ADD"/>
<path d="M13.4219 41.7706C13.4219 38.3623 15.858 35.7204 19.2135 35.335C18.9161 35.3028 18.611 35.2847 18.296 35.2847C14.5077 35.2847 11.6512 38.0794 11.6512 41.7706C11.6512 45.5576 14.5144 48.2559 18.6757 48.2559C18.958 48.2559 19.241 48.2389 19.5224 48.2081C15.8679 47.8378 13.4219 45.27 13.4219 41.7706Z" fill="#4987CE"/>
<path d="M11.3229 45.2279V47.6943C11.3229 47.8868 11.1669 48.0429 10.9744 48.0429H0.348593C0.156093 48.0429 0 47.8868 0 47.6943V32.0925C0 31.9 0.156093 31.7439 0.348593 31.7439H3.14359C3.33609 31.7439 3.49218 31.9 3.49218 32.0925V44.5309C3.49218 44.7234 3.64827 44.8795 3.84077 44.8795H10.9744C11.1669 44.8793 11.3229 45.0354 11.3229 45.2279Z" fill="#579ADD"/>
<path d="M1.77078 47.6943V32.0925C1.77078 31.9 1.92687 31.7439 2.11937 31.7439H0.348593C0.156093 31.7439 0 31.9 0 32.0925V47.6943C0 47.8868 0.156093 48.0429 0.348593 48.0429H2.11937C1.92687 48.0428 1.77078 47.8868 1.77078 47.6943Z" fill="#4987CE"/>
<path d="M73.2803 35.2847C69.4866 35.2847 66.5139 38.1331 66.5139 41.7692C66.5139 45.4468 69.4663 48.2537 73.2343 48.2537C77.028 48.2537 80 45.4047 80 41.7692C79.9999 38.0917 77.0483 35.2847 73.2803 35.2847ZM73.2803 45.3015C71.393 45.3015 69.9132 43.7497 69.9132 41.7692C69.9132 39.695 71.3102 38.2368 73.2343 38.2368C75.1224 38.2368 76.6016 39.7887 76.6016 41.7692C76.6014 43.8034 75.205 45.3015 73.2803 45.3015Z" fill="#579ADD"/>
<path d="M74.1773 45.1817C74.4555 45.2574 74.7471 45.3015 75.051 45.3015C76.9757 45.3015 78.3721 43.8032 78.3721 41.7692C78.3721 39.7887 76.8929 38.2368 75.0049 38.2368C74.688 38.2368 74.3873 38.2799 74.1027 38.3553C75.5558 38.7482 76.6013 40.1054 76.6013 41.769C76.6015 43.4704 75.6229 44.7931 74.1773 45.1817Z" fill="#4987CE"/>
<path d="M68.2846 41.7693C68.2846 38.4215 70.8052 35.7434 74.1658 35.3394C73.8764 35.3045 73.5813 35.2847 73.2803 35.2847C69.4866 35.2847 66.5139 38.1331 66.5139 41.7692C66.5139 45.4468 69.4663 48.2537 73.2343 48.2537C73.535 48.2537 73.83 48.2339 74.1194 48.199C70.7847 47.7979 68.2846 45.1531 68.2846 41.7693Z" fill="#4987CE"/>
<path d="M46.7553 35.2847C42.9607 35.2847 39.9889 38.1331 39.9889 41.7692C39.9889 45.4468 42.9404 48.2537 46.7084 48.2537C50.5021 48.2537 53.4748 45.4047 53.4748 41.7692C53.4748 38.0917 50.5224 35.2847 46.7553 35.2847ZM46.7553 45.3015C44.8671 45.3015 43.3881 43.7497 43.3881 41.7692C43.3881 39.695 44.7845 38.2368 46.7085 38.2368C48.5967 38.2368 50.0757 39.7887 50.0757 41.7692C50.0756 43.8034 48.6792 45.3015 46.7553 45.3015Z" fill="#579ADD"/>
<path d="M41.7595 41.7693C41.7595 38.4215 44.2796 35.7434 47.6406 35.3394C47.3512 35.3045 47.0562 35.2847 46.7553 35.2847C42.9609 35.2847 39.9889 38.1331 39.9889 41.7692C39.9889 45.4468 42.9404 48.2537 46.7084 48.2537C47.0092 48.2537 47.3042 48.2339 47.5935 48.199C44.259 47.7979 41.7595 45.1531 41.7595 41.7693Z" fill="#4987CE"/>
<path d="M47.652 45.1817C47.9303 45.2574 48.222 45.3015 48.5261 45.3015C50.4501 45.3015 51.8465 43.8032 51.8465 41.7692C51.8465 39.7887 50.3673 38.2368 48.4794 38.2368C48.1625 38.2368 47.8617 38.2799 47.5773 38.3553C50.8956 39.2529 50.8911 44.3106 47.652 45.1817Z" fill="#4987CE"/>
</g>
<defs>
<clipPath id="clip0">
<rect width="80" height="80" fill="white"/>
</clipPath>
</defs>
</svg>
