<svg width="44" height="44" viewBox="0 0 44 44" fill="none" xmlns="http://www.w3.org/2000/svg">
<circle cx="22" cy="22" r="22" fill="white"/>
<path d="M28.6979 7H15.302C13.6441 7 12.2954 8.34877 12.2954 10.0066V33.9934C12.2954 35.6512 13.6442 36.9999 15.302 36.9999H28.698C30.3558 36.9999 31.7045 35.6512 31.7045 33.9934V10.0066C31.7045 8.34877 30.3558 7 28.6979 7V7ZM15.302 8.75781H28.698C29.3866 8.75781 29.9467 9.31803 29.9467 10.0066V10.5303H14.0532V10.0066C14.0532 9.31803 14.6134 8.75781 15.302 8.75781ZM29.9467 12.2881V28.1816H14.0532V12.2881H29.9467ZM28.6979 35.2422H15.302C14.6134 35.2422 14.0532 34.682 14.0532 33.9934V29.9395H29.9468V33.9934C29.9467 34.682 29.3865 35.2422 28.6979 35.2422Z" fill="#2B2B2B"/>
<path d="M23.7651 31.7119H20.2349C19.7495 31.7119 19.356 32.1054 19.356 32.5908C19.356 33.0762 19.7495 33.4697 20.2349 33.4697H23.7651C24.2505 33.4697 24.644 33.0762 24.644 32.5908C24.644 32.1054 24.2505 31.7119 23.7651 31.7119Z" fill="#2B2B2B"/>
</svg>
