<svg width="80" height="80" viewBox="0 0 80 80" fill="none" xmlns="http://www.w3.org/2000/svg">
<g clip-path="url(#clip0)">
<path d="M7.52014 37.1655L0.0259189 48.769C-0.0429874 48.8755 0.0335751 49.0162 0.16045 49.0162H5.04733C5.10154 49.0162 5.15217 48.9887 5.1817 48.9432L12.4006 37.8277C12.4658 37.7274 12.402 37.5937 12.2831 37.5812L7.67139 37.0932C7.61139 37.0868 7.55279 37.1148 7.52014 37.1655Z" fill="#0964AF"/>
<path d="M8.84543 35.3792C8.71996 35.3792 8.64324 35.2417 8.70902 35.1348C9.15418 34.4131 10.4571 32.3112 10.8289 31.8286C11.2601 31.2375 11.8318 30.9855 12.4325 30.9855H19.4179C19.5064 30.9855 19.5781 31.0572 19.5781 31.1456V34.0533C19.5781 34.2287 19.8201 34.2776 19.8857 34.1148C20.0754 33.6442 20.3487 33.0948 20.6948 32.7373C21.362 32.0448 22.2523 31.0855 24.2851 30.957C24.2893 30.9567 24.2936 30.9565 24.2978 30.9565H39.1106C39.199 30.9565 39.2707 31.0283 39.2707 31.1167V35.2187C39.2707 35.3072 39.199 35.3789 39.1106 35.3789H8.84543V35.3792Z" fill="#0964AF"/>
<path d="M80 35.2079V31.1023C80 31.0139 79.9282 30.9421 79.8398 30.9421H63.9792C63.975 30.9421 63.9707 30.9423 63.9665 30.9426C61.6712 31.0881 59.9431 32.4945 59.2689 34.9884C59.2653 35.002 59.2635 35.0153 59.2635 35.0293V35.2046C59.2635 35.2931 59.3353 35.3648 59.4237 35.3648L79.8396 35.3682C79.9282 35.3681 80 35.2964 80 35.2079Z" fill="#0964AF"/>
<path d="M44.3708 35.3645H40.2126C40.1242 35.3645 40.0525 35.2928 40.0525 35.2043V31.1235C40.0525 31.0351 40.1242 30.9634 40.2126 30.9634H44.3708C44.4592 30.9634 44.5309 31.0351 44.5309 31.1235V35.2043C44.5311 35.2928 44.4594 35.3645 44.3708 35.3645Z" fill="#0964AF"/>
<path d="M59.0709 35.3645H54.9169C54.8284 35.3645 54.7567 35.2928 54.7567 35.2043V31.1235C54.7567 31.0351 54.8284 30.9634 54.9169 30.9634H59.0709C59.1594 30.9634 59.2311 31.0351 59.2311 31.1235V35.2043C59.2311 35.2928 59.1594 35.3645 59.0709 35.3645Z" fill="#0964AF"/>
<path d="M59.0803 38.3956L55.0012 38.1544C54.9092 38.1489 54.8315 38.222 54.8315 38.3144V43.2504C54.8315 43.2504 54.8183 44.7212 53.3814 44.7212H45.8289C45.8229 44.7212 45.8179 44.7211 45.812 44.7204C45.7 44.7084 44.5404 44.5523 44.5404 43.264V37.6004C44.5404 37.5164 44.4754 37.4467 44.3917 37.4406L40.2682 37.1459C40.1754 37.1394 40.0967 37.2128 40.0967 37.3058V44.947C40.0967 44.9581 40.0978 44.9694 40.0998 44.9803C40.8247 48.7211 44.2418 49.0092 44.2418 49.0092C44.2418 49.0092 44.5714 49.0312 44.6426 49.0373C44.647 49.0376 44.6503 49.0378 44.6547 49.0378H54.8531C54.8583 49.0378 54.8626 49.0376 54.8676 49.0372C55.0676 49.0189 59.2308 48.59 59.2308 44.5386V38.5556C59.2311 38.4708 59.165 38.4006 59.0803 38.3956Z" fill="#0964AF"/>
<path d="M15.1924 49.0189H35.9614C35.9728 49.0189 35.9845 49.0178 35.9956 49.0155C39.6279 48.2845 40.0079 45.0172 40.0079 45.0172C40.1701 44.0961 40.0893 43.3416 40.0801 43.2627C40.0796 43.2583 40.0792 43.2547 40.0784 43.2503C39.9626 42.5834 38.7007 39.6992 35.9706 39.4478C34.4546 39.3083 21.8189 38.3138 20.0199 38.1724C19.9132 38.1639 19.8278 38.2613 19.8518 38.3656C20.1529 39.668 20.7646 40.3445 21.1781 40.74C22.1476 41.6611 23.6682 41.948 23.7854 41.9689C23.7903 41.9697 23.7932 41.9702 23.7981 41.9706C24.2706 42.0141 34.9907 42.8919 34.9907 42.8919C35.3351 42.9098 35.9879 42.9961 35.9801 43.8412C35.9801 43.9433 35.8859 44.6886 35.056 44.6886H19.5474C19.459 44.6886 19.3873 44.6169 19.3873 44.5284V38.2683C19.3873 38.1842 19.3224 38.1145 19.2387 38.1084L15.204 37.8161C15.1112 37.8094 15.0323 37.8828 15.0323 37.9759V48.8591C15.0323 48.9472 15.104 49.0189 15.1924 49.0189Z" fill="#0964AF"/>
<path d="M59.2729 44.8216C59.2731 44.7333 59.3448 44.6618 59.4331 44.6618H74.8339C75.1155 44.6618 75.527 44.5025 75.5969 44.4355C75.7505 44.288 75.8719 44.0343 75.8719 43.7899C75.8719 42.9466 75.1694 42.91 74.8169 42.8921C74.8169 42.8921 63.9715 41.9964 63.5086 41.9593C63.504 41.9589 63.5012 41.9585 63.4967 41.9577C63.3853 41.9396 61.9486 41.6899 60.9772 40.7647C60.5614 40.3741 60.0172 39.9496 59.5928 38.641C59.5579 38.5333 59.6411 38.4232 59.754 38.4297C61.6219 38.5389 74.2579 39.2802 75.7603 39.4193C78.502 39.6789 79.7861 42.363 79.9017 43.2561C79.9017 43.2561 80.0194 44.0633 79.8769 45.0544C79.8769 45.0544 79.3095 48.8239 75.295 49.0574C75.2909 49.0575 75.2867 49.0577 75.2826 49.0577H59.4242C59.3356 49.0577 59.2637 48.9858 59.264 48.8971L59.2729 44.8216Z" fill="#0964AF"/>
<path d="M3.25076 48.7696L10.5922 37.4027L7.67154 37.0937C7.61139 37.0873 7.55295 37.1154 7.52014 37.166L0.0259189 48.7696C-0.0429874 48.8762 0.0335751 49.0167 0.16045 49.0167H3.38529C3.25842 49.0168 3.18186 48.8763 3.25076 48.7696Z" fill="#004F9C"/>
<path d="M62.4886 35.1871C62.4886 35.1725 62.4901 35.1586 62.4939 35.1446C63.2012 32.4271 65.0159 31.0861 67.1915 30.9429C67.1958 30.9425 67.2 30.9424 67.2042 30.9424H63.9794C63.9751 30.9424 63.9709 30.9425 63.9667 30.9429C61.6715 31.0883 59.9431 32.4947 59.269 34.9886C59.2655 35.0022 59.2637 35.0155 59.2637 35.0296V35.2049C59.2637 35.2933 59.3355 35.365 59.4239 35.365L62.4886 35.3655V35.1871V35.1871Z" fill="#004F9C"/>
<path d="M43.2775 35.2047V31.1238C43.2775 31.0353 43.3492 30.9636 43.4376 30.9636H40.2128C40.1243 30.9636 40.0526 31.0353 40.0526 31.1238V35.2047C40.0526 35.2932 40.1243 35.3649 40.2128 35.3649H43.4376C43.3492 35.3649 43.2775 35.2932 43.2775 35.2047Z" fill="#004F9C"/>
<path d="M57.9814 35.2047V31.1238C57.9814 31.0353 58.0531 30.9636 58.1415 30.9636H54.9167C54.8283 30.9636 54.7565 31.0353 54.7565 31.1238V35.2047C54.7565 35.2932 54.8283 35.3649 54.9167 35.3649H58.1415C58.0531 35.3649 57.9814 35.2932 57.9814 35.2047Z" fill="#004F9C"/>
<path d="M58.0565 43.2507V38.3354L55.0014 38.1546C54.9093 38.1491 54.8317 38.2224 54.8317 38.3146V43.2507C54.8317 43.2507 54.8184 44.7215 53.3815 44.7215H56.6064C58.0432 44.7215 58.0565 43.2507 58.0565 43.2507Z" fill="#004F9C"/>
<path d="M47.467 49.0094C47.467 49.0094 44.0499 48.7213 43.325 44.9805C43.323 44.9696 43.3219 44.9583 43.3219 44.9473V37.3644L40.2686 37.1462C40.1758 37.1396 40.097 37.213 40.097 37.306V44.9473C40.097 44.9583 40.0981 44.9696 40.1002 44.9805C40.825 48.7213 44.2422 49.0094 44.2422 49.0094C44.2422 49.0094 44.5717 49.0315 44.643 49.0376C44.6474 49.0379 44.6506 49.038 44.655 49.038H47.8799C47.8755 49.038 47.8722 49.0379 47.8678 49.0376C47.7966 49.0315 47.467 49.0094 47.467 49.0094Z" fill="#004F9C"/>
<path d="M18.2571 48.8592V38.0376L15.204 37.8163C15.1112 37.8096 15.0323 37.8831 15.0323 37.9762V48.8593C15.0323 48.9478 15.104 49.0195 15.1924 49.0195H18.4173C18.3289 49.0193 18.2571 48.9476 18.2571 48.8592Z" fill="#004F9C"/>
<path d="M62.4889 48.8973L62.4978 44.8217C62.4979 44.7334 62.5697 44.6619 62.6579 44.6619H59.4331C59.3448 44.6619 59.2731 44.7334 59.2729 44.8217L59.264 48.8973C59.2639 48.9859 59.3356 49.0578 59.4242 49.0578H62.649C62.5604 49.0578 62.4887 48.9859 62.4889 48.8973Z" fill="#004F9C"/>
<path d="M24.2978 30.9426C24.2936 30.9426 24.2893 30.9428 24.2851 30.9431C23.704 30.9798 23.2189 31.0859 22.8031 31.2328V31.2493C21.7648 31.6159 21.1711 32.2436 20.695 32.7378C20.3489 33.0953 20.0756 33.6447 19.8859 34.1153C19.8203 34.2781 19.5784 34.2293 19.5782 34.0539L19.58 35.3797H23.0501C22.7942 34.2025 23.7148 32.9698 23.7186 32.9648C23.7829 32.8784 23.8495 32.7962 23.9198 32.7236C24.587 32.0311 25.4773 31.0717 27.5101 30.9433C27.5143 30.9429 27.5186 30.9428 27.5228 30.9428L24.2978 30.9426Z" fill="#004F9C"/>
<path d="M10.8289 31.8143C10.4572 32.297 9.15424 34.399 8.70909 35.1206C8.64315 35.2273 8.72002 35.3649 8.84549 35.3649H12.0703C11.9449 35.3649 11.8681 35.2273 11.9339 35.1206C12.3791 34.3988 13.6821 32.297 14.0536 31.8143C14.4849 31.2232 15.0566 30.9712 15.6572 30.9712H12.4327C11.8319 30.971 11.2603 31.2232 10.8289 31.8143Z" fill="#004F9C"/>
<path d="M21.1783 40.7406C22.1478 41.6617 23.6684 41.9484 23.7856 41.9695C23.7905 41.9703 23.7934 41.9708 23.7983 41.9713C23.9611 41.9863 25.3405 42.1003 27.0789 42.2433C24.0519 40.8497 23.5505 38.4512 23.5505 38.4512C21.8525 38.3172 20.5191 38.2122 20.02 38.1731C19.9133 38.1647 19.8278 38.2619 19.8519 38.3662C20.1531 39.6684 20.7648 40.3452 21.1783 40.7406Z" fill="#004F9C"/>
<path d="M60.9772 40.7651C61.9486 41.6903 63.3853 41.94 63.4967 41.9581C63.5012 41.9589 63.504 41.9593 63.5086 41.9596C63.6459 41.9707 64.6965 42.0571 66.1067 42.1735C63.4639 40.7515 62.9611 38.6189 62.9611 38.6189C61.4284 38.5281 60.2343 38.4582 59.7539 38.43C59.6409 38.4234 59.5578 38.5336 59.5926 38.6412C60.0172 39.95 60.5614 40.3745 60.9772 40.7651Z" fill="#004F9C"/>
</g>
<defs>
<clipPath id="clip0">
<rect width="80" height="80" fill="white"/>
</clipPath>
</defs>
</svg>
