<svg width="80" height="80" viewBox="0 0 80 80" fill="none" xmlns="http://www.w3.org/2000/svg">
<path d="M13.028 38.9928C12.8881 39.2175 13.1347 39.4854 13.3547 39.3476L18.9486 35.8429C19.0695 35.7671 19.1053 35.5981 19.0223 35.479C17.2942 33.0009 14.1431 31.3093 10.2562 31.3093C4.59156 31.3095 0 35.2003 0 40C0 44.8167 4.60984 48.6906 10.2562 48.6906C13.7789 48.6906 16.933 47.267 18.7356 44.8964C18.8447 44.7529 18.7581 44.5998 18.6823 44.3423C18.6252 44.1479 18.3838 44.0992 18.2631 44.2585C17.5711 45.1728 15.603 47.3498 12.5511 47.3498C9.93672 47.3498 7.5875 45.8757 6.30641 43.6784C2.70359 37.5206 8.59031 29.622 15.4353 33.9534C15.5516 34.027 15.585 34.1876 15.5108 34.3068L13.028 38.9928Z" fill="#E85454"/>
<path d="M19.4328 44.0157C19.4328 46.4417 21.845 48.4081 24.8208 48.4081C27.3078 48.4081 29.4014 47.0343 30.0219 45.1665L30.8412 48.0334C30.9048 48.2557 31.1003 48.4081 31.3222 48.4081H35.1062C35.3826 48.4081 35.5812 48.1298 35.5025 47.8525C35.147 46.6 32.6673 37.8612 32.3156 36.6218C32.3156 36.6218 31.0511 33.0197 27.0612 34.5384C25.0159 35.317 23.7826 35.8448 23.0664 36.1743C22.845 36.2762 22.9159 36.6218 23.1578 36.6218H27.1336C27.398 36.6218 27.6311 36.8034 27.7069 37.0684L28.8626 41.1114C27.8753 40.1989 26.4305 39.6234 24.8206 39.6234C21.8601 39.6234 19.4328 41.5762 19.4328 44.0157ZM26.9611 41.2723C28.4489 41.2723 29.6636 42.5322 29.6636 44.0998C29.6636 45.7126 28.3728 47.0103 26.813 46.9232C25.2759 46.8375 24.0467 45.3581 24.2884 43.6759C24.484 42.3154 25.6061 41.2723 26.9611 41.2723Z" fill="#E85454"/>
<path d="M44.5333 47.9118C44.5333 48.1859 44.7456 48.4081 45.0075 48.4081H48.956C49.191 48.4081 49.3816 48.2087 49.3816 47.9628C49.3816 46.6859 49.3816 37.8554 49.3816 36.6403C49.3449 35.2721 48.2738 34.1748 46.9574 34.1748C45.7664 34.1748 44.0703 35.2811 42.3286 36.2862C42.1613 36.3828 41.9469 36.2917 41.9022 36.0973C41.6483 34.9931 40.7766 34.175 39.6402 34.175C38.643 34.175 36.2469 35.5325 35.0889 36.2253C34.9082 36.3334 34.9819 36.6218 35.1903 36.6218H36.9069C37.0777 36.6218 37.2161 36.7667 37.2161 36.9453C37.2161 38.0129 37.2161 46.592 37.2161 48.0856C37.2161 48.2636 37.3541 48.4079 37.5242 48.4079H41.5914C41.803 48.4079 41.9744 48.2286 41.9744 48.0073C41.9744 48.0028 41.9741 37.5076 41.9749 37.5031C42.5019 36.092 44.5333 36.4611 44.5333 38.0704C44.5333 41.3023 44.5333 45.0707 44.5333 47.9118Z" fill="#E85454"/>
<path d="M57.9333 48.6904C61.7892 48.6904 64.9156 45.4204 64.9156 41.3854C64.9156 37.3509 61.7897 34.0806 57.9333 34.0806C53.1697 34.0806 49.8147 38.9664 51.3008 43.6742C52.219 46.5881 54.8414 48.6904 57.9333 48.6904ZM56.6986 34.8132C57.6167 34.8132 58.3731 35.5387 58.4722 36.4718C61.2439 46.3831 61.0718 45.7064 61.0718 45.9407C61.0718 46.9718 60.2729 47.8076 59.2873 47.8076C58.3233 47.8076 57.5378 47.0074 57.5248 46.0076C56.6675 43.0415 56.922 43.922 54.8119 36.6218C54.9225 35.702 55.7894 34.8132 56.6986 34.8132Z" fill="#E85454"/>
<path d="M75.1517 47.9118C75.1517 48.1859 75.3641 48.4081 75.6259 48.4081H79.5744C79.8094 48.4081 80 48.2087 80 47.9628C80 46.6859 80 37.8554 80 36.6403C79.9633 35.2721 78.8922 34.1748 77.5758 34.1748C76.3848 34.1748 74.6887 35.2811 72.947 36.2862C72.7797 36.3828 72.5653 36.2917 72.5206 36.0973C72.2667 34.9931 71.395 34.175 70.2586 34.175C69.2614 34.175 66.8653 35.5325 65.7073 36.2253C65.5266 36.3334 65.6003 36.6218 65.8087 36.6218H67.5253C67.6961 36.6218 67.8345 36.7667 67.8345 36.9453C67.8345 38.0129 67.8345 46.592 67.8345 48.0856C67.8345 48.2636 67.9725 48.4079 68.1427 48.4079H72.2098C72.4214 48.4079 72.5928 48.2286 72.5928 48.0073C72.5928 48.0028 72.5925 37.5075 72.5933 37.5031C73.1203 36.092 75.1517 36.4611 75.1517 38.0704C75.1517 41.3023 75.1517 45.0707 75.1517 47.9118Z" fill="#E85454"/>
<path d="M40.1138 48.033C40.1138 46.2939 40.1138 36.3053 40.1138 35.0621C40.1138 34.8541 39.9753 34.6853 39.8045 34.6853H38.088C38.0594 34.6853 38.0339 34.678 38.0108 34.6667C36.9767 35.1252 35.7998 35.8 35.0891 36.2253C34.9081 36.3336 34.982 36.6219 35.1905 36.6219H36.907C37.0778 36.6219 37.2163 36.7667 37.2163 36.9453C37.2163 38.013 37.2163 46.5921 37.2163 48.0857C37.2163 48.2636 37.3542 48.408 37.5244 48.408H40.4219C40.2516 48.4083 40.1138 48.2402 40.1138 48.033Z" fill="#D84848"/>
<path d="M70.7322 48.033C70.7322 46.2939 70.7322 36.3053 70.7322 35.0621C70.7322 34.8541 70.5938 34.6853 70.423 34.6853H68.7064C68.6778 34.6853 68.6524 34.678 68.6291 34.6667C67.595 35.1252 66.4181 35.8 65.7074 36.2253C65.5266 36.3336 65.6005 36.6219 65.8088 36.6219H67.5253C67.6961 36.6219 67.8345 36.7667 67.8345 36.9453C67.8345 38.013 67.8345 46.5921 67.8345 48.0857C67.8345 48.2636 67.9725 48.408 68.1427 48.408H71.0402C70.87 48.4083 70.7322 48.2402 70.7322 48.033Z" fill="#D84848"/>
<path d="M3.21953 40C3.21953 35.6577 6.97797 32.0597 11.8891 31.4135C11.3612 31.3458 10.8167 31.3096 10.2562 31.3096C4.59156 31.3096 0 35.2003 0 40C0 44.8167 4.60984 48.6907 10.2562 48.6907C10.8064 48.6907 11.3461 48.6519 11.8745 48.5844C6.98344 47.9336 3.21953 44.3521 3.21953 40Z" fill="#D84848"/>
<path d="M26.4297 39.8243C25.9214 39.6948 25.3816 39.6235 24.821 39.6235C21.8636 39.6235 19.433 41.5738 19.433 44.0159C19.433 46.4418 21.8452 48.4082 24.821 48.4082C25.3799 48.4082 25.917 48.3356 26.4238 48.2068C21.4261 46.927 21.3694 41.1151 26.4297 39.8243Z" fill="#D84848"/>
<path d="M23.158 36.622H26.3775C26.1357 36.622 26.0646 36.2763 26.2861 36.1745C27.0024 35.8449 28.2357 35.3171 30.281 34.5385C30.3227 34.5226 30.3624 34.5106 30.4035 34.4959C29.603 34.1126 28.5135 33.9859 27.0616 34.5385C25.0163 35.3171 23.783 35.8449 23.0668 36.1745C22.8452 36.2763 22.9161 36.622 23.158 36.622Z" fill="#D84848"/>
<path d="M54.5203 43.6745C53.8558 41.5696 54.1613 39.4306 55.1253 37.7071C55.0269 37.3665 54.9227 37.0062 54.8118 36.622C54.9224 35.7021 55.7893 34.8134 56.6985 34.8134C57.036 34.8134 57.3511 34.9121 57.6203 35.0823C58.2064 34.7209 58.8503 34.4463 59.5391 34.277C59.0233 34.1499 58.4861 34.0806 57.9333 34.0806C53.1697 34.0806 49.8146 38.9663 51.3008 43.6742C52.2189 46.5879 54.8414 48.6902 57.9333 48.6902C58.4868 48.6902 59.0246 48.6209 59.5408 48.4935C57.1749 47.9087 55.2738 46.0652 54.5203 43.6745Z" fill="#D84848"/>
</svg>
