<svg width="80" height="80" viewBox="0 0 80 80" fill="none" xmlns="http://www.w3.org/2000/svg">
<path d="M38.001 60.6579C-3.19467 64.458 -0.271544 40.7291 8.73783 30.9026V28.7593C2.10783 34.5738 -1.48514 41.9315 0.58455 50.6224C5.61611 71.8391 47.1472 68.7391 66.4408 58.1416V52.0807C59.386 56.2841 47.7197 59.7562 38.001 60.6579Z" fill="#579ADD"/>
<path d="M79.6455 28.6143C75.8957 10.3074 40.35 9.14678 17.4371 23.0944V24.6352C40.3239 12.8685 72.7882 12.9401 75.7438 29.8043C76.7355 35.3827 73.5933 41.1949 67.9794 44.5412V48.9171C74.7325 46.4399 81.6594 38.428 79.6455 28.6143Z" fill="#579ADD"/>
<path d="M66.3396 52.1395V55.3951C46.6152 66.2292 1.95301 69.7433 0.0426967 44.5464C-0.0830846 46.4919 0.0833216 48.5176 0.584572 50.6226C5.61613 71.8394 47.1472 68.7394 66.4408 58.1419V52.0809C66.4077 52.1003 66.3729 52.1198 66.3396 52.1395Z" fill="#4987CE"/>
<path d="M67.9794 44.5409V48.9168C68.6555 48.6689 69.3333 48.3643 70.004 48.0092V46.1462C70.004 45.5332 70.309 44.9599 70.8187 44.6195C75.9191 41.2129 78.7118 35.6989 77.769 30.3957C76.6649 24.0959 71.4427 20.1396 64.1407 18.2681C70.3735 20.3224 74.7447 24.1037 75.7438 29.8042C76.7355 35.3826 73.5933 41.1948 67.9794 44.5409Z" fill="#4987CE"/>
<path d="M64.9648 25.9485H61.2154C61.1062 25.9485 61.0178 26.0369 61.0178 26.1461V44.4086C61.0178 46.52 62.0139 48.3629 64.9421 48.7297C65.0592 48.7444 65.1626 48.6508 65.1626 48.5329V26.1461C65.1626 26.0369 65.074 25.9485 64.9648 25.9485Z" fill="#579ADD"/>
<path d="M15.6118 32.6885H11.8548C11.7456 32.6885 11.6572 32.7769 11.6572 32.8861L11.655 44.7493C11.655 46.8683 12.6543 48.7092 15.5895 49.0708C15.7064 49.0852 15.8095 48.9918 15.8095 48.8739V32.8861C15.8095 32.7769 15.7211 32.6885 15.6118 32.6885Z" fill="#579ADD"/>
<path d="M11.6572 26.7077V30.2413C11.6572 30.3505 11.7456 30.4389 11.8548 30.4389H15.5989C15.7081 30.4389 15.7965 30.3505 15.7965 30.2413V26.7077C15.7965 26.5984 15.7081 26.51 15.5989 26.51H11.8548C11.7456 26.5099 11.6572 26.5984 11.6572 26.7077Z" fill="#579ADD"/>
<path d="M40.6323 48.9041C37.2773 48.9041 35.8575 46.5724 35.8575 44.2754V28.4591C35.8575 28.3499 35.9459 28.2615 36.0551 28.2615H39.7687C39.878 28.2615 39.9664 28.3499 39.9664 28.4591V32.491C39.9664 32.6002 40.0548 32.6887 40.164 32.6887H42.8628C42.972 32.6887 43.0605 32.7771 43.0605 32.8863V35.8098C43.0605 35.919 42.972 36.0074 42.8628 36.0074H40.164C40.0548 36.0074 39.9664 36.0959 39.9664 36.2051V44.0213C39.9664 44.9577 40.4109 45.4796 41.3873 45.4796H42.8628C42.972 45.4796 43.0605 45.5681 43.0605 45.6773V48.7062C43.0605 48.8154 42.972 48.9038 42.8628 48.9038H40.6323" fill="#579ADD"/>
<path d="M48.1927 42.0812C48.1927 44.184 49.5077 45.729 51.8342 45.729C53.5777 45.729 54.4756 45.2665 55.4713 44.3167C55.5481 44.2436 55.6685 44.2418 55.7452 44.3148L57.9976 46.4603C58.079 46.5378 58.0798 46.6689 57.9987 46.7468C56.4148 48.2689 54.7224 49.1881 51.8037 49.1881C47.8715 49.1881 44.1043 47.0419 44.1043 40.7856C44.1043 35.4369 47.3963 32.4136 51.7126 32.4136C56.1004 32.4136 58.6221 35.9529 58.6221 40.599V41.8834C58.6221 41.9926 58.5337 42.0811 58.4245 42.0811L48.1927 42.0812ZM48.5877 37.5133C48.3481 38.0408 48.2449 38.4634 48.2043 39.0667C48.1966 39.1814 48.2868 39.2797 48.4018 39.2797H54.3149C54.4288 39.2797 54.521 39.1834 54.5123 39.0698C54.1721 34.6772 49.6371 35.2734 48.5877 37.5133Z" fill="#579ADD"/>
<path d="M26.969 36.0073C28.1739 36.0073 28.6746 36.6029 28.6746 37.5698V48.7301C28.6746 48.8394 28.7631 48.9278 28.8723 48.9278H32.5865C32.6957 48.9278 32.7842 48.8394 32.7842 48.7301V37.5459C32.7842 35.2395 31.5554 32.6929 27.9467 32.6929L19.6553 32.6887C19.5461 32.6887 19.4575 32.7772 19.4575 32.8864V48.7301C19.4575 48.8394 19.5459 48.9278 19.6551 48.9278H23.3709C23.4801 48.9278 23.5686 48.8394 23.5686 48.7301V36.205C23.5686 36.0958 23.657 36.0073 23.7662 36.0073H26.969Z" fill="#579ADD"/>
<path d="M63.1104 44.4086V26.1461C63.1104 26.0369 63.1989 25.9485 63.3081 25.9485H61.2154C61.1062 25.9485 61.0178 26.0369 61.0178 26.1461V44.4086C61.0178 46.52 62.0139 48.3629 64.9421 48.7297C65.0592 48.7444 65.1626 48.6508 65.1626 48.5329V48.1838C63.6654 47.409 63.1104 45.9838 63.1104 44.4086Z" fill="#4987CE"/>
<path d="M13.7476 44.7493L13.7498 32.8861C13.7498 32.7771 13.8383 32.6885 13.9475 32.6885H11.8548C11.7456 32.6885 11.6572 32.7769 11.6572 32.8861L11.655 44.7493C11.655 46.8683 12.6545 48.7092 15.5895 49.0708C15.7065 49.0852 15.8097 48.9918 15.8097 48.8739V48.5305C14.3053 47.7583 13.7476 46.3314 13.7476 44.7493Z" fill="#4987CE"/>
<path d="M13.7498 30.2413V26.7077C13.7498 26.5984 13.8383 26.51 13.9475 26.51H11.8548C11.7456 26.51 11.6572 26.5984 11.6572 26.7077V30.2413C11.6572 30.3505 11.7456 30.4389 11.8548 30.4389H13.9475C13.8383 30.4389 13.7498 30.3505 13.7498 30.2413Z" fill="#4987CE"/>
<path d="M37.9503 44.275V28.4589C37.9503 28.3497 38.0388 28.2612 38.148 28.2612H36.0553C35.9461 28.2612 35.8577 28.3497 35.8577 28.4589V44.2751C35.8577 46.5722 37.2774 48.9039 40.6325 48.9039H42.7252C39.37 48.9037 37.9503 46.572 37.9503 44.275Z" fill="#4987CE"/>
<path d="M46.1971 40.7858C46.1971 35.8958 48.9491 32.9513 52.7193 32.4818C52.3952 32.4385 52.0605 32.4138 51.7127 32.4138C47.3965 32.4138 44.1046 35.4371 44.1046 40.7858C44.1046 47.0421 47.8718 49.1883 51.804 49.1883C52.1912 49.1883 52.5555 49.171 52.9021 49.1394C49.3526 48.7932 46.1971 46.5115 46.1971 40.7858Z" fill="#4987CE"/>
<path d="M21.5499 48.7301V32.8864C21.5499 32.779 21.6359 32.6926 21.7424 32.6898L19.6551 32.6887C19.5459 32.6887 19.4573 32.7772 19.4573 32.8864V48.7301C19.4573 48.8394 19.5457 48.9278 19.6549 48.9278H21.7476C21.6385 48.9278 21.5499 48.8392 21.5499 48.7301Z" fill="#4987CE"/>
</svg>
