<svg width="80" height="80" viewBox="0 0 80 80" fill="none" xmlns="http://www.w3.org/2000/svg">
<g clip-path="url(#clip0)">
<path d="M53.4234 33.1063C52.7337 32.4159 51.4497 32.2288 50.3294 32.2288H44.5515C44.4607 32.2288 44.3804 32.2928 44.3529 32.387L40.4526 45.7673C40.4099 45.9137 40.5102 46.0632 40.6512 46.0632H43.8365C43.9272 46.0632 44.0076 45.9992 44.0351 45.9049L45.1072 42.2348C45.1347 42.1404 45.2129 42.0764 45.3038 42.0765C45.8557 42.0778 47.7868 42.0806 48.7089 42.0615C50.9456 42.014 53.0256 41.12 54.0395 37.4103C54.6162 35.2995 54.1919 33.8756 53.4234 33.1063ZM50.6845 37.3561C50.3763 38.3461 50.0372 38.7212 49.6158 39.0219C48.9061 39.5287 48.4022 39.4964 46.1922 39.5014C46.051 39.5017 45.9525 39.352 45.9955 39.2053L47.2529 34.9078C47.2804 34.8136 47.3607 34.7497 47.4514 34.7497C49.5183 34.7497 50.1447 34.6725 50.5728 35.0545C50.8544 35.3058 51.132 35.9209 50.6845 37.3561Z" fill="#E85454"/>
<path d="M10.1817 42.9485C10.1817 42.9485 4.19967 44.3778 3.95218 42.2369C3.80733 40.9861 5.14967 36.8988 5.61623 36.1731C6.1381 35.3604 6.89544 35.0309 7.66637 34.9135C9.14121 34.6896 10.8679 35.0281 11.6576 35.2301C11.7632 35.2571 11.8674 35.1902 11.9004 35.0777L12.6254 32.6096C12.6646 32.476 12.5859 32.3364 12.4585 32.3159C11.7112 32.1956 9.32917 31.8592 6.76028 31.9882C6.00232 32.026 5.01951 32.2331 4.31139 32.5584C2.58875 33.3474 1.70438 35.1193 0.211416 41.2411C0.150635 41.4904 -0.31155 43.4111 0.360477 44.5505C1.12375 45.8439 2.51234 46.1144 3.04937 46.1785C5.26717 46.4424 8.65855 46.1186 9.38042 46.0438C9.46449 46.035 9.53449 45.9722 9.55917 45.8842L10.3976 42.9L10.1817 42.9485Z" fill="#E85454"/>
<path d="M24.7832 33.4677C23.8268 32.1151 22.2985 32.0337 19.6669 31.976C15.5162 31.884 14.2513 32.4684 13.3437 35.2043C13.1048 35.9243 12.1756 38.928 11.7803 40.4208C11.1384 42.848 11.072 44.8792 13.3188 45.9728C14.2649 46.4344 17.7501 46.3258 19.0447 46.2444C20.339 46.163 21.1185 45.7556 21.696 45.268C22.4661 44.6183 22.8511 43.7495 23.2269 42.6636C23.5349 41.7755 24.0194 40.1232 24.7582 37.4286C25.2033 35.8035 25.5256 34.5188 24.7832 33.4677ZM21.1991 36.6302C19.7785 41.7722 19.5791 42.7511 18.7637 43.3724C18.2819 43.7399 17.4963 43.7486 17.4963 43.7486C17.4963 43.7486 16.7351 43.7825 16.4182 43.7399C16.2885 43.7224 15.5688 43.7117 15.2107 43.1252C14.7948 42.4425 15.3356 41.0094 15.3356 41.0094C17.0063 35.4193 17.0974 35.2693 17.5385 34.9057C18.0205 34.5088 19.131 34.5096 19.7576 34.5382C19.8432 34.5421 21.0994 34.4907 21.373 35.0865C21.5705 35.5176 21.1991 36.6302 21.1991 36.6302Z" fill="#E85454"/>
<path d="M61.1562 32.2334C59.7404 32.2334 59.3254 32.5165 58.6954 32.947C58.0129 33.4143 57.3451 34.7495 56.9406 35.3846C56.6081 35.9068 51.9399 43.9055 50.905 45.6794C50.8167 45.8307 50.9178 46.0261 51.0822 46.0261H54.1561C54.2286 46.0261 54.2959 45.9851 54.3338 45.9177L55.8572 43.2102C55.8951 43.1429 55.9623 43.1018 56.0348 43.1018H60.0147C60.1342 43.1018 60.2293 43.2112 60.2228 43.3413L60.0978 45.8293C60.0912 45.9594 60.1864 46.0688 60.3059 46.0688H63.4517C63.5635 46.0688 63.6554 45.9727 63.6599 45.851L64.1592 32.4698C64.164 32.3409 64.0693 32.2334 63.9509 32.2334H61.1562ZM60.3468 40.5468L57.6662 40.5612C57.5026 40.5621 57.4019 40.3666 57.4878 40.2148L60.1868 35.4473C60.3 35.2474 60.5831 35.3432 60.5725 35.5778L60.3468 40.5468Z" fill="#E85454"/>
<path d="M76.7535 43.7243L76.1822 43.7369C76.6275 43.3801 77.4867 40.4209 78.1203 38.0385C78.6381 36.0915 79.1455 34.4504 78.2445 33.3398C77.2839 32.1559 75.623 32.0337 73.1404 31.9761C71.1871 31.9309 69.5258 32.0289 68.4848 32.7648C67.7951 33.252 67.3565 33.7776 66.8132 35.3576C66.5668 36.0746 65.7827 38.6781 65.4095 40.1776C65.1032 41.4059 63.9906 44.8238 66.8257 45.9652C67.3893 46.1922 68.2577 46.2468 69.3466 46.2694C69.4124 46.2708 69.4749 46.2411 69.5152 46.1844C70.1535 45.2855 71.3824 44.3982 72.8771 44.0094C73.4488 43.8601 74.2469 43.7554 74.8918 43.7399C75.3878 43.7283 75.7117 43.7516 75.7117 43.7516C74.9549 43.8243 74.0522 43.996 73.1716 44.3324C70.1305 45.4954 70.0612 48.4125 70.1096 48.0014C70.213 47.7878 70.8558 46.8318 72.4419 46.4733C73.5472 46.2238 74.7391 46.2738 79.2183 46.2718C79.3103 46.2718 79.3889 46.206 79.4153 46.1099L79.9911 44.0168C80.0313 43.871 79.9311 43.7244 79.7914 43.7244L76.7535 43.7243ZM74.8399 36.224C74.7407 36.6842 73.8985 39.7631 73.5354 40.9493C73.2929 41.7415 73.0718 42.6054 72.5415 43.129C72.0752 43.5896 71.5413 43.6701 70.926 43.7397C70.4446 43.7951 69.6908 43.7282 69.6908 43.7282C69.6908 43.7282 69.0062 43.671 68.708 43.0815C68.4887 42.648 68.5777 42.073 68.6893 41.626C68.7671 41.3157 70.0241 36.8028 70.2777 36.1535C70.5038 35.5737 70.603 35.2489 71.0119 34.9056C71.4355 34.5498 72.0405 34.5546 72.2683 34.5314C72.6688 34.4906 73.5074 34.5217 73.5074 34.5217C73.5074 34.5217 74.4671 34.5314 74.803 34.9104C75.1139 35.2626 74.93 35.8065 74.8399 36.224Z" fill="#E85454"/>
<path d="M27.8864 32.1784L23.9445 45.7316C23.9019 45.878 24.0022 46.0274 24.1433 46.0274H27.0681C27.1587 46.0274 27.2389 45.9636 27.2666 45.8697L30.1175 36.1865C30.184 35.9602 30.4845 35.9834 30.5214 36.2176L31.6811 43.5922C31.6982 43.7013 31.785 43.781 31.8865 43.781H32.2923C32.3586 43.781 32.4207 43.7468 32.4601 43.6886L37.5263 36.2027C37.6662 35.996 37.9642 36.1615 37.8927 36.4063L35.1726 45.7316C35.1299 45.878 35.2303 46.0275 35.3712 46.0275H38.4009C38.4917 46.0275 38.572 45.9635 38.5995 45.8692L42.496 32.5292C42.5388 32.3828 42.4405 32.2332 42.2994 32.2332C41.4715 32.2328 39.1051 32.2313 39.0007 32.2334C38.867 32.2368 37.3602 32.1592 36.3245 33.5932C35.9515 34.1093 34.5765 36.1879 33.9732 37.1023C33.8657 37.2652 33.6323 37.2057 33.6 37.008C33.4767 36.2546 33.2495 34.8771 33.1089 34.0848C32.8851 32.8262 32.0836 32.3181 30.9309 32.2193C30.37 32.171 27.8864 32.1784 27.8864 32.1784Z" fill="#E85454"/>
<path d="M42.5049 45.7673L46.4052 32.387C46.4327 32.2927 46.513 32.2288 46.6038 32.2288H44.5513C44.4605 32.2288 44.3801 32.2928 44.3527 32.387L40.4524 45.7673C40.4098 45.9137 40.5101 46.0631 40.651 46.0631H42.7035C42.5626 46.0631 42.4623 45.9137 42.5049 45.7673Z" fill="#D84848"/>
<path d="M49.4911 34.7519C49.9547 34.7627 50.3241 34.8325 50.5728 35.0545C50.8544 35.3056 51.1321 35.9209 50.6846 37.3559C50.3763 38.3459 50.0372 38.7211 49.6158 39.0217C49.1488 39.3553 48.7497 39.4455 48.1477 39.4755C48.2429 39.5305 50.0988 39.4808 50.2085 39.4751C51.6347 39.4012 52.3189 38.6983 52.7369 37.3561C53.1845 35.9211 52.9069 35.3058 52.6252 35.0547C52.352 34.8108 51.9347 34.7499 51.4052 34.7499C51.3544 34.7497 49.5419 34.7485 49.4911 34.7519Z" fill="#D84848"/>
<path d="M2.41376 44.5505C1.74173 43.4111 2.20392 41.4904 2.2647 41.2411C3.71094 35.311 4.57796 33.3767 6.36467 32.5584C7.07279 32.2331 8.0556 32.0261 8.81357 31.9882C8.87482 31.9851 8.93591 31.9826 8.997 31.98C8.29529 31.9528 7.53685 31.9492 6.76108 31.9882C6.00311 32.0261 5.02031 32.2331 4.31219 32.5584C2.55829 33.3617 1.68392 35.2067 0.212209 41.2411C0.151428 41.4904 -0.310757 43.4111 0.361271 44.5505C1.12455 45.8439 2.51313 46.1144 3.05016 46.1785C3.98547 46.2897 5.1289 46.2964 6.19342 46.2614C4.86765 46.2064 3.29579 46.0453 2.41376 44.5505Z" fill="#D84848"/>
<path d="M15.3712 45.9728C13.1237 44.8789 13.191 42.8466 13.8326 40.4208C14.2279 38.9282 15.1571 35.9243 15.396 35.2043C16.1273 33.0001 17.0519 32.1168 20.0277 31.9846C19.909 31.9816 19.7904 31.9788 19.6669 31.976C15.5162 31.884 14.2513 32.4684 13.3437 35.2043C13.1048 35.9243 12.1756 38.928 11.7803 40.4208C11.1384 42.848 11.072 44.8792 13.3188 45.9728C14.0232 46.3164 16.1348 46.3439 17.7023 46.302C16.7016 46.2691 15.789 46.1766 15.3712 45.9728Z" fill="#D84848"/>
<path d="M20.8159 43.3724C21.6314 42.7511 21.8294 41.7774 23.2514 36.6302C23.2514 36.6302 23.623 35.5176 23.4253 35.0866C23.1517 34.4908 21.8955 34.5423 21.8098 34.5383C21.5552 34.5266 21.2711 34.5315 20.9774 34.5452C20.8609 34.5505 20.6706 34.5563 20.4594 34.5852C20.8283 34.6444 21.2316 34.7788 21.373 35.0866C21.5705 35.5176 21.1991 36.6302 21.1991 36.6302C21.1991 36.6302 20.1791 40.3219 19.9533 41.0705C19.7078 41.8841 19.4305 42.8642 18.7636 43.3724C18.5555 43.5311 18.2908 43.6227 18.0571 43.6758C18.2528 43.7258 18.4155 43.7324 18.4707 43.7399C18.6267 43.7608 20.141 43.8872 20.8159 43.3724Z" fill="#D84848"/>
<path d="M52.9574 45.6794C53.9924 43.9055 58.6605 35.9068 58.993 35.3846C59.3973 34.7495 60.0651 33.4143 60.7478 32.947C61.3778 32.5165 61.793 32.2334 63.2086 32.2334H61.1561C59.7403 32.2334 59.3253 32.5165 58.6953 32.947C58.0128 33.4143 57.345 34.7495 56.9405 35.3846C56.608 35.9068 51.9397 43.9055 50.9049 45.6794C50.8168 45.8307 50.9177 46.0261 51.0821 46.0261H53.1346C52.9702 46.026 52.8693 45.8305 52.9574 45.6794Z" fill="#D84848"/>
<path d="M68.8779 45.965C68.0206 45.6198 67.387 45.0109 67.1262 44.0364C66.7924 42.7904 67.0513 41.8228 67.4616 40.1773C67.8349 38.6778 68.6188 36.0744 68.8654 35.3574C69.4087 33.7774 69.8473 33.2519 70.537 32.7646C71.2715 32.2454 72.3155 32.0444 73.5523 31.9864C73.4173 31.9825 73.2804 31.9791 73.1402 31.9758C71.187 31.9307 69.5257 32.0286 68.4846 32.7646C67.7949 33.2518 67.3563 33.7774 66.8131 35.3574C66.5665 36.0744 65.7826 38.6778 65.4093 40.1773C65.1003 41.4167 63.9931 44.8246 66.8256 45.965C67.3892 46.192 68.2576 46.2465 69.3465 46.2692C69.4123 46.2706 69.4748 46.2409 69.5151 46.1842C69.524 46.1717 69.5373 46.1542 69.5482 46.1393C69.2934 46.0967 69.0671 46.0412 68.8779 45.965Z" fill="#D84848"/>
<path d="M76.8554 34.9106C76.5194 34.5315 75.5597 34.5218 75.5597 34.5218C75.5597 34.5218 74.7212 34.4907 74.3207 34.5315C74.2404 34.5398 74.1119 34.5451 73.9623 34.5634C74.2582 34.6093 74.6213 34.7057 74.8029 34.9107C75.114 35.2628 74.9301 35.8067 74.8398 36.224C74.7405 36.6842 73.8983 39.7631 73.5352 40.9493C73.2927 41.7415 73.0716 42.6054 72.5413 43.129C72.2157 43.4507 71.8562 43.5855 71.4598 43.6622C71.6218 43.7176 71.743 43.7282 71.743 43.7282C71.743 43.7282 72.4968 43.7951 72.9782 43.7397C73.5935 43.6699 74.1274 43.5894 74.5937 43.129C75.124 42.6054 75.3451 41.7415 75.5876 40.9493C75.9507 39.7631 76.7929 36.684 76.8921 36.224C76.9826 35.8065 77.1663 35.2626 76.8554 34.9106Z" fill="#D84848"/>
<path d="M25.997 45.7314L29.9362 32.1875C29.0264 32.1747 27.8865 32.1782 27.8865 32.1782L23.9447 45.7314C23.9022 45.8778 24.0023 46.0271 24.1434 46.0271H26.1959C26.0547 46.0271 25.9544 45.8778 25.997 45.7314Z" fill="#D84848"/>
<path d="M75.7114 43.7515C74.9547 43.8241 74.0519 43.9958 73.1713 44.3322C71.6085 44.9299 70.3083 46.3164 70.1093 48.0013C70.2127 47.7877 70.8555 46.8316 72.4415 46.4732C72.5394 46.451 72.6474 46.4314 72.7597 46.413C72.7485 44.5121 75.7114 43.7515 75.7114 43.7515Z" fill="#D84848"/>
</g>
<defs>
<clipPath id="clip0">
<rect width="80" height="80" fill="white"/>
</clipPath>
</defs>
</svg>
