<svg width="44" height="44" viewBox="0 0 44 44" fill="none" xmlns="http://www.w3.org/2000/svg">
<circle cx="22" cy="22" r="22" fill="#2B2B2B"/>
<path d="M28.698 7H15.302C13.6442 7 12.2955 8.34877 12.2955 10.0066V33.9934C12.2955 35.6512 13.6442 36.9999 15.302 36.9999H28.698C30.3559 36.9999 31.7046 35.6512 31.7046 33.9934V10.0066C31.7046 8.34877 30.3558 7 28.698 7V7ZM15.302 8.75781H28.698C29.3866 8.75781 29.9468 9.31803 29.9468 10.0066V10.5303H14.0532V10.0066C14.0532 9.31803 14.6134 8.75781 15.302 8.75781V8.75781ZM29.9468 12.2881V28.1816H14.0532V12.2881H29.9468ZM28.698 35.2422H15.302C14.6134 35.2422 14.0533 34.682 14.0533 33.9934V29.9395H29.9468V33.9934C29.9468 34.682 29.3866 35.2422 28.698 35.2422Z" fill="white"/>
<path d="M23.7651 31.7119H20.2349C19.7495 31.7119 19.356 32.1054 19.356 32.5908C19.356 33.0762 19.7495 33.4697 20.2349 33.4697H23.7651C24.2505 33.4697 24.644 33.0762 24.644 32.5908C24.644 32.1054 24.2505 31.7119 23.7651 31.7119Z" fill="white"/>
</svg>
