<svg width="80" height="80" viewBox="0 0 80 80" fill="none" xmlns="http://www.w3.org/2000/svg">
<path d="M42.8172 0H37.183H1.96266C0.87875 0 0 0.87875 0 1.96266V78.0373C0 79.1214 0.87875 80 1.96266 80H78.0373C79.1212 80 80 79.1212 80 78.0373V42.8172V37.183V1.96266C80 0.87875 79.1214 0 78.0373 0H42.8172Z" fill="#F97E19"/>
<path d="M14.8572 24.4964V55.5038C14.8572 55.7778 15.0794 56.0002 15.3535 56.0002H22.3608C22.6349 56.0002 22.8571 55.778 22.8571 55.5038V31.3764C22.8571 31.1023 23.0793 30.8802 23.3533 30.8802H38.9085C41.9958 30.8802 44.5827 33.5544 44.5371 36.5544C44.6261 42.8694 44.5471 49.1898 44.5694 55.5052C44.5703 55.7788 44.7927 56 45.0663 56H52.0752C52.3493 56 52.5714 55.7778 52.5714 55.5038L52.5771 33.7314C52.5771 28.4959 47.9744 24 42.8913 24H15.3535C15.0794 24 14.8572 24.2222 14.8572 24.4964Z" fill="white"/>
<path d="M58.2858 24.4965V55.5038C58.2858 55.7779 58.508 56.0003 58.7822 56.0003H65.7896C66.0636 56.0003 66.286 55.7781 66.286 55.5038V24.4965C66.286 24.2224 66.0638 24.0002 65.7896 24.0002H58.7822C58.508 24.0001 58.2858 24.2223 58.2858 24.4965Z" fill="white"/>
<path d="M29.7144 37.0678V55.5037C29.7144 55.7778 29.9366 56.0001 30.2107 56.0001H37.218C37.4921 56.0001 37.7143 55.7779 37.7143 55.5037V37.0678C37.7143 36.7937 37.4921 36.5715 37.218 36.5715H30.2107C29.9366 36.5714 29.7144 36.7937 29.7144 37.0678Z" fill="white"/>
<path d="M3.3 78.0373V1.96266C3.3 0.87875 4.17875 0 5.26266 0H1.96266C0.87875 0 0 0.87875 0 1.96266V78.0373C0 79.1214 0.87875 80 1.96266 80H5.26266C4.17875 80 3.3 79.1214 3.3 78.0373Z" fill="#EA6D11"/>
<path d="M18.1572 55.5038V24.4964C18.1572 24.2223 18.3794 24 18.6535 24H15.3535C15.0794 24 14.8572 24.2222 14.8572 24.4964V55.5038C14.8572 55.7778 15.0794 56 15.3535 56H18.6535C18.3794 56 18.1572 55.7778 18.1572 55.5038Z" fill="#D6D6D8"/>
<path d="M47.8372 55.5051C47.8149 49.1898 47.9263 42.8693 47.8372 36.5543C47.883 33.5543 45.2962 30.8801 42.2087 30.8801H38.9087C41.9962 30.8801 44.5829 33.5543 44.5373 36.5543C44.6263 42.8693 44.5473 49.1898 44.5696 55.5051C44.5705 55.7787 44.7929 56 45.0665 56H48.3665C48.0929 56 47.8382 55.7787 47.8372 55.5051Z" fill="#D6D6D8"/>
<path d="M61.5858 55.5038V24.4964C61.5858 24.2223 61.808 24 62.0822 24H58.7822C58.5082 24 58.2858 24.2222 58.2858 24.4964V55.5038C58.2858 55.7778 58.508 56 58.7822 56H62.0822C61.808 56 61.5858 55.7778 61.5858 55.5038Z" fill="#D6D6D8"/>
<path d="M33.0145 55.5037V37.0678C33.0145 36.7937 33.2366 36.5715 33.5109 36.5715H30.2109C29.9366 36.5715 29.7144 36.7937 29.7144 37.0678V55.5037C29.7144 55.7778 29.9366 56 30.2109 56H33.5109C33.2366 56 33.0145 55.7778 33.0145 55.5037Z" fill="#D6D6D8"/>
</svg>
