<svg width="80" height="80" viewBox="0 0 80 80" fill="none" xmlns="http://www.w3.org/2000/svg">
<g clip-path="url(#clip0)">
<path d="M40.0138 53.2477C51.1075 53.2477 60.1038 44.2569 60.1038 33.1634C60.1038 22.1351 51.2558 13.0813 40.0138 13.0813C28.9207 13.0813 19.9295 22.0699 19.9295 33.1634C19.9295 44.2569 28.9207 53.2477 40.0138 53.2477Z" fill="#E85454"/>
<path d="M23.1491 33.1634C23.1491 22.6095 31.2872 13.9611 41.6309 13.1449C41.0979 13.1032 40.5587 13.0813 40.0138 13.0813C28.9207 13.0813 19.9295 22.0699 19.9295 33.1634C19.9295 44.2569 28.9207 53.2477 40.0138 53.2477C40.5559 53.2477 41.0926 53.2255 41.6237 53.1835C31.2833 52.3636 23.1491 43.715 23.1491 33.1634Z" fill="#D84848"/>
<path d="M6.00355 62.4553L5.30542 60.1209C5.27917 60.0331 5.19839 59.9729 5.10683 59.9729H2.04385C1.95181 59.9729 1.87088 60.0336 1.84494 60.1217L0.00852461 66.3683C-0.030538 66.5009 0.0688374 66.6337 0.206963 66.6341L1.87744 66.6372C1.96947 66.6373 2.05056 66.5769 2.07666 66.4887L2.91088 63.6687C2.97041 63.4676 3.25666 63.472 3.3101 63.6748L4.04963 66.483C4.07354 66.574 4.15588 66.6375 4.2501 66.6375H5.32886C5.38714 66.6375 5.44276 66.613 5.48198 66.57L7.96231 63.8515C8.10996 63.6897 8.37512 63.8378 8.31465 64.0484L7.6473 66.372C7.60918 66.5048 7.70918 66.637 7.84731 66.6365L10.1195 66.6287C10.2123 66.6284 10.2934 66.5666 10.3184 66.4772L12.0656 60.2231C12.1025 60.0909 12.0031 59.96 11.8659 59.96H8.6545C8.59387 59.96 8.53637 59.9865 8.497 60.0325L6.35964 62.5306C6.25292 62.6553 6.05058 62.6125 6.00355 62.4553Z" fill="#777777"/>
<path d="M23.7118 60.1231L23.2643 61.8712C23.229 62.009 23.3332 62.1432 23.4756 62.1432H25.7253C25.8665 62.1432 25.9704 62.2754 25.9371 62.4128L24.9751 66.3675C24.9417 66.5048 25.0459 66.6372 25.1873 66.637L27.3707 66.6339C27.47 66.6337 27.5565 66.5667 27.5814 66.4708L28.6686 62.2875C28.6936 62.1914 28.7803 62.1243 28.8795 62.1243H31.3906C31.492 62.1243 31.58 62.0543 31.6029 61.9556L32.0011 60.2399C32.0328 60.1034 31.9292 59.9729 31.789 59.9728L23.9234 59.9595C23.8237 59.959 23.7365 60.0265 23.7118 60.1231Z" fill="#777777"/>
<path d="M50.3411 59.9715C50.3347 59.9709 50.3294 59.9707 50.323 59.9707L46.0397 59.9729V59.9707H44.0622C43.9783 59.9707 43.9044 60.0265 43.8816 60.1073L42.0955 66.3942C42.0614 66.5142 42.1514 66.6334 42.2761 66.6334H44.3723C44.4562 66.6334 44.53 66.5778 44.553 66.497L45.04 64.7864C45.0631 64.7049 45.138 64.6492 45.2227 64.6499L47.062 64.6687C47.6892 64.6156 47.8053 64.9942 47.8255 65.0987C47.8285 65.1139 47.8294 65.1271 47.8285 65.1426C47.8239 65.2287 47.8024 65.6182 47.7667 66.0537C47.7242 66.554 48.2083 66.6281 48.2083 66.6281H50.5646C50.6961 66.6281 50.7841 66.4973 50.7396 66.3735C50.6835 66.2179 50.6766 66.0437 50.6766 65.9359C50.6766 65.7556 50.9627 65.3228 50.8832 64.7271C50.8036 64.1326 50.1736 64.0143 50.0941 63.9554C50.0139 63.8949 50.1164 63.7942 50.1164 63.7942C50.1164 63.7942 51.8053 63.2873 51.9891 61.6992C52.1605 60.177 50.4833 59.9851 50.3411 59.9715ZM48.5491 62.8079H45.9611C45.8388 62.8079 45.7491 62.6929 45.7789 62.5743L46.0419 61.5277H46.0395V61.5196H46.0439L46.0419 61.5279L48.813 61.5377C48.813 61.5377 49.3324 61.4985 49.2997 62.0571C49.2644 62.6251 48.7003 62.779 48.5878 62.8042C48.5749 62.8068 48.5625 62.8079 48.5491 62.8079Z" fill="#777777"/>
<path d="M67.2417 59.9707H64.9799C64.9172 59.9707 64.8625 60.0131 64.8467 60.0735L63.1799 66.4671C63.1572 66.5543 63.2228 66.6393 63.313 66.6393H69.7811C69.8435 66.6393 69.8982 66.5973 69.9141 66.537L70.3278 64.9759C70.351 64.8885 70.2852 64.8031 70.1949 64.8031H66.3624C66.2727 64.8031 66.2069 64.7185 66.2291 64.6315L67.3749 60.1421C67.3972 60.0552 67.3314 59.9707 67.2417 59.9707Z" fill="#777777"/>
<path d="M78.3928 59.9653H75.4694C75.4206 59.9653 75.3752 59.9896 75.3477 60.0299L71.0202 66.4072C70.9539 66.5049 71.0239 66.6369 71.142 66.6368L73.0271 66.6335C73.0761 66.6333 73.122 66.6088 73.1492 66.5679L73.8806 65.4682L73.892 65.4579H77.0994L77.1092 65.4807L77.3621 66.5247C77.378 66.5907 77.4371 66.6371 77.5049 66.6371H79.8528C79.9472 66.6371 80.0172 66.5493 79.9961 66.4572L78.5358 60.0794C78.5208 60.0127 78.4614 59.9653 78.3928 59.9653ZM76.6952 63.8903H74.9947L74.9566 63.8757L76.0811 62.2111C76.153 62.1049 76.3169 62.135 76.3461 62.26L76.7263 63.8872L76.6952 63.8903Z" fill="#777777"/>
<path d="M62.9106 62.2161C62.5373 60.3888 60.3741 59.7014 58.4182 59.7014C54.4043 59.7814 52.4029 62.4117 52.7758 64.3546C53.1487 66.2925 55.7819 67.333 58.7266 66.7628C61.4915 66.2328 63.3035 64.1041 62.9106 62.2161ZM58.7724 64.9591C57.6324 65.5232 55.903 65.3422 55.6998 64.1731C55.4785 62.8922 56.6173 61.3149 58.4079 61.4297C59.214 61.475 60.0052 61.8472 60.1274 62.427C60.5143 64.2817 58.5349 65.0758 58.7724 64.9591Z" fill="#777777"/>
<path d="M41.9054 62.2161C41.5321 60.3888 39.3689 59.7014 37.413 59.7014C36.893 59.7117 36.3066 59.7766 35.8341 59.867C33.8442 60.2495 31.3301 62.0611 31.7706 64.3546C32.1434 66.2925 34.7767 67.333 37.7214 66.7628C40.4861 66.2328 42.2983 64.1041 41.9054 62.2161ZM37.7671 64.9591C36.627 65.5232 34.8977 65.3422 34.6944 64.1731C34.5003 63.0494 35.3664 61.9425 36.0999 61.6788C36.701 61.4602 36.9349 61.3997 37.4024 61.4297C38.2085 61.475 38.9997 61.8472 39.1219 62.427C39.5089 64.2817 37.5296 65.0758 37.7671 64.9591Z" fill="#777777"/>
<path d="M22.5802 62.2161C22.2069 60.3888 20.0438 59.7014 18.0879 59.7014C17.5679 59.7117 16.9815 59.7766 16.509 59.867C14.5191 60.2495 12.005 62.0611 12.4455 64.3546C12.8183 66.2925 15.4516 67.333 18.3963 66.7628C21.161 66.2328 22.973 64.1041 22.5802 62.2161ZM18.4419 64.9591C17.3019 65.5232 15.5725 65.3422 15.3693 64.1731C15.1752 63.0494 16.0413 61.9425 16.7747 61.6788C17.3758 61.4602 17.6097 61.3997 18.0772 61.4297C18.8833 61.475 19.6746 61.8472 19.7968 62.427C20.1838 64.2817 18.2044 65.0758 18.4419 64.9591Z" fill="#777777"/>
<path d="M34.0252 19.8009C34.1227 19.4812 34.5755 19.482 34.6719 19.8018L39.9688 37.3745L40.0138 37.4083L40.0516 37.3745L45.349 19.8017C45.4454 19.4817 45.8982 19.481 45.9957 19.8006L52.8165 42.163C52.8828 42.38 52.7203 42.5994 52.4934 42.5994H51.85C51.6936 42.5994 51.5578 42.492 51.5214 42.3399C51.2947 41.3941 50.4422 38.077 49.1729 35.9706C48.3636 34.6239 47.1075 33.5222 45.4365 33.554C42.9429 33.5983 41.3543 36.8498 40.3191 39.1111C40.1985 39.3745 39.8252 39.3744 39.7048 39.1109C39.3026 38.2312 38.587 36.732 38.064 36.0015C36.7885 34.2211 35.7685 33.575 34.5885 33.554C32.9143 33.5222 31.6627 34.6239 30.8496 35.9678C29.5829 38.0767 28.7286 41.3944 28.5013 42.34C28.4647 42.492 28.3291 42.5994 28.1727 42.5994H27.5321C27.3052 42.5994 27.1427 42.38 27.2089 42.163L34.0252 19.8009Z" fill="#F2F2F2"/>
<path d="M34.0253 19.8013L27.2087 42.1635C27.1426 42.3805 27.3049 42.5999 27.532 42.5999H28.1726C28.329 42.5999 28.4646 42.4925 28.5012 42.3405C28.7285 41.3949 29.5827 38.0772 30.8495 35.9683C31.2724 35.2692 31.8149 34.6377 32.4729 34.1952L35.76 23.412L34.672 19.8024C34.5754 19.4824 34.1226 19.4817 34.0253 19.8013Z" fill="#D6D6D8"/>
<path d="M43.9015 34.0098L47.0966 23.4103L45.9957 19.8009C45.8982 19.4812 45.4455 19.482 45.349 19.802C44.0468 24.1218 41.1761 33.6447 40.0516 37.3748L40.0138 37.4086L39.9914 37.3919L39.5544 38.7863C39.6079 38.9011 39.6585 39.0106 39.7044 39.1113C39.8249 39.3747 40.1982 39.3747 40.3188 39.1114C41.3944 36.7617 41.8649 36.1117 42.2665 35.5914L42.2668 35.5923C42.7149 35.0109 43.2751 34.3936 43.9015 34.0098Z" fill="#D6D6D8"/>
</g>
<defs>
<clipPath id="clip0">
<rect width="80" height="80" fill="white"/>
</clipPath>
</defs>
</svg>
