<svg width="80" height="80" viewBox="0 0 80 80" fill="none" xmlns="http://www.w3.org/2000/svg">
<g clip-path="url(#clip0)">
<path d="M51.9128 12.6762C54.4609 9.59631 56.2517 5.41334 56.1619 1.15271C56.1467 0.437246 55.4941 -0.094004 54.7866 0.0139648C51.048 0.585215 46.8687 2.92662 44.2819 5.95522C41.8976 8.71193 39.7817 12.996 39.9408 17.2412C39.9647 17.8808 40.5051 18.3907 41.145 18.3726C45.2714 18.2558 49.3453 15.7849 51.9128 12.6762Z" fill="#D6D6D8"/>
<path d="M43.1605 17.2411C42.9138 10.6597 47.8792 2.9725 55.9389 0.494222C55.6859 0.146409 55.2486 -0.0565597 54.7867 0.0139091C51.0481 0.585159 46.8689 2.92657 44.282 5.95516C41.8978 8.71188 39.7817 12.9961 39.9409 17.2411C39.9648 17.8808 40.5053 18.3906 41.1452 18.3725C41.9453 18.3498 42.7433 18.2378 43.5288 18.0506C43.3123 17.8456 43.1723 17.5595 43.1605 17.2411Z" fill="#C2C2C4"/>
<path d="M71.8288 58.235C69.2383 56.9308 62.0892 52.43 62.0008 42.4484C61.9252 34.2777 67.3471 29.5266 69.6535 27.8677C70.201 27.4738 70.3213 26.703 69.905 26.1722C67.9886 23.7292 65.7478 22.1622 63.5953 21.1464C63.5966 21.1463 63.5982 21.1459 63.5994 21.1458C63.3207 21.0141 62.8433 20.805 62.4613 20.6545C51.63 16.3909 44.8041 22.9261 40.6692 22.9261C37.5035 22.9261 32.6183 19.3491 27.4424 19.4467C20.641 19.5455 14.3763 23.4033 10.8689 29.4908C5.48799 38.8305 7.26253 51.598 11.4549 61.5483C11.4549 61.5484 11.4547 61.5484 11.4547 61.5486C11.5621 61.8031 11.733 62.1992 11.8755 62.5191C11.8757 62.5188 11.8757 62.5186 11.8758 62.5183C13.0903 65.2458 14.4808 67.7383 15.9457 69.857C19.3092 74.7188 23.3219 80.1956 28.5942 79.9944C33.6688 79.7931 35.5872 76.7134 41.7197 76.7134C47.8483 76.7134 49.5771 79.9944 54.9427 79.8967C60.4047 79.7931 63.8635 74.9353 67.2041 70.0505C70.1442 65.7583 71.7663 61.5689 72.4163 59.6828C72.61 59.1206 72.3602 58.5025 71.8288 58.235Z" fill="#D6D6D8"/>
<path d="M19.1651 69.8572C17.7003 67.7385 16.3098 65.246 15.0953 62.5185C15.0951 62.5186 15.0951 62.5189 15.095 62.5193C14.9526 62.1996 14.7831 61.8068 14.6742 61.5488C14.6742 61.5488 14.6744 61.5486 14.6744 61.5485C10.5078 51.6597 8.68827 38.8636 14.0884 29.491C17.3276 23.8691 22.9189 20.1514 29.1125 19.5375C28.5603 19.4711 28.0033 19.4364 27.4425 19.4469C20.6411 19.5457 14.3764 23.4035 10.8691 29.491C5.48812 38.8307 7.26265 51.5982 11.455 61.5485C11.455 61.5486 11.4548 61.5488 11.4548 61.5488C11.5622 61.8033 11.7331 62.1994 11.8756 62.5193C11.8758 62.5189 11.8759 62.5188 11.8759 62.5185C13.0905 65.246 14.4809 67.7385 15.9456 69.8572C19.3092 74.7189 23.3219 80.1958 28.5942 79.9946C29.113 79.9739 29.5973 79.9221 30.058 79.8477C25.6348 78.9507 22.1448 74.1641 19.1651 69.8572Z" fill="#C2C2C4"/>
</g>
<defs>
<clipPath id="clip0">
<rect width="80" height="80" fill="white"/>
</clipPath>
</defs>
</svg>
