<svg width="80" height="80" viewBox="0 0 80 80" fill="none" xmlns="http://www.w3.org/2000/svg">
<g clip-path="url(#clip0)">
<path d="M79.8546 31.2652C79.58 30.8652 79.2532 30.591 77.8896 30.4872C77.5322 30.4597 76.3513 30.4211 74.3646 30.4211C69.1426 30.4211 65.5943 32.0053 63.7779 35.1331C64.2783 31.9866 61.2119 30.4119 54.5704 30.4119C46.7737 30.4119 41.9049 33.5516 39.9662 39.8302C39.2451 42.1653 39.1717 44.0776 39.7382 45.5722L37.8979 45.6959C28.2851 46.432 26.5101 45.3762 28.2634 39.6856C29.4539 35.8308 32.402 34.0956 37.1134 34.0956C39.5554 34.0906 41.9334 34.3524 41.9346 34.3524V34.3514C42.2621 34.331 42.407 33.9902 42.3706 33.7077L42.3232 33.3391L42.1562 32.0433C42.0457 31.1921 41.412 30.6867 40.2543 30.5305C39.196 30.4591 38.4084 30.4117 37.2496 30.4117C31.9303 30.4117 27.0647 31.9028 24.3108 36.4777C25.2022 32.4336 22.3551 30.4117 15.7594 30.4117C12.0936 30.4117 9.46468 30.515 7.87047 30.723C6.64813 30.8749 5.90313 31.3819 5.63328 32.2403L5.11141 33.905C5.01625 34.21 5.16313 34.3611 5.55438 34.3611L5.5661 34.3591C5.85578 34.3224 6.97188 34.2128 8.87781 34.06C12.9828 33.732 20.2039 32.9164 19.087 36.4822C18.9631 36.8845 18.6869 37.1339 18.2639 37.2305C14.8312 37.7991 12.1061 38.2097 10.0905 38.4581C4.4186 39.18 1.14157 40.9455 0.259075 43.7603C-0.951392 47.6284 2.08204 49.5633 9.35562 49.5633C12.9837 49.5633 16.0292 49.3506 18.4909 48.937C19.9094 48.6992 20.6283 48.3356 20.9134 47.4219L22.2661 43.1102C22.1253 47.4189 25.1475 49.5886 31.3376 49.5886C38.694 49.5886 39.5376 49.1272 39.9146 47.8383L40.1892 46.479C41.5079 48.535 44.4018 49.5631 48.869 49.5631C53.5802 49.5631 56.3279 49.4308 57.112 49.1681C57.7685 48.9594 58.1741 48.6203 58.3187 48.1489C58.3187 48.1489 58.2826 48.1826 58.9405 46.048C59.0391 45.73 58.8916 45.578 58.5049 45.5914C54.3912 45.7886 52.5437 45.9026 50.7629 45.9026C48.6217 45.9026 47.1529 45.7578 46.3496 45.4653C45.1584 45.0072 44.5918 44.0939 44.6457 42.7191L54.1976 41.4944C58.4788 40.9472 61.3432 39.6297 62.7938 37.5413L59.5573 48.813C59.4193 49.2895 59.7209 49.5325 60.2615 49.5325H64.2143C64.9051 49.5325 65.1518 49.1759 65.2377 48.8772L68.7316 36.7103C69.1915 35.1092 70.6641 34.3305 73.2332 34.3305C75.5521 34.3305 77.3 34.351 78.4182 34.392C78.448 34.3941 78.4764 34.3953 78.5047 34.3953C78.723 34.3953 79.1174 34.316 79.3133 33.7866L79.9272 32.116C80.0438 31.7936 80.0207 31.5078 79.8546 31.2652ZM16.1336 45.903C14.8984 46.0961 13.1261 46.1931 10.8105 46.1931C6.79297 46.1931 5.03563 45.3826 5.54453 43.7605C5.91 42.5967 6.96234 41.8967 8.71125 41.6612L17.8503 40.4336L16.1336 45.903ZM58.3755 36.0453C57.9912 37.2928 56.2024 38.1463 53.0145 38.6047L45.4007 39.6855L45.5935 39.0622C46.2237 37.0116 47.1215 35.613 48.279 34.871C49.4359 34.1302 51.3204 33.757 53.9315 33.757C57.3657 33.7572 58.846 34.522 58.3755 36.0453Z" fill="#72BE4F"/>
<path d="M5.55438 34.3614L5.5661 34.3594C5.82548 34.3264 6.7486 34.2351 8.30547 34.1069C8.2986 34.0494 8.30688 33.9822 8.33094 33.9051L8.85281 32.2405C9.12281 31.382 9.86766 30.875 11.09 30.7231C12.3292 30.5614 14.1967 30.4633 16.6875 30.4275C16.3859 30.418 16.0784 30.4119 15.7594 30.4119C12.0936 30.4119 9.46469 30.5151 7.87047 30.7231C6.64813 30.875 5.90313 31.382 5.63329 32.2405L5.11141 33.9051C5.01626 34.2101 5.16313 34.3614 5.55438 34.3614Z" fill="#66AF3F"/>
<path d="M50.6589 49.5561C50.6592 49.5561 50.6597 49.5561 50.66 49.5561C50.68 49.5559 50.6998 49.5558 50.7197 49.5554C50.892 49.5539 51.0614 49.5522 51.227 49.5503C51.23 49.5503 51.2331 49.5503 51.2361 49.5503C51.2375 49.5503 51.2389 49.5503 51.2401 49.5503C47.2533 49.4256 44.642 48.402 43.4086 46.4793C43.0375 45.7326 41.8784 44.0631 43.1856 39.8303C44.9988 33.9586 49.3748 30.8328 56.3114 30.4522C56.3101 30.452 56.3089 30.452 56.3076 30.452C52.7972 30.2824 49.0981 30.5984 45.9903 32.2339V32.2305C44.8183 32.8495 43.7947 33.6277 42.9175 34.5628V34.5652C41.5102 36.0681 40.5764 37.8547 39.9663 39.8303C39.2452 42.1655 39.1717 44.0778 39.7383 45.5723C40.1135 46.3097 40.6153 47.9064 43.5986 48.877C43.5988 48.8765 43.5989 48.8761 43.5991 48.8758C45.8536 49.6092 48.2702 49.5764 50.6589 49.5561Z" fill="#66AF3F"/>
<path d="M58.3755 36.0453C58.027 37.1761 56.5206 37.982 53.8683 38.4645L53.8717 38.4658C53.8717 38.4658 61.3255 37.5178 61.6676 35.7067C61.8239 34.4091 60.32 33.7572 57.1509 33.7572C56.5448 33.7572 55.9798 33.7781 55.452 33.8183C57.7948 34.0266 58.7694 34.77 58.3755 36.0453Z" fill="#66AF3F"/>
<path d="M62.7767 48.8134L66.0133 37.5417C66.5725 35.5944 66.9973 35.1331 66.9973 35.1331C68.697 32.2064 71.9131 30.6316 76.5978 30.4411C76.5968 30.4411 76.5958 30.4411 76.5948 30.4411C74.2867 30.3935 73.1433 30.418 71.987 30.5433C71.9811 30.5439 71.9753 30.5447 71.9695 30.5453C70.3253 30.7252 68.8892 31.1 67.6626 31.667C67.6625 31.6667 67.6622 31.6664 67.6619 31.666C65.9608 32.4524 64.6631 33.6089 63.778 35.1331L62.7939 37.5417L59.5573 48.8134C59.4194 49.29 59.7209 49.5329 60.2616 49.5329C61.4795 49.5329 62.2892 49.5329 63.4811 49.5329C62.9417 49.5328 62.6387 49.29 62.7767 48.8134Z" fill="#66AF3F"/>
<path d="M20.4107 40.1035L17.8501 40.4335L16.1332 45.9031L19.0257 45.531C19.0257 45.531 19.5059 45.4171 19.6471 44.969L20.9695 40.7713C21.0829 40.4113 20.7849 40.0553 20.4107 40.1035Z" fill="#66AF3F"/>
<path d="M3.30836 46.0763L3.30632 46.0765C3.23179 45.6668 3.13773 45.122 3.36273 44.1846C3.68304 42.4356 4.88257 39.9175 8.95131 38.6229C3.97867 39.429 1.08055 41.1396 0.25883 43.7603C-0.951636 47.6284 2.0818 49.5632 9.35538 49.5632C10.023 49.5632 10.6708 49.5559 11.299 49.5415C6.47054 49.3738 3.80789 48.2179 3.30836 46.0763Z" fill="#66AF3F"/>
<path d="M19.0871 36.4824C18.9632 36.8847 18.687 37.1341 18.264 37.2306C18.264 37.2306 22.2273 37.1091 22.414 35.6402C22.2977 34.3858 20.7343 33.7572 17.7182 33.7572C17.2123 33.7572 16.5954 33.7747 15.871 33.8091C18.5057 34.0241 19.5779 34.9152 19.0871 36.4824Z" fill="#66AF3F"/>
<path d="M25.4853 43.1104C26.38 35.1083 30.9789 30.9036 38.9925 30.4544C38.4318 30.4267 37.8793 30.4119 37.2493 30.4119C34.3101 30.4119 31.2537 30.8708 28.6661 32.2892L28.6659 32.2881C26.8439 33.2864 25.3914 34.6822 24.3104 36.4778L22.2656 43.1104C22.2015 45.071 22.7948 46.5871 24.0412 47.659C24.0411 47.6592 24.0411 47.6592 24.0411 47.6593C24.1854 47.7857 24.4347 47.9765 24.6664 48.1259C24.6665 48.1254 24.6667 48.1248 24.6669 48.1242C26.1776 49.0985 28.3995 49.5889 31.3372 49.5889C32.0901 49.5889 32.8307 49.5817 33.5351 49.567C28.0354 49.3348 25.3526 47.1746 25.4853 43.1104Z" fill="#66AF3F"/>
</g>
<defs>
<clipPath id="clip0">
<rect width="80" height="80" fill="white"/>
</clipPath>
</defs>
</svg>
