<svg width="80" height="80" viewBox="0 0 80 80" fill="none" xmlns="http://www.w3.org/2000/svg">
<path d="M16.2263 34.7571C15.8855 34.7579 15.6136 34.7566 15.4086 34.7766H11.1792C10.5783 34.7766 10.0892 35.2835 10.0892 35.9063C10.0892 36.5288 10.5781 37.0352 11.1792 37.0352H14.4628V37.9673C14.4628 38.468 12.6877 38.8043 11.8219 38.8043H6.14845C4.11641 38.8043 2.99735 38.4913 2.99735 37.9232V32.3943C2.99735 31.3129 7.74361 31.5421 8.40002 31.5421C9.14736 31.5421 9.55908 31.163 9.55908 30.4747C9.55908 29.7904 9.14752 29.4133 8.40002 29.4133H6.13704C4.75642 29.4133 3.47141 29.5975 2.31422 29.9619C0.778595 30.4727 0 31.2922 0 32.3982V37.9321C0 40.4204 3.63923 40.951 6.11783 40.951H11.8178C14.2203 40.951 17.4608 40.2988 17.4608 37.8951V35.7101C17.461 34.9762 16.9394 34.7571 16.2263 34.7571Z" fill="#C2C2C4"/>
<path d="M29.1553 31.717H25.1699C22.8078 31.717 19.4109 32.3958 19.4109 34.7508V37.9508C19.4109 40.3111 22.8378 40.9116 25.193 40.9116H29.1552C31.5507 40.9116 34.6824 40.3324 34.6824 37.9508V34.7331C34.6825 32.7317 32.8229 31.717 29.1553 31.717ZM31.785 34.602V37.9508C31.785 38.6188 29.8171 38.8052 29.086 38.8052H25.2161C24.4517 38.8052 22.285 38.6791 22.285 37.9508V34.7508C22.285 33.9869 24.3844 33.8039 25.193 33.8039H29.0858C30.8266 33.8039 31.785 34.0872 31.785 34.602Z" fill="#C2C2C4"/>
<path d="M62.4198 31.7163C60.5748 31.7163 59.256 31.8415 58.3914 32.098C56.8278 32.5358 56.0348 33.3971 56.0348 34.6582V39.9416C56.0348 40.5579 56.4278 40.9113 57.1129 40.9113C57.8812 40.9113 58.1078 40.877 58.2231 40.8459C58.6587 40.7209 58.9085 40.3912 58.9085 39.9416V34.6582C58.9085 33.6532 61.497 33.8226 62.2573 33.8226C63.3968 33.8226 63.567 33.2152 63.567 32.8532C63.5667 32.1204 63.1595 31.7166 62.4198 31.7163Z" fill="#C2C2C4"/>
<path d="M70.4875 31.7172C68.1331 31.7172 64.7292 32.3931 64.7292 34.7509V37.9509C64.7292 40.3123 68.1592 40.9117 70.5112 40.9117H74.4734C76.8584 40.9117 80 40.3367 80 37.9509V34.7333C80 31.1368 74.2553 31.7172 70.4875 31.7172ZM77.1028 34.6022V37.9509C77.1028 38.515 75.5477 38.8053 74.4037 38.8053H70.5328C69.6308 38.8053 67.6037 38.6522 67.6037 37.9509V34.7509C67.6037 33.987 69.7028 33.804 70.5112 33.804H74.4042C76.1444 33.804 77.1028 34.0873 77.1028 34.6022Z" fill="#C2C2C4"/>
<path d="M52.0052 29.7843C50.9484 29.4685 49.7062 29.3083 48.3135 29.3083H37.8169C36.8005 29.3083 36.6907 29.9737 36.6907 30.2598V39.8995C36.6907 40.5154 37.1011 40.8687 37.8169 40.8687C38.7388 40.8687 38.9118 40.8278 38.9833 40.8009C39.4432 40.6799 39.6861 40.3687 39.6861 39.8995V36.9046H48.1976C49.7576 36.9046 51.0434 36.7302 52.136 36.369C53.6132 35.8265 54.3623 34.9416 54.3623 33.7391V32.0087C54.3624 31.0093 53.5699 30.261 52.0052 29.7843ZM48.3365 34.7798H39.6861V31.434H48.3365C51.1485 31.434 51.3669 31.9877 51.3669 32.1576V33.6652C51.3669 34.5863 49.719 34.7798 48.3365 34.7798Z" fill="#C2C2C4"/>
<path d="M34.644 43.3872H43.5656C43.7401 43.3872 43.8815 43.5286 43.8815 43.7031V50.3761C43.8815 50.5507 43.7401 50.6921 43.5656 50.6921H34.644C34.4695 50.6921 34.3281 50.5507 34.3281 50.3761V43.7031C34.3281 43.5286 34.4695 43.3872 34.644 43.3872Z" fill="#579ADD"/>
<path d="M57.7665 43.3862H66.6876C66.8621 43.3862 67.0035 43.5276 67.0035 43.7022V50.3747C67.0035 50.5492 66.8621 50.6906 66.6876 50.6906H57.7665C57.592 50.6906 57.4506 50.5492 57.4506 50.3747V43.7022C57.4506 43.5276 57.592 43.3862 57.7665 43.3862Z" fill="#0964AF"/>
<path d="M78.5319 43.387H69.61C69.4355 43.387 69.2941 43.5284 69.2941 43.7029V50.3759C69.2941 50.5504 69.4355 50.6918 69.61 50.6918H71.3366C72.7578 50.6918 76.8489 50.6918 78.5319 50.6918C78.7064 50.6918 78.8478 50.5504 78.8478 50.3759V43.7029C78.8478 43.5285 78.7063 43.387 78.5319 43.387Z" fill="#D9ECF9"/>
<path d="M55.0892 43.387H53.3626H47.8939H46.1673C45.9928 43.387 45.8514 43.5284 45.8514 43.7029V50.3759C45.8514 50.5504 45.9928 50.6918 46.1673 50.6918H55.0892C55.2637 50.6918 55.4052 50.5504 55.4052 50.3759V43.7029C55.4052 43.5285 55.2637 43.387 55.0892 43.387Z" fill="#579ADD"/>
<path d="M37.5409 50.3759V43.7029C37.5409 43.5284 37.6823 43.387 37.8568 43.387H34.644C34.4695 43.387 34.3281 43.5284 34.3281 43.7029V50.3759C34.3281 50.5504 34.4695 50.6918 34.644 50.6918H37.8568C37.6823 50.692 37.5409 50.5504 37.5409 50.3759Z" fill="#4987CE"/>
<path d="M60.6634 50.3748V43.7022C60.6634 43.5276 60.8048 43.3862 60.9794 43.3862H57.7664C57.5918 43.3862 57.4504 43.5276 57.4504 43.7022V50.3748C57.4504 50.5494 57.5918 50.6908 57.7664 50.6908H60.9794C60.8048 50.6908 60.6634 50.5494 60.6634 50.3748Z" fill="#004F9C"/>
<path d="M72.5069 50.3759V43.7029C72.5069 43.5284 72.6483 43.387 72.8228 43.387H69.61C69.4355 43.387 69.2941 43.5284 69.2941 43.7029V50.3759C69.2941 50.5504 69.4355 50.6918 69.61 50.6918H71.3366H72.8228C72.6483 50.6918 72.5069 50.5504 72.5069 50.3759Z" fill="#BDDBF4"/>
<path d="M49.0642 50.3759V43.7029C49.0642 43.5284 49.2056 43.387 49.3801 43.387H47.8939H46.1673C45.9928 43.387 45.8514 43.5284 45.8514 43.7029V50.3759C45.8514 50.5504 45.9928 50.6918 46.1673 50.6918H49.3801C49.2056 50.6918 49.0642 50.5504 49.0642 50.3759Z" fill="#4987CE"/>
</svg>
