<svg width="80" height="80" viewBox="0 0 80 80" fill="none" xmlns="http://www.w3.org/2000/svg">
<path d="M73.3475 49.1693C69.114 49.1965 65.1051 49.2306 63.9873 49.1312C61.7259 48.9345 60.215 47.4553 60.0395 45.2785C59.9211 43.8498 59.9211 42.6662 60.0334 41.5398C60.2384 39.4203 62.0114 37.402 63.9873 37.3048C64.8861 37.2565 66.4061 37.2787 79.7756 37.3043C79.8986 37.3046 80 37.2049 80 37.0818V33.387C80 33.2642 79.8992 33.1646 79.7764 33.1645C66.9726 33.1503 65.4058 33.1088 63.814 33.1648C59.0944 33.3465 56.1304 36.7104 55.8744 41.4449C55.6811 44.826 55.7994 48.4479 58.2134 50.8934C59.6254 52.3307 61.7748 53.2414 63.8162 53.269C65.3698 53.2884 77.9497 53.2718 79.7786 53.2693C79.9014 53.2692 80 53.1696 80 53.0468V49.3545C80 49.2312 79.9009 49.1315 79.7778 49.132C78.8561 49.1357 75.2923 49.1509 73.3475 49.1693Z" fill="#72BE4F"/>
<path d="M28.2889 33.6091V37.3C28.2889 37.4228 28.3886 37.5225 28.5114 37.5225H37.9147C38.0375 37.5225 38.1372 37.6222 38.1372 37.745V52.9744C38.1372 53.0972 38.2369 53.1969 38.3597 53.1969H42.0716C42.1944 53.1969 42.2941 53.0972 42.2941 52.9744V37.745C42.2941 37.6222 42.3938 37.5225 42.5166 37.5225H51.9196C52.0424 37.5225 52.1421 37.4228 52.1421 37.3V33.6091C52.1421 33.4863 52.0424 33.3866 51.9196 33.3866H28.5114C28.3886 33.3866 28.2889 33.4861 28.2889 33.6091Z" fill="#72BE4F"/>
<path d="M23.9716 41.2083C23.9103 36.6148 20.4805 33.3888 16.0317 33.1523C14.6517 33.0743 9.21422 33.0996 7.93766 33.1523C6.40062 33.2174 5.22 33.619 4.49906 34.0404C4.35094 34.1269 4.16609 34.0224 4.16484 33.8508C4.15516 32.4733 4.15797 27.9929 4.15891 26.9429C4.15906 26.8199 4.05938 26.7213 3.93641 26.7213H0.2225C0.0996875 26.7213 0 26.821 0 26.9438V53.0466C0 53.1694 0.0996875 53.2691 0.2225 53.2691H3.92844C4.05188 53.2691 4.15187 53.1691 4.15094 53.0457C4.13984 51.4896 4.07812 42.3018 4.16312 41.219C4.32797 39.1163 5.92344 37.4635 7.95859 37.2862C9.59016 37.1466 14.4869 37.1846 16.0231 37.2883C18.1322 37.434 19.6898 39.0824 19.8123 41.3033C19.8491 42.0527 19.8169 51.4727 19.8112 53.0468C19.8108 53.1699 19.9106 53.2691 20.0338 53.2691H23.7494C23.8722 53.2691 23.9717 53.1699 23.9719 53.0471C23.9733 51.4766 23.9814 42.0833 23.9717 41.2085" fill="#72BE4F"/>
<path d="M66.4992 53.269C64.4578 53.2413 62.3084 52.3307 60.8964 50.8934C58.4823 48.4479 58.364 44.826 58.5573 41.4449C58.8134 36.7106 61.7773 33.3465 66.497 33.1648C66.8989 33.1507 67.2994 33.1427 67.879 33.1391C65.4678 33.1331 64.6437 33.1357 63.814 33.1648C59.0944 33.3465 56.1304 36.7104 55.8744 41.4449C55.6811 44.826 55.7994 48.4479 58.2134 50.8934C59.6254 52.3307 61.7747 53.2413 63.8162 53.269C64.4826 53.2773 67.1786 53.279 70.1842 53.2781C68.3706 53.2773 66.9565 53.2748 66.4992 53.269Z" fill="#66AF3F"/>
<path d="M40.8201 52.9747V37.7453C40.8201 37.6225 40.7205 37.5228 40.5976 37.5228H37.9147C38.0376 37.5228 38.1372 37.6225 38.1372 37.7453V52.9747C38.1372 53.0975 38.2369 53.1972 38.3597 53.1972H41.0426C40.9197 53.1972 40.8201 53.0975 40.8201 52.9747Z" fill="#66AF3F"/>
<path d="M30.9719 37.3V33.6091C30.9719 33.4863 31.0716 33.3866 31.1944 33.3866H28.5114C28.3885 33.3866 28.2889 33.4863 28.2889 33.6091V37.3C28.2889 37.4229 28.3886 37.5225 28.5114 37.5225H31.1944C31.0716 37.5225 30.9719 37.4229 30.9719 37.3Z" fill="#66AF3F"/>
<path d="M2.68297 53.0466V26.9438C2.68297 26.821 2.78266 26.7213 2.90547 26.7213H0.2225C0.0995313 26.7213 0 26.821 0 26.9438V53.0466C0 53.1694 0.0996875 53.2691 0.2225 53.2691H2.90547C2.7825 53.2691 2.68297 53.1694 2.68297 53.0466Z" fill="#66AF3F"/>
<path d="M22.4942 53.0467C22.4998 51.4727 22.532 42.0527 22.4953 41.3033C22.3728 39.0822 20.8153 37.4339 18.7062 37.2883C17.665 37.218 15.0807 37.178 13.015 37.2028C14.271 37.2163 15.4128 37.2471 16.0232 37.2883C18.1323 37.4339 19.6898 39.0824 19.8123 41.3033C19.849 42.0527 19.8168 51.4727 19.8112 53.0467C19.8107 53.1699 19.9104 53.2691 20.0337 53.2691H22.7167C22.5935 53.2691 22.4937 53.1699 22.4942 53.0467Z" fill="#66AF3F"/>
</svg>
