<svg width="80" height="80" viewBox="0 0 80 80" fill="none" xmlns="http://www.w3.org/2000/svg">
<g clip-path="url(#clip0)">
<path d="M79.951 33.0031C78.301 23.4867 38.4919 24.9781 13.4628 35.5073L11.4738 36.3798C3.91956 39.8436 -0.520756 43.6914 0.048931 46.9964C1.70909 56.5797 41.8788 54.9659 66.7617 44.397L69.7291 43.0509C76.5483 39.737 80.4905 36.1294 79.951 33.0031Z" fill="#0964AF"/>
<path d="M4.15862 46.9963C3.58893 43.6913 8.02924 39.8433 15.5835 36.3797L17.5725 35.5072C30.0077 30.2761 47.3286 26.9694 61.2325 26.6674C46.3757 26.3255 26.8767 29.8644 13.4628 35.5072L11.4738 36.3797C3.91956 39.8435 -0.520756 43.6913 0.048931 46.9963C0.800493 51.3347 9.98627 53.6124 22.8663 53.3322C12.1778 53.086 4.82752 50.8575 4.15862 46.9963Z" fill="#004F9C"/>
<path d="M66.9651 39.6595V40.4703C66.9651 40.6032 67.0729 40.711 67.2059 40.711H67.6678C67.7565 40.711 67.8286 40.7831 67.8286 40.8718V41.9392C67.8326 42.049 67.8261 42.1671 67.8082 42.2615C67.7725 42.491 67.5568 42.8793 66.944 42.8793C66.3337 42.8793 66.122 42.491 66.0839 42.2615C66.0684 42.1671 66.061 42.0492 66.061 41.9392V38.0628C66.061 37.9245 66.0709 37.7756 66.1001 37.6632C66.1417 37.4565 66.324 37.0479 66.9392 37.0479C67.5846 37.0479 67.745 37.4768 67.7807 37.6632C67.8059 37.7845 67.8084 37.9896 67.8084 37.9896V38.2417C67.8084 38.3618 67.9057 38.4592 68.0259 38.4592H69.6596C69.81 38.4592 69.9318 38.3373 69.9318 38.187V38.1809C69.9318 38.1809 69.9407 37.8904 69.9156 37.6193C69.7568 36.0282 68.4531 35.527 66.9564 35.527C65.4589 35.527 64.182 36.034 63.9964 37.6193C63.9801 37.7657 63.954 38.027 63.954 38.1809V41.7479C63.954 41.9017 63.9581 42.0221 63.9865 42.307C64.1192 43.7873 65.3489 44.3521 66.7618 44.397L69.7292 43.0509C69.8268 42.8343 69.892 42.587 69.9196 42.307C69.9425 42.0221 69.9448 41.9017 69.9506 41.7479V39.6692C69.9506 39.5613 69.8632 39.474 69.7554 39.474H67.1509C67.0482 39.4738 66.9651 39.557 66.9651 39.6595Z" fill="#F2F2F2"/>
<path d="M16.9778 41.2407C16.6237 39.4592 13.423 38.9334 13.1828 37.9398C13.1437 37.7697 13.1526 37.589 13.1747 37.4954C13.234 37.2245 13.4156 36.9232 13.9455 36.9232C14.4411 36.9232 14.7317 37.2325 14.7317 37.6948V38.0336C14.7317 38.1359 14.8147 38.219 14.9172 38.219H16.5698C16.7165 38.219 16.8355 38.1001 16.8355 37.9534V37.6217C16.8355 35.7792 15.1817 35.4845 13.9878 35.4845C13.808 35.4845 13.6322 35.4911 13.4628 35.5073L11.4737 36.3798C11.2564 36.6418 11.1067 36.9657 11.0415 37.3687C10.9797 37.7495 10.9698 38.0832 11.0586 38.5122C11.4231 40.2448 14.4222 40.7486 14.8584 41.844C14.9398 42.0492 14.9137 42.3096 14.8739 42.47C14.8047 42.7565 14.6142 43.0429 14.0503 43.0429C13.5245 43.0429 13.208 42.7353 13.208 42.2721L13.2053 41.6251C13.205 41.5315 13.129 41.4559 13.0355 41.4559H11.1698C11.0442 41.4559 10.9423 41.5578 10.9423 41.6834V42.1045C10.9423 44 12.4228 44.5704 14.0073 44.5704C15.5325 44.5704 16.785 44.0487 16.9884 42.6293C17.0901 41.8984 17.0136 41.4198 16.9778 41.2407Z" fill="#F2F2F2"/>
<path d="M22.99 44.0591L21.9258 36.7886C21.9157 36.7195 21.8161 36.7194 21.8058 36.7884L20.7116 44.0836C20.6986 44.1706 20.6238 44.2349 20.5358 44.2349H18.5796C18.4919 44.2349 18.4257 44.1553 18.4415 44.0691L19.9255 36.0142C19.9533 35.8634 20.0849 35.7539 20.2382 35.7539H23.501C23.6294 35.7539 23.7396 35.8456 23.7629 35.972L25.2471 44.0619C25.2636 44.1519 25.1944 44.235 25.1029 44.235H23.193C23.0913 44.2347 23.0049 44.16 22.99 44.0591Z" fill="#F2F2F2"/>
<path d="M34.2244 43.9585L34.1716 36.7838C34.1713 36.7376 34.1042 36.7316 34.096 36.7771L32.7499 44.0602C32.7311 44.1613 32.643 44.2348 32.5402 44.2348H30.8428C30.6894 44.2348 30.5578 44.1252 30.5299 43.9743L29.2089 36.819C29.1997 36.7687 29.1256 36.7752 29.1253 36.8263L29.0721 44.0666C29.0714 44.1596 28.9958 44.2348 28.9027 44.2348H27.1852C27.0628 44.2348 26.9642 44.1341 26.9669 44.0118L27.1406 36.0029C27.1436 35.8644 27.2567 35.7537 27.3953 35.7537H30.3503C30.4863 35.7537 30.602 35.8524 30.6236 35.9866L31.568 41.868C31.5831 41.9621 31.7183 41.9621 31.7335 41.868L32.6808 35.9682C32.7006 35.8446 32.8072 35.7538 32.9324 35.7538H35.9697C36.0706 35.7538 36.1531 35.8344 36.1553 35.9354L36.3344 43.9429C36.338 44.103 36.2091 44.2349 36.0489 44.2349H34.5028C34.3499 44.2348 34.2256 44.1115 34.2244 43.9585Z" fill="#F2F2F2"/>
<path d="M44.385 42.6047C44.1856 44.0086 42.9412 44.5238 41.4331 44.5238C39.8608 44.5238 38.3998 43.9597 38.3998 42.0855V41.6149C38.3998 41.5171 38.4792 41.4377 38.577 41.4377H40.4301C40.5458 41.4377 40.6397 41.5314 40.6397 41.6472V42.2516C40.6397 42.7089 40.9562 43.0125 41.4804 43.0125C42.0412 43.0125 42.2292 42.73 42.2936 42.4485C42.3326 42.2922 42.3537 42.0302 42.2781 41.825C41.8484 40.7418 38.8795 40.2438 38.5181 38.5289C38.4245 38.1049 38.4384 37.7721 38.497 37.3985C38.7209 36.0255 39.9334 35.5322 41.4179 35.5322C42.5997 35.5322 44.2281 35.8186 44.2281 37.6474V38.0019C44.2281 38.131 44.1234 38.2357 43.9944 38.2357H42.3639C42.2447 38.2357 42.1481 38.1391 42.1481 38.0199V37.7182C42.1481 37.2616 41.8625 36.9555 41.3758 36.9555C40.8533 36.9555 40.6717 37.2518 40.6098 37.5228C40.5903 37.6147 40.5814 37.793 40.6179 37.9624C40.8579 38.9422 44.0215 39.4713 44.3698 41.2308C44.4076 41.4075 44.4794 41.8796 44.385 42.6047Z" fill="#F2F2F2"/>
<path d="M52.2979 42.3939C52.1482 43.9784 50.9079 44.492 49.3541 44.492C47.8021 44.492 46.561 43.9784 46.4144 42.3939C46.4047 42.3092 46.3933 41.9901 46.3957 41.8341V36.0795C46.3957 35.8997 46.5415 35.7539 46.7213 35.7539H48.2329C48.3958 35.7539 48.528 35.8861 48.528 36.0491V42.0286C48.5239 42.1369 48.528 42.2614 48.5491 42.3509C48.5899 42.5609 48.7721 42.9662 49.3539 42.9662C49.9424 42.9662 50.119 42.5609 50.1638 42.3509C50.1825 42.2614 50.1866 42.1369 50.1825 42.0286V36.0139C50.1825 35.8703 50.2989 35.7539 50.4425 35.7539H52.0244C52.1847 35.7539 52.3147 35.8839 52.3147 36.0442V41.8341C52.3239 41.9901 52.3108 42.3092 52.2979 42.3939Z" fill="#F2F2F2"/>
<path d="M61.4739 44.1461H58.9331C58.8187 44.1461 58.7178 44.0712 58.6846 43.9617L56.747 37.5665C56.7242 37.4911 56.6128 37.5086 56.6142 37.5873L56.7217 43.8733C56.7242 44.0231 56.6035 44.1459 56.4537 44.1459H54.9215C54.7749 44.1459 54.656 44.027 54.656 43.8804V36.0358C54.656 35.8798 54.7825 35.7536 54.9382 35.7536H57.5081C57.6728 35.7536 57.8178 35.8623 57.8637 36.0204L59.679 42.2625C59.6935 42.3123 59.7671 42.3012 59.7664 42.2494L59.6635 36.0422C59.6609 35.8836 59.7889 35.7534 59.9474 35.7534H61.5279C61.6468 35.7534 61.7431 35.8498 61.7431 35.9686V43.8769C61.7426 44.0258 61.6223 44.1461 61.4739 44.1461Z" fill="#F2F2F2"/>
</g>
<defs>
<clipPath id="clip0">
<rect width="80" height="80" fill="white"/>
</clipPath>
</defs>
</svg>
