<svg width="32" height="32" viewBox="0 0 32 32" fill="none" xmlns="http://www.w3.org/2000/svg">
<path d="M22.4082 24.9231C21.6667 24.6581 20.823 24.4451 19.9117 24.2876C20.4957 23.6019 21.1179 22.8416 21.7426 22.0294C25.1891 17.5485 26.9366 13.8164 26.9366 10.9367C26.9365 4.90619 22.0304 0 15.9999 0C9.96942 0 5.06329 4.90619 5.06329 10.9366C5.06329 13.8326 6.81092 17.5698 10.2577 22.0444C10.8795 22.8517 11.4987 23.6071 12.0804 24.2887C11.172 24.4461 10.331 24.6588 9.59167 24.923C6.99167 25.8521 6.44592 27.1 6.44592 27.9832C6.44592 28.8664 6.99167 30.1143 9.59167 31.0434C11.3177 31.6602 13.5936 32 15.9999 32C18.4062 32 20.6821 31.6602 22.4082 31.0434C25.0082 30.1143 25.5539 28.8664 25.5539 27.9832C25.5539 27.1 25.0082 25.8522 22.4082 24.9231ZM6.93829 10.9366C6.93829 5.94006 11.0033 1.875 15.9999 1.875C20.9965 1.875 25.0615 5.94006 25.0615 10.9366C25.0615 13.3548 23.4046 16.7893 20.2699 20.8686C18.5926 23.0514 16.897 24.8834 15.9986 25.8177C15.1032 24.8898 13.4174 23.0739 11.743 20.9002C8.59973 16.8196 6.93829 13.3742 6.93829 10.9366ZM21.7772 29.2778C20.2485 29.8241 18.1967 30.125 15.9999 30.125C13.8032 30.125 11.7514 29.8241 10.2226 29.2778C8.83717 28.7826 8.32092 28.2209 8.32092 27.9832C8.32092 27.7454 8.83723 27.1838 10.2226 26.6887C11.1675 26.3511 12.3128 26.1079 13.568 25.9709C14.5867 27.0829 15.2912 27.7721 15.3456 27.8252L16.0012 28.4642L16.6555 27.8239C16.7099 27.7708 17.4114 27.0816 18.4265 25.9707C19.6839 26.1074 20.8311 26.3506 21.7773 26.6887C23.1627 27.1838 23.679 27.7454 23.679 27.9832C23.679 28.2209 23.1627 28.7826 21.7772 29.2778Z" fill="#ED1B24"/>
<path d="M21.9144 10.9367C21.9144 7.67543 19.2613 5.02225 16 5.02225C12.7388 5.02225 10.0856 7.67543 10.0856 10.9367C10.0856 14.1979 12.7388 16.8511 16 16.8511C19.2613 16.8511 21.9144 14.1979 21.9144 10.9367ZM11.9606 10.9367C11.9606 8.70931 13.7727 6.89725 16 6.89725C18.2274 6.89725 20.0394 8.70931 20.0394 10.9367C20.0394 13.1641 18.2274 14.9761 16 14.9761C13.7727 14.9761 11.9606 13.1641 11.9606 10.9367Z" fill="#ED1B24"/>
</svg>
