<svg width="82" height="82" viewBox="0 0 82 82" fill="none" xmlns="http://www.w3.org/2000/svg">
<circle cx="41" cy="41" r="41" fill="#2B2B2B"/>
<path d="M70.7827 57.1629C70.4848 56.865 70.0716 56.6936 69.6504 56.6936C69.2292 56.6936 68.816 56.8648 68.5181 57.1629C68.2202 57.4609 68.0488 57.8738 68.0488 58.2952C68.0488 58.718 68.2202 59.1296 68.5181 59.4273C68.816 59.7268 69.2292 59.8967 69.6504 59.8967C70.0716 59.8967 70.4832 59.7268 70.7827 59.4273C71.0806 59.1296 71.252 58.7164 71.252 58.2952C71.252 57.8738 71.0806 57.4608 70.7827 57.1629Z" fill="#ED1B24"/>
<path d="M49.019 10.7193C48.7211 10.4214 48.3079 10.25 47.8867 10.25C47.4655 10.25 47.0523 10.4214 46.7544 10.7193C46.4565 11.0171 46.2852 11.4304 46.2852 11.8516C46.2852 12.2728 46.4565 12.686 46.7544 12.9839C47.0523 13.2818 47.4655 13.4531 47.8867 13.4531C48.3079 13.4531 48.7211 13.2818 49.019 12.9839C49.3169 12.686 49.4883 12.2728 49.4883 11.8516C49.4883 11.4304 49.3169 11.0171 49.019 10.7193Z" fill="#ED1B24"/>
<path d="M30.277 74.4727H30.2618C29.3772 74.4727 28.6678 75.1898 28.6678 76.0742C28.6678 76.9586 29.3923 77.6758 30.2768 77.6758C31.1614 77.6758 31.8784 76.9586 31.8784 76.0742C31.8784 75.1898 31.1615 74.4727 30.277 74.4727Z" fill="#ED1B24"/>
<path d="M33.6328 5.125H26.9062C26.0217 5.125 25.3047 5.84202 25.3047 6.72656C25.3047 7.61111 26.0217 8.32812 26.9062 8.32812H33.6328C34.5174 8.32812 35.2344 7.61111 35.2344 6.72656C35.2344 5.84202 34.5174 5.125 33.6328 5.125Z" fill="#ED1B24"/>
<path d="M72.8632 37.2892V31.8695C72.8632 23.7493 66.257 17.143 58.1367 17.143C57.4854 17.143 56.8441 17.186 56.2148 17.2684V6.72656C56.2148 3.0175 53.1973 0 49.4883 0H11.0508C7.34172 0 4.32422 3.0175 4.32422 6.72656V75.2734C4.32422 78.9825 7.34172 82 11.0508 82H49.4883C53.1973 82 56.2148 78.9825 56.2148 75.2734V71.75H70.9492C74.6583 71.75 77.6758 68.7325 77.6758 65.0234V42.5674C77.6758 39.8091 75.558 37.5369 72.8632 37.2892ZM71.6933 40.4688L62.4073 49.7548C62.3982 49.7639 62.3906 49.7737 62.3818 49.783H55.3104L64.6245 40.4688H64.6991H71.2617H71.6933ZM52.8463 40.5903C52.8854 40.5512 52.9219 40.5107 52.9561 40.4688H60.0946L50.7806 49.783H43.6538L52.8463 40.5903ZM41.8008 47.1058V42.5676C41.8008 41.4103 42.7422 40.4688 43.8995 40.4688H45.0118H48.4378L41.8008 47.1058ZM53.1759 37.2656V31.8695C53.1759 29.134 55.4014 26.9085 58.1369 26.9085C60.8723 26.9085 63.0979 29.134 63.0979 31.8695V37.2656H63.0977H53.1759ZM58.1364 20.3461C64.4904 20.3461 69.6601 25.5155 69.6601 31.8695V37.2656H66.3007V31.8695C66.3007 27.3678 62.6382 23.7054 58.1366 23.7054C53.6349 23.7054 49.9724 27.3678 49.9724 31.8695V37.2656H46.613V31.8695C46.613 25.5155 51.7824 20.3461 58.1364 20.3461ZM53.0117 75.2734C53.0117 77.2163 51.4311 78.7969 49.4883 78.7969H11.0508C9.10793 78.7969 7.52734 77.2163 7.52734 75.2734V71.75H35.3945C36.2791 71.75 36.9961 71.0328 36.9961 70.1484C36.9961 69.2641 36.2791 68.5469 35.3945 68.5469H7.52734V13.4531H41.8541C42.7387 13.4531 43.4557 12.7361 43.4557 11.8516C43.4557 10.967 42.7387 10.25 41.8541 10.25H7.52734V6.72656C7.52734 4.78371 9.10793 3.20312 11.0508 3.20312H49.4883C51.4311 3.20312 53.0117 4.78371 53.0117 6.72656V18.0634C47.4107 20.1493 43.4102 25.5507 43.4102 31.8695V37.2892C40.7154 37.5369 38.5977 39.8091 38.5977 42.5674V52.8516H16.1758V45.8047H33.7129C34.5974 45.8047 35.3145 45.0875 35.3145 44.2031C35.3145 43.3187 34.5974 42.6016 33.7129 42.6016H14.5742C13.6897 42.6016 12.9727 43.3187 12.9727 44.2031V54.4531C12.9727 55.3375 13.6897 56.0547 14.5742 56.0547H38.5977V65.0234C38.5977 68.7325 41.6152 71.75 45.3242 71.75H53.0117V75.2734ZM74.4727 65.0234C74.4727 66.8644 73.0532 68.3792 71.2514 68.5331V64.0888C71.2514 63.2044 70.5344 62.4872 69.6499 62.4872C68.7653 62.4872 68.0483 63.2044 68.0483 64.0888V68.5469H45.3242C43.3814 68.5469 41.8008 66.9663 41.8008 65.0234V52.9861H74.4727V65.0234ZM74.4727 49.783H66.9091L74.4454 42.2465C74.4616 42.3514 74.4727 42.4581 74.4727 42.5674V49.783Z" fill="#ED1B24"/>
<path d="M58.1367 56.6943C57.2522 56.6943 56.5352 57.4115 56.5352 58.2959V61.9081C56.5352 62.7924 57.2522 63.5096 58.1367 63.5096C59.0213 63.5096 59.7383 62.7924 59.7383 61.9081V58.2959C59.7383 57.4115 59.0213 56.6943 58.1367 56.6943Z" fill="#ED1B24"/>
<path d="M40.5729 24.3438H14.5742C13.6897 24.3438 12.9727 25.0608 12.9727 25.9453V36.1953C12.9727 37.0799 13.6897 37.7969 14.5742 37.7969H33.2449C34.1295 37.7969 34.8465 37.0799 34.8465 36.1953C34.8465 35.3108 34.1295 34.5938 33.2449 34.5938H16.1758V27.5469H40.5729C41.4574 27.5469 42.1744 26.8299 42.1744 25.9453C42.1744 25.0608 41.4574 24.3438 40.5729 24.3438Z" fill="#ED1B24"/>
<path d="M28.4118 48.1958C28.114 47.8979 27.7008 47.7266 27.2795 47.7266C26.8567 47.7266 26.4451 47.8978 26.1472 48.1958C25.8493 48.4939 25.678 48.9069 25.678 49.3281C25.678 49.7493 25.8493 50.1625 26.1472 50.4603C26.4451 50.7582 26.8583 50.9297 27.2795 50.9297C27.7008 50.9297 28.114 50.7583 28.4118 50.4603C28.7097 50.1625 28.8811 49.7493 28.8811 49.3281C28.8811 48.9069 28.7097 48.4937 28.4118 48.1958Z" fill="#ED1B24"/>
<path d="M34.3777 48.1958C34.0798 47.8979 33.6666 47.7266 33.2454 47.7266C32.8225 47.7266 32.4109 47.8978 32.1131 48.1958C31.8152 48.4939 31.6438 48.9069 31.6438 49.3281C31.6438 49.7493 31.8152 50.1625 32.1131 50.4603C32.4109 50.7582 32.8242 50.9297 33.2454 50.9297C33.6666 50.9297 34.0798 50.7583 34.3777 50.4603C34.6756 50.1625 34.8469 49.7493 34.8469 49.3281C34.8469 48.9069 34.6756 48.4937 34.3777 48.1958Z" fill="#ED1B24"/>
<path d="M22.446 48.1958C22.1481 47.8979 21.7349 47.7266 21.3137 47.7266C20.8909 47.7266 20.4793 47.8978 20.1814 48.1958C19.8835 48.4939 19.7121 48.9069 19.7121 49.3281C19.7121 49.7493 19.8835 50.1625 20.1814 50.4603C20.4793 50.7582 20.8925 50.9297 21.3137 50.9297C21.7349 50.9297 22.1481 50.7583 22.446 50.4603C22.7439 50.1625 22.9153 49.7493 22.9153 49.3281C22.9153 48.9069 22.7439 48.4937 22.446 48.1958Z" fill="#ED1B24"/>
<path d="M28.4118 29.938C28.114 29.6401 27.7008 29.4688 27.2795 29.4688C26.8583 29.4688 26.4451 29.6401 26.1472 29.938C25.8477 30.2359 25.678 30.6491 25.678 31.0703C25.678 31.4915 25.8477 31.9047 26.1472 32.2026C26.4451 32.5005 26.8567 32.6719 27.2795 32.6719C27.7008 32.6719 28.114 32.5005 28.4118 32.2026C28.7097 31.9047 28.8811 31.4915 28.8811 31.0703C28.8811 30.6491 28.7097 30.2359 28.4118 29.938Z" fill="#ED1B24"/>
<path d="M34.3777 29.938C34.0798 29.6401 33.6666 29.4688 33.2454 29.4688C32.8242 29.4688 32.4109 29.6401 32.1131 29.938C31.8136 30.2359 31.6438 30.6491 31.6438 31.0703C31.6438 31.4915 31.8136 31.9047 32.1131 32.2026C32.4109 32.5005 32.8225 32.6719 33.2454 32.6719C33.6666 32.6719 34.0798 32.5005 34.3777 32.2026C34.6756 31.9047 34.8469 31.4915 34.8469 31.0703C34.8469 30.6491 34.6756 30.2359 34.3777 29.938Z" fill="#ED1B24"/>
<path d="M40.3435 29.938C40.0456 29.6401 39.6324 29.4688 39.2112 29.4688C38.79 29.4688 38.3768 29.6401 38.0789 29.938C37.7794 30.2359 37.6096 30.6491 37.6096 31.0703C37.6096 31.4915 37.7794 31.9047 38.0789 32.2026C38.3768 32.5005 38.7884 32.6719 39.2112 32.6719C39.6324 32.6719 40.0456 32.5005 40.3435 32.2026C40.6414 31.9047 40.8127 31.4915 40.8127 31.0703C40.8127 30.6491 40.6414 30.2359 40.3435 29.938Z" fill="#ED1B24"/>
<path d="M22.446 29.938C22.1481 29.6401 21.7349 29.4688 21.3137 29.4688C20.8925 29.4688 20.4793 29.6401 20.1814 29.938C19.8835 30.2359 19.7121 30.6491 19.7121 31.0703C19.7121 31.4915 19.8835 31.9047 20.1814 32.2026C20.4793 32.5005 20.8909 32.6719 21.3137 32.6719C21.7349 32.6719 22.1481 32.5005 22.446 32.2026C22.7439 31.9047 22.9153 31.4915 22.9153 31.0703C22.9153 30.6491 22.7439 30.2359 22.446 29.938Z" fill="#ED1B24"/>
</svg>
