<svg width="82" height="82" viewBox="0 0 82 82" fill="none" xmlns="http://www.w3.org/2000/svg">
<circle cx="41" cy="41" r="41" fill="#2B2B2B"/>
<path d="M81.5218 16.9057C81.3946 16.7489 81.2343 16.6222 81.0523 16.5348C80.8704 16.4474 80.6713 16.4013 80.4694 16.4H79.2668V1.36667C79.2668 1.0042 79.1228 0.656587 78.8665 0.400287C78.6102 0.143988 78.2626 0 77.9001 0H50.5668C50.2043 0 49.8567 0.143988 49.6004 0.400287C49.3441 0.656587 49.2001 1.0042 49.2001 1.36667V16.4H47.9974C47.7956 16.4013 47.5965 16.4474 47.4145 16.5348C47.2326 16.6222 47.0723 16.7489 46.9451 16.9057C46.8157 17.0639 46.7239 17.2494 46.6765 17.4483C46.6292 17.6471 46.6276 17.8541 46.6718 18.0537L47.8608 23.5203C47.9265 23.8265 48.0954 24.1008 48.3392 24.2973C48.583 24.4939 48.8869 24.6007 49.2001 24.6H79.2668C79.5799 24.6007 79.8838 24.4939 80.1276 24.2973C80.3714 24.1008 80.5403 23.8265 80.6061 23.5203L81.7951 18.0537C81.8393 17.8541 81.8377 17.6471 81.7903 17.4483C81.743 17.2494 81.6512 17.0639 81.5218 16.9057V16.9057ZM51.9334 2.73333H76.5334V16.4H66.9668C66.6043 16.4 66.2567 16.544 66.0004 16.8003C65.7441 17.0566 65.6001 17.4042 65.6001 17.7667H62.8668C62.8668 17.4042 62.7228 17.0566 62.4665 16.8003C62.2102 16.544 61.8626 16.4 61.5001 16.4H51.9334V2.73333ZM78.1734 21.8667H50.2934L49.7058 19.1333H60.1334C60.1334 19.4958 60.2774 19.8434 60.5337 20.0997C60.79 20.356 61.1376 20.5 61.5001 20.5H66.9668C67.3292 20.5 67.6769 20.356 67.9332 20.0997C68.1895 19.8434 68.3334 19.4958 68.3334 19.1333H78.7611L78.1734 21.8667Z" fill="#ED1B24"/>
<path d="M25.9667 54.6665H4.1C3.01361 54.6697 1.97264 55.1028 1.20445 55.8709C0.43625 56.6391 0.00324459 57.6801 0 58.7665V72.4332C0.00324459 73.5196 0.43625 74.5605 1.20445 75.3287C1.97264 76.0969 3.01361 76.5299 4.1 76.5332H9.27967L8.364 80.3052C8.31092 80.5067 8.30552 80.7179 8.34822 80.9219C8.39092 81.1259 8.48055 81.3171 8.61 81.4805C8.7387 81.6434 8.90282 81.7748 9.08989 81.8648C9.27696 81.9548 9.48208 82.001 9.68967 81.9998H20.377C20.5846 82.001 20.7897 81.9548 20.9768 81.8648C21.1638 81.7748 21.328 81.6434 21.4567 81.4805C21.5861 81.3171 21.6757 81.1259 21.7184 80.9219C21.7611 80.7179 21.7557 80.5067 21.7027 80.3052L20.787 76.5332H25.9667C27.0531 76.5299 28.094 76.0969 28.8622 75.3287C29.6304 74.5605 30.0634 73.5196 30.0667 72.4332V58.7665C30.0634 57.6801 29.6304 56.6391 28.8622 55.8709C28.094 55.1028 27.0531 54.6697 25.9667 54.6665V54.6665ZM11.4253 79.2665L12.095 76.5332H17.9717L18.6413 79.2665H11.4253ZM27.3333 72.4332C27.3333 72.7956 27.1893 73.1432 26.933 73.3995C26.6767 73.6558 26.3291 73.7998 25.9667 73.7998H4.1C3.73754 73.7998 3.38992 73.6558 3.13362 73.3995C2.87732 73.1432 2.73333 72.7956 2.73333 72.4332V71.0665H27.3333V72.4332ZM27.3333 68.3332H2.73333V58.7665C2.73333 58.404 2.87732 58.0564 3.13362 57.8001C3.38992 57.5438 3.73754 57.3998 4.1 57.3998H25.9667C26.3291 57.3998 26.6767 57.5438 26.933 57.8001C27.1893 58.0564 27.3333 58.404 27.3333 58.7665V68.3332Z" fill="#ED1B24"/>
<path d="M77.9 51.9333H66.9666C65.8802 51.9366 64.8393 52.3696 64.0711 53.1378C63.3029 53.906 62.8699 54.947 62.8666 56.0333V77.9C62.8699 78.9864 63.3029 80.0274 64.0711 80.7956C64.8393 81.5638 65.8802 81.9968 66.9666 82H77.9C78.9864 81.9968 80.0273 81.5638 80.7955 80.7956C81.5637 80.0274 81.9967 78.9864 82 77.9V56.0333C81.9967 54.947 81.5637 53.906 80.7955 53.1378C80.0273 52.3696 78.9864 51.9366 77.9 51.9333V51.9333ZM75.1666 54.6667C75.1666 55.0291 75.0227 55.3768 74.7664 55.6331C74.5101 55.8894 74.1624 56.0333 73.8 56.0333H71.0666C70.7042 56.0333 70.3566 55.8894 70.1003 55.6331C69.844 55.3768 69.7 55.0291 69.7 54.6667H75.1666ZM79.2666 77.9C79.2666 78.2625 79.1227 78.6101 78.8664 78.8664C78.6101 79.1227 78.2624 79.2667 77.9 79.2667H66.9666C66.6042 79.2667 66.2566 79.1227 66.0003 78.8664C65.744 78.6101 65.6 78.2625 65.6 77.9V56.0333C65.6 55.6709 65.744 55.3233 66.0003 55.067C66.2566 54.8107 66.6042 54.6667 66.9666 54.6667C66.9699 55.7531 67.4029 56.794 68.1711 57.5622C68.9393 58.3304 69.9803 58.7634 71.0666 58.7667H73.8C74.8864 58.7634 75.9273 58.3304 76.6955 57.5622C77.4637 56.794 77.8967 55.7531 77.9 54.6667C78.2624 54.6667 78.6101 54.8107 78.8664 55.067C79.1227 55.3233 79.2666 55.6709 79.2666 56.0333V77.9Z" fill="#ED1B24"/>
<path d="M20.5 0H4.1C3.01361 0.00324459 1.97264 0.436249 1.20445 1.20445C0.43625 1.97264 0.00324459 3.01361 0 4.1V25.9667C0.00324459 27.053 0.43625 28.094 1.20445 28.8622C1.97264 29.6304 3.01361 30.0634 4.1 30.0667H20.5C21.5864 30.0634 22.6274 29.6304 23.3956 28.8622C24.1638 28.094 24.5968 27.053 24.6 25.9667V4.1C24.5968 3.01361 24.1638 1.97264 23.3956 1.20445C22.6274 0.436249 21.5864 0.00324459 20.5 0V0ZM21.8667 25.9667C21.8667 26.3291 21.7227 26.6767 21.4664 26.933C21.2101 27.1893 20.8625 27.3333 20.5 27.3333H4.1C3.73754 27.3333 3.38992 27.1893 3.13362 26.933C2.87732 26.6767 2.73333 26.3291 2.73333 25.9667V4.1C2.73333 3.73754 2.87732 3.38992 3.13362 3.13362C3.38992 2.87732 3.73754 2.73333 4.1 2.73333H20.5C20.8625 2.73333 21.2101 2.87732 21.4664 3.13362C21.7227 3.38992 21.8667 3.73754 21.8667 4.1V25.9667Z" fill="#ED1B24"/>
<path d="M13.6667 21.8667H10.9333V24.6H13.6667V21.8667Z" fill="#ED1B24"/>
<path d="M54.8307 37.0368L51.5507 36.6268L53.587 34.0165C53.7915 33.7531 53.8919 33.4237 53.8693 33.091C53.8466 32.7584 53.7023 32.4457 53.464 32.2125L49.7877 28.5361C49.5536 28.2994 49.2411 28.1563 48.9089 28.1336C48.5768 28.111 48.2478 28.2104 47.9837 28.4131L45.3733 30.4495L44.9633 27.1695C44.9194 26.8377 44.7567 26.533 44.5055 26.3119C44.2542 26.0908 43.9314 25.9682 43.5967 25.9668H38.4033C38.0686 25.9682 37.7458 26.0908 37.4945 26.3119C37.2433 26.533 37.0806 26.8377 37.0367 27.1695L36.6267 30.4495L34.0163 28.4131C33.7523 28.2104 33.4233 28.111 33.0911 28.1336C32.7589 28.1563 32.4465 28.2994 32.2123 28.5361L28.536 32.2125C28.2977 32.4457 28.1534 32.7584 28.1308 33.091C28.1081 33.4237 28.2085 33.7531 28.413 34.0165L30.4493 36.6268L27.1693 37.0368C26.8375 37.0807 26.5329 37.2434 26.3118 37.4946C26.0907 37.7459 25.9681 38.0688 25.9667 38.4035V43.5968C25.9681 43.9315 26.0907 44.2543 26.3118 44.5056C26.5329 44.7569 26.8375 44.9195 27.1693 44.9635L30.4493 45.3735L28.413 47.9838C28.2085 48.2472 28.1081 48.5766 28.1308 48.9092C28.1534 49.2419 28.2977 49.5546 28.536 49.7878L32.2123 53.4641C32.4465 53.7008 32.7589 53.844 33.0911 53.8666C33.4233 53.8893 33.7523 53.7899 34.0163 53.5871L36.6267 51.5508L37.0367 54.8308C37.0806 55.1626 37.2433 55.4672 37.4945 55.6883C37.7458 55.9095 38.0686 56.0321 38.4033 56.0335H43.5967C43.9314 56.0321 44.2542 55.9095 44.5055 55.6883C44.7567 55.4672 44.9194 55.1626 44.9633 54.8308L45.3733 51.5508L47.9837 53.5871C48.2478 53.7899 48.5768 53.8893 48.9089 53.8666C49.2411 53.844 49.5536 53.7008 49.7877 53.4641L53.464 49.7878C53.7023 49.5546 53.8466 49.2419 53.8693 48.9092C53.8919 48.5766 53.7915 48.2472 53.587 47.9838L51.5507 45.3735L54.8307 44.9635C55.1625 44.9195 55.4671 44.7569 55.6882 44.5056C55.9093 44.2543 56.0319 43.9315 56.0333 43.5968V38.4035C56.0319 38.0688 55.9093 37.7459 55.6882 37.4946C55.4671 37.2434 55.1625 37.0807 54.8307 37.0368V37.0368ZM53.3 42.3941L50.061 42.8041C49.8064 42.834 49.5656 42.9361 49.367 43.0984C49.1685 43.2606 49.0204 43.4762 48.9403 43.7198C48.8173 44.0478 48.6807 44.3758 48.5303 44.6901C48.4157 44.9187 48.3689 45.1753 48.3955 45.4296C48.4221 45.6839 48.5211 45.9253 48.6807 46.1251L50.6897 48.7081L48.708 50.6898L46.125 48.6808C45.9252 48.5212 45.6838 48.4223 45.4295 48.3956C45.1752 48.369 44.9186 48.4158 44.69 48.5305C44.3691 48.6835 44.0407 48.8204 43.706 48.9405C43.4654 49.0234 43.2531 49.1726 43.0935 49.3708C42.934 49.5691 42.8336 49.8084 42.804 50.0611L42.394 53.3001H39.606L39.196 50.0611C39.1664 49.8084 39.0661 49.5691 38.9065 49.3708C38.7469 49.1726 38.5346 49.0234 38.294 48.9405C37.9593 48.8204 37.6309 48.6835 37.31 48.5305C37.0815 48.4158 36.8248 48.369 36.5705 48.3956C36.3162 48.4223 36.0748 48.5212 35.875 48.6808L33.292 50.6898L31.3103 48.7081L33.3193 46.1251C33.4789 45.9253 33.5779 45.6839 33.6045 45.4296C33.6312 45.1753 33.5844 44.9187 33.4697 44.6901C33.3193 44.3758 33.1827 44.0478 33.0597 43.7198C32.9796 43.4762 32.8316 43.2606 32.633 43.0984C32.4345 42.9361 32.1937 42.834 31.939 42.8041L28.7 42.3941V39.6061L31.939 39.1961C32.1937 39.1662 32.4345 39.0641 32.633 38.9019C32.8316 38.7397 32.9796 38.524 33.0597 38.2805C33.1827 37.9525 33.3193 37.6245 33.4697 37.3101C33.5844 37.0816 33.6312 36.8249 33.6045 36.5706C33.5779 36.3163 33.4789 36.0749 33.3193 35.8751L31.3103 33.2921L33.292 31.3105L35.875 33.3195C36.0748 33.479 36.3162 33.578 36.5705 33.6046C36.8248 33.6313 37.0815 33.5845 37.31 33.4698C37.6243 33.3195 37.9523 33.1828 38.2803 33.0598C38.5239 32.9797 38.7395 32.8317 38.9018 32.6331C39.064 32.4346 39.1661 32.1938 39.196 31.9391L39.606 28.7001H42.394L42.804 31.9391C42.8339 32.1938 42.936 32.4346 43.0982 32.6331C43.2605 32.8317 43.4761 32.9797 43.7197 33.0598C44.0477 33.1828 44.3757 33.3195 44.69 33.4698C44.9186 33.5845 45.1752 33.6313 45.4295 33.6046C45.6838 33.578 45.9252 33.479 46.125 33.3195L48.708 31.3105L50.6897 33.2921L48.6807 35.8751C48.5211 36.0749 48.4221 36.3163 48.3955 36.5706C48.3689 36.8249 48.4157 37.0816 48.5303 37.3101C48.6807 37.6245 48.8173 37.9525 48.9403 38.2805C49.0204 38.524 49.1685 38.7397 49.367 38.9019C49.5656 39.0641 49.8064 39.1662 50.061 39.1961L53.3 39.6061V42.3941Z" fill="#ED1B24"/>
<path d="M47.8332 40.9998C47.8332 39.6483 47.4325 38.3272 46.6816 37.2034C45.9307 36.0797 44.8635 35.2039 43.6149 34.6867C42.3663 34.1695 40.9923 34.0341 39.6668 34.2978C38.3412 34.5615 37.1237 35.2123 36.168 36.1679C35.2123 37.1236 34.5615 38.3412 34.2979 39.6667C34.0342 40.9923 34.1695 42.3662 34.6867 43.6148C35.2039 44.8635 36.0798 45.9307 37.2035 46.6815C38.3272 47.4324 39.6484 47.8332 40.9999 47.8332C42.8115 47.831 44.5484 47.1104 45.8294 45.8293C47.1104 44.5483 47.8311 42.8115 47.8332 40.9998ZM40.9999 45.0998C40.189 45.0998 39.3963 44.8594 38.7221 44.4089C38.0478 43.9583 37.5223 43.318 37.212 42.5688C36.9017 41.8197 36.8205 40.9953 36.9787 40.2C37.1369 39.4046 37.5274 38.6741 38.1008 38.1007C38.6742 37.5273 39.4047 37.1368 40.2 36.9786C40.9953 36.8204 41.8197 36.9016 42.5689 37.2119C43.3181 37.5223 43.9584 38.0478 44.4089 38.722C44.8594 39.3962 45.0999 40.1889 45.0999 40.9998C45.0999 42.0872 44.6679 43.1301 43.899 43.899C43.1301 44.6679 42.0873 45.0998 40.9999 45.0998Z" fill="#ED1B24"/>
<path d="M58.7667 38.2668V41.0002H64.2333C64.5958 41.0002 64.9434 40.8562 65.1997 40.5999C65.456 40.3436 65.6 39.996 65.6 39.6335V27.3335H62.8667V38.2668H58.7667Z" fill="#ED1B24"/>
<path d="M12.3 41V51.9333H15.0333V42.3666H23.2333V39.6333H13.6667C13.3042 39.6333 12.9566 39.7773 12.7003 40.0336C12.444 40.2899 12.3 40.6375 12.3 41Z" fill="#ED1B24"/>
<path d="M39.6333 23.2332H42.3666V15.0332C42.3666 14.6707 42.2227 14.3231 41.9664 14.0668C41.7101 13.8105 41.3624 13.6665 41 13.6665H27.3333V16.3998H39.6333V23.2332Z" fill="#ED1B24"/>
<path d="M42.3666 58.7666H39.6333V69.6999C39.6333 70.0624 39.7773 70.41 40.0336 70.6663C40.2899 70.9226 40.6375 71.0666 41 71.0666H60.1333V68.3333H42.3666V58.7666Z" fill="#ED1B24"/>
</svg>
