<svg width="90" height="89" viewBox="0 0 90 89" fill="none" xmlns="http://www.w3.org/2000/svg">
<circle cx="45" cy="41" r="41" fill="#2B2B2B"/>
<g clip-path="url(#clip0)" filter="url(#filter0_d)">
<path d="M85.8419 44.7878C85.1057 37.3823 81.7973 30.4009 76.5258 25.1292C72.0209 20.6244 66.5069 17.7296 60.705 16.4424V12.3731C63.0747 11.7835 64.8361 9.63852 64.8361 7.08895C64.8361 4.0863 62.3934 1.64355 59.3907 1.64355H47.8593C44.8567 1.64355 42.4139 4.0863 42.4139 7.08895C42.4139 9.63836 44.1753 11.7834 46.5449 12.3731V16.4538C40.7608 17.7464 35.2651 20.6373 30.7729 25.1294C29.7899 26.1124 28.8834 27.1437 28.0536 28.2155C28.0134 28.2125 27.9732 28.2094 27.9322 28.2094H16.5191C15.6347 28.2094 14.9175 28.9264 14.9175 29.811C14.9175 30.6956 15.6347 31.4126 16.5191 31.4126H25.8743C24.7 33.3785 23.7532 35.4431 23.0325 37.5684H5.60159C4.71719 37.5684 4 38.2855 4 39.17C4 40.0546 4.71719 40.7716 5.60159 40.7716H22.1274C21.6658 42.7978 21.4009 44.8598 21.3325 46.9276H14.2502C13.3658 46.9276 12.6486 47.6447 12.6486 48.5292C12.6486 49.4138 13.3658 50.1308 14.2502 50.1308H21.3836C21.5188 52.2039 21.8521 54.2661 22.3837 56.2868H12.0079C11.1235 56.2868 10.4063 57.0039 10.4063 57.8884C10.4063 58.773 11.1235 59.49 12.0079 59.49H23.4058C24.977 63.6463 27.4323 67.5418 30.7729 70.8824C36.0495 76.159 43.0382 79.4682 50.4513 80.2006C51.5093 80.305 52.5681 80.3568 53.6255 80.3568C59.8752 80.3568 66.0455 78.5481 71.2811 75.1386C72.0223 74.6559 72.2319 73.6637 71.7492 72.9225C71.2665 72.1813 70.2743 71.9717 69.5331 72.4544C58.0726 79.9173 42.7241 78.3037 33.0379 68.6175C21.6727 57.2523 21.6727 38.7599 33.0379 27.3945C44.4029 16.0295 62.8953 16.0295 74.2607 27.3945C83.9341 37.0681 85.5565 52.4035 78.1183 63.8583C77.6365 64.6002 77.8474 65.5922 78.5891 66.0738C79.3313 66.5556 80.323 66.3446 80.8046 65.6028C84.7788 59.4823 86.5678 52.0902 85.8419 44.7878ZM45.6171 7.08911C45.6171 5.85269 46.6229 4.84689 47.8593 4.84689H59.3907C60.6272 4.84689 61.633 5.85269 61.633 7.08911C61.633 8.32554 60.6272 9.33133 59.3907 9.33133H59.1034H48.1465H47.8593C46.6229 9.33133 45.6171 8.32538 45.6171 7.08911ZM49.7481 15.9031V12.5345H57.5018V15.8974C54.9271 15.5911 52.3223 15.5931 49.7481 15.9031Z" fill="#ED1B24"/>
<path d="M75.394 68.1477C74.9712 68.1477 74.5596 68.3191 74.2618 68.617C73.9623 68.9149 73.7924 69.3281 73.7924 69.7493C73.7924 70.1705 73.9623 70.5837 74.2618 70.8816C74.5596 71.1811 74.9713 71.3508 75.394 71.3508C75.8152 71.3508 76.2268 71.1811 76.5263 70.8816C76.8242 70.5837 76.9955 70.1705 76.9955 69.7493C76.9955 69.3281 76.8243 68.9149 76.5263 68.617C76.2268 68.3191 75.815 68.1477 75.394 68.1477Z" fill="#ED1B24"/>
<path d="M53.6495 23.1602C39.9498 23.1602 28.8042 34.3056 28.8042 48.0054C28.8042 61.7052 39.9498 72.8507 53.6495 72.8507C67.3491 72.8507 78.4947 61.7052 78.4947 48.0054C78.4947 34.3056 67.3491 23.1602 53.6495 23.1602ZM53.6495 69.6475C41.7159 69.6475 32.0074 59.9389 32.0074 48.0054C32.0074 36.072 41.7159 26.3633 53.6495 26.3633C65.5831 26.3633 75.2916 36.072 75.2916 48.0054C75.2916 59.9389 65.5831 69.6475 53.6495 69.6475Z" fill="#ED1B24"/>
<path d="M63.7803 35.6099L55.8477 43.5424C55.1843 43.2144 54.4381 43.0291 53.6493 43.0291C52.8604 43.0291 52.1144 43.2144 51.451 43.5424L47.9008 39.9922C47.2752 39.3668 46.2614 39.3668 45.6356 39.9922C45.0102 40.6176 45.0102 41.6317 45.6356 42.2572L49.1859 45.8074C48.8577 46.4708 48.6726 47.217 48.6726 48.0058C48.6726 50.7499 50.905 52.9825 53.6493 52.9825C56.3937 52.9825 58.6261 50.7499 58.6261 48.0058C58.6261 47.217 58.4408 46.4708 58.1128 45.8074L65.8126 38.1076L66.0453 37.8749C66.6707 37.2495 66.6707 36.2354 66.0453 35.6099C65.4199 34.9845 64.4061 34.9845 63.7803 35.6099ZM53.6493 49.7795C52.6714 49.7795 51.8757 48.9838 51.8757 48.0059C51.8757 47.028 52.6714 46.2323 53.6493 46.2323C54.6273 46.2323 55.4229 47.028 55.4229 48.0059C55.4229 48.9838 54.6273 49.7795 53.6493 49.7795Z" fill="#ED1B24"/>
<path d="M70.7732 46.4236H69.2894C68.405 46.4236 67.6878 47.1406 67.6878 48.0251C67.6878 48.9097 68.405 49.6267 69.2894 49.6267H70.7732C71.6576 49.6267 72.3748 48.9097 72.3748 48.0251C72.3748 47.1406 71.6576 46.4236 70.7732 46.4236Z" fill="#ED1B24"/>
<path d="M38.0091 46.384H36.5254C35.641 46.384 34.9239 47.1011 34.9239 47.9856C34.9239 48.8701 35.641 49.5872 36.5254 49.5872H38.0091C38.8935 49.5872 39.6107 48.8701 39.6107 47.9856C39.6107 47.1011 38.8935 46.384 38.0091 46.384Z" fill="#ED1B24"/>
<path d="M53.6689 33.9668C54.5533 33.9668 55.2704 33.2498 55.2704 32.3653V30.8816C55.2704 29.997 54.5533 29.28 53.6689 29.28C52.7845 29.28 52.0673 29.997 52.0673 30.8816V32.3653C52.0673 33.2498 52.7845 33.9668 53.6689 33.9668Z" fill="#ED1B24"/>
<path d="M53.63 62.0447C52.7456 62.0447 52.0284 62.7617 52.0284 63.6462V65.1299C52.0284 66.0145 52.7456 66.7315 53.63 66.7315C54.5143 66.7315 55.2315 66.0145 55.2315 65.1299V63.6462C55.2315 62.7617 54.5143 62.0447 53.63 62.0447Z" fill="#ED1B24"/>
<path d="M5.60156 56.2861C5.18035 56.2861 4.76715 56.4575 4.46926 56.7554C4.17137 57.0533 4 57.4665 4 57.8877C4 58.3105 4.17121 58.7221 4.46926 59.02C4.76731 59.3179 5.18035 59.4893 5.60156 59.4893C6.02277 59.4893 6.43598 59.3179 6.73371 59.02C7.0316 58.7221 7.20312 58.3089 7.20312 57.8877C7.20312 57.4665 7.03176 57.0533 6.73371 56.7554C6.43598 56.4575 6.02277 56.2861 5.60156 56.2861Z" fill="#ED1B24"/>
</g>
<defs>
<filter id="filter0_d" x="0" y="0" width="90" height="90" filterUnits="userSpaceOnUse" color-interpolation-filters="sRGB">
<feFlood flood-opacity="0" result="BackgroundImageFix"/>
<feColorMatrix in="SourceAlpha" type="matrix" values="0 0 0 0 0 0 0 0 0 0 0 0 0 0 0 0 0 0 127 0"/>
<feOffset dy="4"/>
<feGaussianBlur stdDeviation="2"/>
<feColorMatrix type="matrix" values="0 0 0 0 0 0 0 0 0 0 0 0 0 0 0 0 0 0 0.25 0"/>
<feBlend mode="normal" in2="BackgroundImageFix" result="effect1_dropShadow"/>
<feBlend mode="normal" in="SourceGraphic" in2="effect1_dropShadow" result="shape"/>
</filter>
<clipPath id="clip0">
<rect width="82" height="82" fill="white" transform="translate(4)"/>
</clipPath>
</defs>
</svg>
