<svg width="82" height="82" viewBox="0 0 82 82" fill="none" xmlns="http://www.w3.org/2000/svg">
<circle cx="41" cy="41" r="41" fill="#2B2B2B"/>
<g clip-path="url(#clip0)">
<path d="M77.0185 26.2235C75.2341 24.4331 72.807 23.4321 70.2792 23.4442C70.1798 23.4442 70.0951 23.4575 69.9976 23.4588L71.4764 17.9461C72.448 14.3012 70.2866 10.5576 66.6444 9.57663L34.9608 1.08635C31.3152 0.110731 27.5689 2.27417 26.5926 5.91906L21.8667 23.5696C19.9141 23.916 18.1097 24.8409 16.6883 26.2235C15.3944 27.5902 13.5946 28.3636 11.7128 28.3636C9.83092 28.3636 8.03184 27.5902 6.73791 26.2235C4.95417 24.4325 2.52713 23.4315 0 23.4442V26.1775C1.88317 26.1702 3.68493 26.9449 4.97485 28.3176C8.69915 32.0239 14.7184 32.0239 18.4433 28.3176C19.2094 27.5975 20.0929 27.0123 21.0545 26.5872L11.0274 64.0024C10.0518 67.648 12.2153 71.3943 15.8601 72.3706L47.5424 80.8602C51.1879 81.8371 54.9349 79.6737 55.9119 76.0281L69.2502 26.2482C69.5912 26.2009 69.9349 26.1768 70.2792 26.1762C72.1651 26.1682 73.9688 26.9436 75.2608 28.3162C77.0452 30.1073 79.4722 31.109 82 31.0976V28.3643C80.1148 28.3716 78.3104 27.5969 77.0185 26.2235V26.2235ZM40.1458 8.13723L40.8539 5.49665L59.3352 10.4468L58.6299 13.0887C58.4343 13.8174 57.6856 14.2499 56.9569 14.055L41.1134 9.81019C40.3841 9.61534 39.951 8.86661 40.1458 8.13723V8.13723ZM29.2319 6.63376C29.7123 4.84402 31.3319 3.59813 33.1857 3.59146C33.5454 3.59079 33.9044 3.63684 34.2528 3.72826L38.216 4.7893L37.5093 7.4292C36.9234 9.61667 38.2213 11.8642 40.4081 12.4508L56.2495 16.6956C58.4357 17.2795 60.6819 15.9815 61.2678 13.7954L61.9758 11.1548L65.939 12.2152C68.1238 12.8051 69.4204 15.0513 68.8378 17.2381L67.0254 23.9907C65.7388 24.5199 64.5583 25.2759 63.5407 26.2235C62.2447 27.5902 60.4443 28.3636 58.5611 28.3636C56.678 28.3636 54.8775 27.5902 53.5816 26.2235C49.8553 22.5173 43.8348 22.5173 40.1091 26.2235C38.8139 27.5902 37.0134 28.3643 35.1309 28.3643C33.2478 28.3643 31.448 27.5902 30.1528 26.2235C28.6706 24.7661 26.7614 23.8199 24.7041 23.5236L29.2319 6.63376ZM53.2713 75.3228C52.6847 77.5096 50.4372 78.8075 48.2504 78.2216L16.5682 69.7313C14.3834 69.1468 13.0854 66.9032 13.6667 64.7171L23.9847 26.2062C25.6617 26.3543 27.2286 27.1044 28.395 28.3176C32.1207 32.0239 38.1412 32.0239 41.8662 28.3176C43.1621 26.9509 44.9625 26.1768 46.845 26.1768C48.7282 26.1768 50.5286 26.9509 51.8239 28.3176C55.5502 32.0245 61.5714 32.0245 65.2977 28.3176C65.5466 28.1087 65.7875 27.9072 66.0264 27.7217L53.2713 75.3228Z" fill="#ED1B24"/>
<path d="M71.0667 36.8374H73.8V39.5707H71.0667V36.8374Z" fill="#ED1B24"/>
<path d="M45.1 45.0371C42.8358 45.0371 41 46.8729 41 49.1371C41 51.4013 42.8358 53.2371 45.1 53.2371C47.3642 53.2371 49.2 51.4013 49.2 49.1371C49.2 46.8729 47.3642 45.0371 45.1 45.0371ZM45.1 50.5038C44.3453 50.5038 43.7333 49.8918 43.7333 49.1371C43.7333 48.3824 44.3453 47.7704 45.1 47.7704C45.8547 47.7704 46.4667 48.3824 46.4667 49.1371C46.4667 49.8918 45.8547 50.5038 45.1 50.5038Z" fill="#ED1B24"/>
<path d="M13.6667 39.5704C13.6667 36.5515 11.2189 34.1038 8.2 34.1038C5.18106 34.1038 2.73334 36.5515 2.73334 39.5704C2.73334 42.5894 5.18106 45.0371 8.2 45.0371C11.2189 45.0371 13.6667 42.5894 13.6667 39.5704ZM8.2 42.3038C6.69053 42.3038 5.46667 41.0799 5.46667 39.5704C5.46667 38.061 6.69053 36.8371 8.2 36.8371C9.70948 36.8371 10.9333 38.061 10.9333 39.5704C10.9333 41.0799 9.70948 42.3038 8.2 42.3038Z" fill="#ED1B24"/>
<path d="M68.3333 66.9038C66.0691 66.9038 64.2333 68.7396 64.2333 71.0038C64.2333 73.268 66.0691 75.1038 68.3333 75.1038C70.5975 75.1038 72.4333 73.268 72.4333 71.0038C72.4333 68.7396 70.5975 66.9038 68.3333 66.9038ZM68.3333 72.3705C67.5786 72.3705 66.9667 71.7585 66.9667 71.0038C66.9667 70.2491 67.5786 69.6371 68.3333 69.6371C69.0881 69.6371 69.7 70.2491 69.7 71.0038C69.7 71.7585 69.0881 72.3705 68.3333 72.3705Z" fill="#ED1B24"/>
<path d="M27.3333 35.4705H30.0666V38.2038H27.3333V35.4705Z" fill="#ED1B24"/>
<path d="M23.2333 57.3374H25.9667V60.0707H23.2333V57.3374Z" fill="#ED1B24"/>
<path d="M5.46667 71.0039H8.20001V73.7372H5.46667V71.0039Z" fill="#ED1B24"/>
<path d="M43.7333 64.1707H46.4667V66.904H43.7333V64.1707Z" fill="#ED1B24"/>
</g>
<defs>
<clipPath id="clip0">
<rect width="82" height="82" fill="white"/>
</clipPath>
</defs>
</svg>
