<svg width="82" height="82" viewBox="0 0 82 82" fill="none" xmlns="http://www.w3.org/2000/svg">
<circle cx="41" cy="41" r="41" fill="#2B2B2B"/>
<path d="M57.4 65.6H56.0333V51.9334H53.3V65.6H6.83325L6.83166 38.2668L6.83333 38.2667V35.5333C6.10866 35.5342 5.41391 35.8224 4.90149 36.3348C4.38907 36.8473 4.10083 37.542 4.1 38.2667V65.6H2.73333V38.2667C2.73458 37.1797 3.16694 36.1375 3.93557 35.3689C4.7042 34.6003 5.74633 34.1679 6.83333 34.1667V31.4333C5.02165 31.4354 3.28476 32.156 2.00371 33.4371C0.722658 34.7181 0.00205818 36.455 0 38.2667V66.9667C0.00205818 68.7784 0.722658 70.5153 2.00371 71.7963C3.28476 73.0774 5.02165 73.798 6.83333 73.8H24.6V75.1667C24.5988 76.2537 24.1664 77.2958 23.3978 78.0645C22.6291 78.8331 21.587 79.2654 20.5 79.2667C20.1375 79.2667 19.7899 79.4107 19.5336 79.667C19.2773 79.9233 19.1333 80.2709 19.1333 80.6334C19.1333 80.9958 19.2773 81.3434 19.5336 81.5997C19.7899 81.856 20.1375 82 20.5 82H39.6333C39.9958 82 40.3434 81.856 40.5997 81.5997C40.856 81.3434 41 80.9958 41 80.6334C41 80.2709 40.856 79.9233 40.5997 79.667C40.3434 79.4107 39.9958 79.2667 39.6333 79.2667C38.5463 79.2654 37.5042 78.8331 36.7356 78.0645C35.9669 77.2958 35.5346 76.2537 35.5333 75.1667V73.8H53.3C55.1117 73.798 56.8486 73.0774 58.1296 71.7963C59.4107 70.5153 60.1313 68.7784 60.1333 66.9667V51.9334H57.4V65.6ZM34.1698 79.2667H25.9635C26.854 78.0854 27.3349 76.646 27.3333 75.1667V73.8H32.8V75.1667C32.7984 76.646 33.2793 78.0854 34.1698 79.2667V79.2667ZM53.3 71.0667H6.83333C5.98581 71.0656 5.15938 70.8023 4.46741 70.3129C3.77545 69.8236 3.25184 69.1321 2.96844 68.3334H57.1649C56.8815 69.1321 56.3579 69.8236 55.6659 70.3129C54.974 70.8023 54.1475 71.0656 53.3 71.0667V71.0667Z" fill="#ED1B24"/>
<path d="M77.9 0H42.3667C41.2797 0.00122895 40.2375 0.433587 39.4689 1.20222C38.7002 1.97085 38.2679 3.01299 38.2667 4.1V34.1667C38.2679 35.2537 38.7002 36.2958 39.4689 37.0644C40.2375 37.8331 41.2797 38.2654 42.3667 38.2667H77.9C78.987 38.2654 80.0291 37.8331 80.7978 37.0644C81.5664 36.2958 81.9988 35.2537 82 34.1667V4.1C81.9988 3.01299 81.5664 1.97085 80.7978 1.20222C80.0291 0.433587 78.987 0.00122895 77.9 0V0ZM79.2667 34.1667C79.2662 34.529 79.1221 34.8764 78.8659 35.1326C78.6097 35.3888 78.2623 35.5329 77.9 35.5333H42.3667C42.0043 35.5329 41.657 35.3888 41.4007 35.1326C41.1445 34.8764 41.0004 34.529 41 34.1667V4.1C41.0004 3.73766 41.1445 3.39029 41.4007 3.13408C41.657 2.87787 42.0043 2.73375 42.3667 2.73333H77.9C78.2623 2.73375 78.6097 2.87787 78.8659 3.13408C79.1221 3.39029 79.2662 3.73766 79.2667 4.1V34.1667Z" fill="#ED1B24"/>
<path d="M43.7333 8.19995H76.5333V10.9333H43.7333V8.19995Z" fill="#ED1B24"/>
<path d="M45.1 6.83319C45.8548 6.83319 46.4667 6.22131 46.4667 5.46652C46.4667 4.71173 45.8548 4.09985 45.1 4.09985C44.3452 4.09985 43.7333 4.71173 43.7333 5.46652C43.7333 6.22131 44.3452 6.83319 45.1 6.83319Z" fill="#ED1B24"/>
<path d="M49.2 6.83319C49.9548 6.83319 50.5666 6.22131 50.5666 5.46652C50.5666 4.71173 49.9548 4.09985 49.2 4.09985C48.4452 4.09985 47.8333 4.71173 47.8333 5.46652C47.8333 6.22131 48.4452 6.83319 49.2 6.83319Z" fill="#ED1B24"/>
<path d="M53.3 6.83319C54.0548 6.83319 54.6667 6.22131 54.6667 5.46652C54.6667 4.71173 54.0548 4.09985 53.3 4.09985C52.5452 4.09985 51.9333 4.71173 51.9333 5.46652C51.9333 6.22131 52.5452 6.83319 53.3 6.83319Z" fill="#ED1B24"/>
<path d="M57.4 13.6665H45.1C44.7375 13.6665 44.3899 13.8105 44.1336 14.0668C43.8773 14.3231 43.7333 14.6707 43.7333 15.0332V27.3332C43.7333 27.6956 43.8773 28.0432 44.1336 28.2995C44.3899 28.5558 44.7375 28.6998 45.1 28.6998H57.4C57.7625 28.6998 58.1101 28.5558 58.3664 28.2995C58.6227 28.0432 58.7667 27.6956 58.7667 27.3332V15.0332C58.7667 14.6707 58.6227 14.3231 58.3664 14.0668C58.1101 13.8105 57.7625 13.6665 57.4 13.6665ZM56.0333 25.9665H46.4667V16.3998H56.0333V25.9665Z" fill="#ED1B24"/>
<path d="M75.1667 13.6665H62.8667C62.5042 13.6665 62.1566 13.8105 61.9003 14.0668C61.644 14.3231 61.5 14.6707 61.5 15.0332V27.3332C61.5 27.6956 61.644 28.0432 61.9003 28.2995C62.1566 28.5558 62.5042 28.6998 62.8667 28.6998H75.1667C75.5291 28.6998 75.8767 28.5558 76.133 28.2995C76.3893 28.0432 76.5333 27.6956 76.5333 27.3332V15.0332C76.5333 14.6707 76.3893 14.3231 76.133 14.0668C75.8767 13.8105 75.5291 13.6665 75.1667 13.6665V13.6665ZM73.8 25.9665H64.2333V16.3998H73.8V25.9665Z" fill="#ED1B24"/>
<path d="M46.4667 30.0667H51.9333V32.8H46.4667V30.0667Z" fill="#ED1B24"/>
<path d="M53.3 30.0667H56.0333V32.8H53.3V30.0667Z" fill="#ED1B24"/>
<path d="M64.2333 30.0667H69.7V32.8H64.2333V30.0667Z" fill="#ED1B24"/>
<path d="M71.0667 30.0667H73.8V32.8H71.0667V30.0667Z" fill="#ED1B24"/>
<path d="M64.2333 45.1C64.2329 45.4624 64.0888 45.8097 63.8326 46.0659C63.5764 46.3222 63.229 46.4663 62.8667 46.4667H27.3333C26.971 46.4663 26.6236 46.3222 26.3674 46.0659C26.1112 45.8097 25.9671 45.4624 25.9667 45.1V15.0333C25.9671 14.671 26.1112 14.3236 26.3674 14.0674C26.6236 13.8112 26.971 13.6671 27.3333 13.6667H35.5333V10.9333H27.3333C26.2463 10.9346 25.2042 11.3669 24.4356 12.1356C23.6669 12.9042 23.2346 13.9463 23.2333 15.0333V45.1C23.2346 46.187 23.6669 47.2292 24.4356 47.9978C25.2042 48.7664 26.2463 49.1988 27.3333 49.2H62.8667C63.9537 49.1988 64.9958 48.7664 65.7645 47.9978C66.5331 47.2292 66.9654 46.187 66.9667 45.1V41H64.2333V45.1Z" fill="#ED1B24"/>
<path d="M28.7 19.1333H35.5333V21.8666H28.7V19.1333Z" fill="#ED1B24"/>
<path d="M30.0667 17.7665C30.8215 17.7665 31.4333 17.1547 31.4333 16.3999C31.4333 15.6451 30.8215 15.0332 30.0667 15.0332C29.3119 15.0332 28.7 15.6451 28.7 16.3999C28.7 17.1547 29.3119 17.7665 30.0667 17.7665Z" fill="#ED1B24"/>
<path d="M34.1667 17.7665C34.9214 17.7665 35.5333 17.1547 35.5333 16.3999C35.5333 15.6451 34.9214 15.0332 34.1667 15.0332C33.4119 15.0332 32.8 15.6451 32.8 16.3999C32.8 17.1547 33.4119 17.7665 34.1667 17.7665Z" fill="#ED1B24"/>
<path d="M12.3 62.8665H47.8334C48.9204 62.8653 49.9625 62.4329 50.7311 61.6643C51.4998 60.8957 51.9321 59.8535 51.9334 58.7665V51.9332H49.2V58.7665C49.1996 59.1289 49.0555 59.4762 48.7993 59.7324C48.5431 59.9886 48.1957 60.1328 47.8334 60.1332H12.3C11.9377 60.1328 11.5903 59.9886 11.3341 59.7324C11.0779 59.4762 10.9338 59.1289 10.9334 58.7665V28.6999C10.9338 28.3375 11.0779 27.9901 11.3341 27.7339C11.5903 27.4777 11.9377 27.3336 12.3 27.3332H20.5V24.5999H12.3C11.213 24.6011 10.1709 25.0334 9.40225 25.8021C8.63361 26.5707 8.20126 27.6128 8.20003 28.6999V58.7665C8.20126 59.8535 8.63361 60.8957 9.40225 61.6643C10.1709 62.4329 11.213 62.8653 12.3 62.8665V62.8665Z" fill="#ED1B24"/>
<path d="M13.6667 32.8H20.5V35.5334H13.6667V32.8Z" fill="#ED1B24"/>
<path d="M15.0334 31.4333C15.7882 31.4333 16.4 30.8214 16.4 30.0666C16.4 29.3118 15.7882 28.7 15.0334 28.7C14.2786 28.7 13.6667 29.3118 13.6667 30.0666C13.6667 30.8214 14.2786 31.4333 15.0334 31.4333Z" fill="#ED1B24"/>
<path d="M19.1333 31.4333C19.8881 31.4333 20.5 30.8214 20.5 30.0666C20.5 29.3118 19.8881 28.7 19.1333 28.7C18.3785 28.7 17.7667 29.3118 17.7667 30.0666C17.7667 30.8214 18.3785 31.4333 19.1333 31.4333Z" fill="#ED1B24"/>
</svg>
