<svg width="82" height="84" viewBox="0 0 82 84" fill="none" xmlns="http://www.w3.org/2000/svg">
<circle cx="41" cy="41" r="41" fill="#2B2B2B"/>
<path d="M46.125 28.9062V12.5703C46.1241 11.806 45.8201 11.0733 45.2797 10.5328C44.7392 9.9924 44.0065 9.68839 43.2422 9.6875H38.4375C38.2692 9.68749 38.1026 9.72063 37.9472 9.78501C37.7917 9.8494 37.6505 9.94377 37.5315 10.0627L35.3442 12.25H23.5933L21.406 10.0627C21.287 9.94377 21.1458 9.8494 20.9903 9.78501C20.8349 9.72063 20.6683 9.68749 20.5 9.6875H15.6953C14.931 9.68839 14.1983 9.9924 13.6578 10.5328C13.1174 11.0733 12.8134 11.806 12.8125 12.5703V68.3047C12.8134 69.069 13.1174 69.8017 13.6578 70.3422C14.1983 70.8826 14.931 71.1866 15.6953 71.1875H43.2422C44.0065 71.1866 44.7392 70.8826 45.2797 70.3422C45.8201 69.8017 46.1241 69.069 46.125 68.3047V66.0625H43.5625V68.3047C43.5625 68.3896 43.5288 68.4711 43.4687 68.5312C43.4086 68.5913 43.3271 68.625 43.2422 68.625H15.6953C15.6104 68.625 15.5289 68.5913 15.4688 68.5312C15.4087 68.4711 15.375 68.3896 15.375 68.3047V12.5703C15.375 12.4854 15.4087 12.4039 15.4688 12.3438C15.5289 12.2837 15.6104 12.25 15.6953 12.25H19.9692L22.1565 14.4373C22.2755 14.5562 22.4167 14.6506 22.5722 14.715C22.7276 14.7794 22.8942 14.8125 23.0625 14.8125H35.875C36.0433 14.8125 36.2099 14.7794 36.3653 14.715C36.5208 14.6506 36.662 14.5562 36.781 14.4373L38.9683 12.25H43.2422C43.3271 12.25 43.4086 12.2837 43.4687 12.3438C43.5288 12.4039 43.5625 12.4854 43.5625 12.5703V28.9062H46.125Z" fill="#ED1B24"/>
<path d="M48.6875 76.9531C48.6869 77.4627 48.4843 77.9512 48.124 78.3115C47.7637 78.6718 47.2752 78.8744 46.7656 78.875H12.1719C11.6623 78.8744 11.1738 78.6718 10.8135 78.3115C10.4532 77.9512 10.2506 77.4627 10.25 76.9531V22.5H7.6875V76.9531C7.68886 78.142 8.16175 79.2819 9.00244 80.1226C9.84313 80.9632 10.983 81.4361 12.1719 81.4375H46.7656C47.9545 81.4361 49.0944 80.9632 49.9351 80.1226C50.7757 79.2819 51.2486 78.142 51.25 76.9531V66.0625H48.6875V76.9531Z" fill="#ED1B24"/>
<path d="M10.25 9.04688C10.2506 8.53733 10.4532 8.04882 10.8135 7.68851C11.1738 7.32821 11.6623 7.12555 12.1719 7.125H46.7656C47.2752 7.12555 47.7637 7.32821 48.124 7.68851C48.4843 8.04882 48.6869 8.53733 48.6875 9.04688V28.9062H51.25V9.04688C51.2486 7.85796 50.7757 6.71813 49.9351 5.87744C49.0944 5.03675 47.9545 4.56386 46.7656 4.5625H12.1719C10.983 4.56386 9.84313 5.03675 9.00244 5.87744C8.16175 6.71813 7.68886 7.85796 7.6875 9.04688V19.9375H10.25V9.04688Z" fill="#ED1B24"/>
<path d="M34.5938 73.75H24.3438V76.3125H34.5938V73.75Z" fill="#ED1B24"/>
<path d="M20.5 19.9375H17.9375V22.5H20.5V19.9375Z" fill="#ED1B24"/>
<path d="M24.3438 18.6562H21.7812V22.5H24.3438V18.6562Z" fill="#ED1B24"/>
<path d="M28.1875 17.375H25.625V22.5H28.1875V17.375Z" fill="#ED1B24"/>
<path d="M74.3125 45.5625V35.9531C74.3111 34.7642 73.8382 33.6244 72.9976 32.7837C72.1569 31.943 71.017 31.4701 69.8281 31.4688H30.1094C28.9205 31.4701 27.7806 31.943 26.9399 32.7837C26.0993 33.6244 25.6264 34.7642 25.625 35.9531V59.0156C25.6264 60.2045 26.0993 61.3444 26.9399 62.1851C27.7806 63.0257 28.9205 63.4986 30.1094 63.5H65.3438C65.6435 63.5 65.9338 63.395 66.1641 63.2031L73.8516 56.7968C73.9959 56.6766 74.1119 56.5261 74.1916 56.356C74.2712 56.1859 74.3125 56.0003 74.3125 55.8125V48.125H71.75V55.2124L64.8793 60.9375H30.1094C29.5998 60.9369 29.1113 60.7343 28.751 60.374C28.3907 60.0137 28.1881 59.5252 28.1875 59.0156V35.9531C28.1881 35.4436 28.3907 34.9551 28.751 34.5948C29.1113 34.2345 29.5998 34.0318 30.1094 34.0312H69.8281C70.3377 34.0318 70.8262 34.2345 71.1865 34.5948C71.5468 34.9551 71.7494 35.4436 71.75 35.9531V45.5625H74.3125Z" fill="#ED1B24"/>
<path d="M32.0312 39.1562C31.6914 39.1562 31.3655 39.2912 31.1253 39.5315C30.885 39.7718 30.75 40.0977 30.75 40.4375V53.25C30.75 53.5898 30.885 53.9157 31.1253 54.156C31.3655 54.3963 31.6914 54.5312 32.0312 54.5312H49.9688C50.3086 54.5312 50.6345 54.3963 50.8747 54.156C51.115 53.9157 51.25 53.5898 51.25 53.25V40.4375C51.25 40.0977 51.115 39.7718 50.8747 39.5315C50.6345 39.2912 50.3086 39.1562 49.9688 39.1562H32.0312ZM33.3125 41.7188H35.0832L35.7238 43H33.3125V41.7188ZM35.0832 51.9688H33.3125V50.6875H35.7238L35.0832 51.9688ZM37.1562 47.8225L37.0051 48.125H33.3125V45.5625H37.0051L37.1562 45.865V47.8225ZM42.4166 48.698L44.0519 51.9688H37.9481L39.5834 48.698C39.6724 48.5201 39.7188 48.3239 39.7188 48.125V45.5625C39.7188 45.3636 39.6724 45.1674 39.5834 44.9895L37.9481 41.7188H44.0519L42.4166 44.9895C42.3276 45.1674 42.2812 45.3636 42.2812 45.5625V48.125C42.2812 48.3239 42.3276 48.5201 42.4166 48.698V48.698ZM48.6875 51.9688H46.9168L46.2762 50.6875H48.6875V51.9688ZM48.6875 48.125H44.9949L44.8438 47.8225V45.865L44.9949 45.5625H48.6875V48.125ZM48.6875 43H46.2762L46.9168 41.7188H48.6875V43Z" fill="#ED1B24"/>
<path d="M55.0938 45.5625C55.0938 48.7816 59.696 53.3056 60.6191 54.18C60.8571 54.4056 61.1726 54.5313 61.5005 54.5313C61.8284 54.5313 62.1438 54.4056 62.3818 54.18C63.304 53.3056 67.9062 48.7816 67.9062 45.5625C67.9063 43.8635 67.2313 42.234 66.0299 41.0326C64.8285 39.8312 63.199 39.1562 61.5 39.1562C59.801 39.1562 58.1715 39.8312 56.9701 41.0326C55.7687 42.234 55.0938 43.8635 55.0938 45.5625V45.5625ZM65.3438 45.5625C65.3438 46.9064 63.3151 49.5417 61.5 51.4402C59.6849 49.5421 57.6562 46.9067 57.6562 45.5625C57.6562 44.5431 58.0612 43.5654 58.7821 42.8446C59.5029 42.1237 60.4806 41.7187 61.5 41.7187C62.5194 41.7187 63.4971 42.1237 64.2179 42.8446C64.9388 43.5654 65.3438 44.5431 65.3438 45.5625Z" fill="#ED1B24"/>
<path d="M62.7812 44.2812H60.2188V46.8438H62.7812V44.2812Z" fill="#ED1B24"/>
</svg>
