<svg width="50" height="50" viewBox="0 0 50 50" fill="none" xmlns="http://www.w3.org/2000/svg">
<rect width="50" height="50" rx="25" fill="#E1E4E7" fill-opacity="0.54"/>
<g clip-path="url(#clip0)">
<path d="M34.7276 24.3424L28.776 18.3908C28.4128 18.0276 27.8239 18.0276 27.4608 18.3908C27.0976 18.754 27.0976 19.3427 27.4608 19.7059L31.8249 24.0701H15.9299C15.4164 24.0701 15 24.4865 15 25C15 25.5135 15.4164 25.93 15.9299 25.93H31.8249L27.4609 30.2941C27.0977 30.6573 27.0977 31.2461 27.4609 31.6093C27.6425 31.7907 27.8805 31.8816 28.1185 31.8816C28.3565 31.8816 28.5945 31.7907 28.7761 31.6093L34.7276 25.6576C35.0908 25.2944 35.0908 24.7056 34.7276 24.3424Z" fill="#091D35"/>
</g>
<defs>
<clipPath id="clip0">
<rect width="20" height="20" fill="white" transform="translate(15 15)"/>
</clipPath>
</defs>
</svg>
