<svg width="24" height="24" viewBox="0 0 24 24" fill="none" xmlns="http://www.w3.org/2000/svg">
<g clip-path="url(#clip0)">
<path d="M17.2489 24C16.4742 24 15.7061 23.863 14.9549 23.5901C11.6458 22.388 8.57418 20.4301 6.0721 17.9281C3.57001 15.4261 1.61213 12.3544 0.410067 9.04529C0.0237856 7.98183 -0.0902098 6.88406 0.0713617 5.78236C0.222715 4.7504 0.622449 3.74858 1.22739 2.88518C1.83501 2.01798 2.64507 1.2967 3.56997 0.799327C4.55627 0.268958 5.63281 0 6.76976 0C7.12337 0 7.42898 0.247068 7.50309 0.592804L8.68026 6.08628C8.73355 6.33504 8.6571 6.59387 8.47725 6.77377L6.46579 8.78519C8.3633 12.5578 11.4423 15.6368 15.2149 17.5343L17.2263 15.5229C17.4062 15.343 17.6651 15.2667 17.9138 15.3199L23.4073 16.497C23.7531 16.5711 24.0001 16.8767 24.0001 17.2304C24.0001 18.3673 23.7312 19.4439 23.2007 20.4302C22.7034 21.3551 21.9821 22.1652 21.1149 22.7728C20.2515 23.3777 19.2497 23.7774 18.2177 23.9288C17.8943 23.9763 17.571 24 17.2489 24ZM6.17053 1.53275C4.67083 1.69831 3.33973 2.48437 2.4558 3.74596C1.4618 5.16457 1.23002 6.90942 1.81987 8.5332C4.1309 14.8951 9.10512 19.8693 15.467 22.1803C17.0907 22.7702 18.8356 22.5385 20.2543 21.5444C21.5158 20.6605 22.3019 19.3294 22.4675 17.8297L17.9985 16.8721L15.8979 18.9727C15.6743 19.1963 15.3347 19.2556 15.0487 19.1212C10.5868 17.0251 6.97516 13.4134 4.87899 8.95154C4.74461 8.66547 4.80395 8.32583 5.02749 8.10234L7.12815 6.00168L6.17053 1.53275Z" fill="#2B2B2B"/>
<path d="M23.25 12.7495C22.8358 12.7495 22.5 12.4137 22.5 11.9995C22.5 6.21003 17.7899 1.49994 12.0004 1.49994C11.5862 1.49994 11.2504 1.16414 11.2504 0.749969C11.2504 0.335799 11.5862 0 12.0004 0C15.2056 0 18.219 1.24814 20.4854 3.51454C22.7518 5.78095 23.9999 8.79428 23.9999 11.9995C23.9999 12.4137 23.6642 12.7495 23.25 12.7495Z" fill="#2B2B2B"/>
<path d="M20.2501 12.7495C19.8359 12.7495 19.5001 12.4137 19.5001 11.9995C19.5001 7.86421 16.1357 4.49985 12.0004 4.49985C11.5862 4.49985 11.2504 4.16405 11.2504 3.74988C11.2504 3.33571 11.5862 2.99991 12.0004 2.99991C16.9628 2.99991 21 7.03714 21 11.9995C21 12.4137 20.6643 12.7495 20.2501 12.7495Z" fill="#2B2B2B"/>
<path d="M17.2502 12.7495C16.836 12.7495 16.5002 12.4137 16.5002 11.9995C16.5002 9.51829 14.4816 7.4997 12.0004 7.4997C11.5862 7.4997 11.2504 7.1639 11.2504 6.74973C11.2504 6.33555 11.5862 5.99976 12.0004 5.99976C15.3087 5.99976 18.0002 8.69121 18.0002 11.9995C18.0002 12.4137 17.6644 12.7495 17.2502 12.7495Z" fill="#2B2B2B"/>
</g>
<defs>
<clipPath id="clip0">
<rect width="24" height="24" fill="white"/>
</clipPath>
</defs>
</svg>
