<svg width="20" height="20" viewBox="0 0 20 20" fill="none" xmlns="http://www.w3.org/2000/svg">
<g opacity="0.34" clip-path="url(#clip0)">
<path d="M14.3739 20C13.7283 20 13.0882 19.8859 12.4622 19.6585C9.70463 18.6567 7.14496 17.0251 5.05989 14.9401C2.97482 12.8551 1.34325 10.2954 0.341531 7.53774C0.0196306 6.65152 -0.0753656 5.73672 0.0592774 4.81863C0.185405 3.95867 0.518516 3.12382 1.02264 2.40432C1.52898 1.68165 2.20403 1.08058 2.97478 0.666105C3.7967 0.224131 4.69381 0 5.64128 0C5.93595 0 6.19063 0.20589 6.25238 0.494003L7.23336 5.0719C7.27777 5.2792 7.21406 5.49489 7.06419 5.64481L5.38797 7.32099C6.96923 10.4648 9.53506 13.0307 12.6789 14.6119L14.3551 12.9357C14.505 12.7858 14.7207 12.7222 14.928 12.7665L19.5059 13.7475C19.7941 13.8093 19.9999 14.064 19.9999 14.3586C19.9999 15.3061 19.7758 16.2032 19.3338 17.0252C18.9193 17.7959 18.3182 18.471 17.5956 18.9773C16.8761 19.4814 16.0412 19.8145 15.1812 19.9407C14.9118 19.9802 14.6423 20 14.3739 20ZM5.14192 1.27729C3.89217 1.41525 2.78292 2.07031 2.04631 3.12163C1.21798 4.30381 1.02482 5.75785 1.51637 7.111C3.44222 12.4126 7.58741 16.5578 12.889 18.4836C14.2421 18.9752 15.6962 18.782 16.8784 17.9537C17.9297 17.2171 18.5847 16.1078 18.7227 14.8581L14.9986 14.06L13.248 15.8106C13.0618 15.9969 12.7787 16.0464 12.5404 15.9343C8.82216 14.1875 5.81244 11.1778 4.06564 7.45962C3.95365 7.22123 4.0031 6.93819 4.18938 6.75195L5.93994 5.0014L5.14192 1.27729Z" fill="#2B2B2B"/>
<path d="M19.3746 10.6246C19.0295 10.6246 18.7496 10.3447 18.7496 9.99959C18.7496 5.17502 14.8245 1.24995 9.99997 1.24995C9.65483 1.24995 9.375 0.970116 9.375 0.624974C9.375 0.279832 9.65483 0 9.99997 0C12.671 0 15.1821 1.04011 17.0708 2.92879C18.9595 4.81746 19.9996 7.32857 19.9996 9.99959C19.9996 10.3447 19.7198 10.6246 19.3746 10.6246Z" fill="#2B2B2B"/>
<path d="M16.8747 10.6246C16.5296 10.6246 16.2497 10.3447 16.2497 9.99961C16.2497 6.55349 13.4461 3.74986 9.99997 3.74986C9.65483 3.74986 9.375 3.47003 9.375 3.12488C9.375 2.77974 9.65483 2.49991 9.99997 2.49991C14.1353 2.49991 17.4997 5.86426 17.4997 9.99961C17.4997 10.3447 17.2199 10.6246 16.8747 10.6246Z" fill="#2B2B2B"/>
<path d="M14.3748 10.6246C14.0297 10.6246 13.7498 10.3447 13.7498 9.99958C13.7498 7.93189 12.0677 6.24974 9.99997 6.24974C9.65483 6.24974 9.375 5.9699 9.375 5.62476C9.375 5.27962 9.65483 4.99979 9.99997 4.99979C12.7569 4.99979 14.9998 7.24266 14.9998 9.99958C14.9998 10.3447 14.72 10.6246 14.3748 10.6246Z" fill="#2B2B2B"/>
</g>
<defs>
<clipPath id="clip0">
<rect width="20" height="20" fill="white"/>
</clipPath>
</defs>
</svg>
