<svg width="20" height="20" viewBox="0 0 20 20" fill="none" xmlns="http://www.w3.org/2000/svg">
<g clip-path="url(#clip0)">
<path d="M14.3741 20C13.7285 20 13.0884 19.8859 12.4624 19.6585C9.70481 18.6567 7.14515 17.0251 5.06008 14.9401C2.97501 12.8551 1.34343 10.2954 0.341715 7.53774C0.0198137 6.65152 -0.0751825 5.73672 0.0594605 4.81863C0.185588 3.95867 0.5187 3.12382 1.02282 2.40432C1.52917 1.68165 2.20422 1.08058 2.97497 0.666105C3.79689 0.224131 4.694 0 5.64146 0C5.93613 0 6.19081 0.20589 6.25257 0.494003L7.23354 5.0719C7.27795 5.2792 7.21425 5.49489 7.06437 5.64481L5.38815 7.32099C6.96941 10.4648 9.53524 13.0307 12.6791 14.6119L14.3553 12.9357C14.5052 12.7858 14.7209 12.7222 14.9282 12.7665L19.5061 13.7475C19.7942 13.8093 20.0001 14.064 20.0001 14.3586C20.0001 15.3061 19.776 16.2032 19.3339 17.0252C18.9195 17.7959 18.3184 18.471 17.5957 18.9773C16.8763 19.4814 16.0414 19.8145 15.1814 19.9407C14.9119 19.9802 14.6425 20 14.3741 20ZM5.1421 1.27729C3.89235 1.41525 2.7831 2.07031 2.04649 3.12163C1.21816 4.30381 1.02501 5.75785 1.51655 7.111C3.44241 12.4126 7.58759 16.5578 12.8892 18.4836C14.2423 18.9752 15.6964 18.782 16.8785 17.9537C17.9299 17.2171 18.5849 16.1078 18.7229 14.8581L14.9988 14.06L13.2482 15.8106C13.0619 15.9969 12.7789 16.0464 12.5406 15.9343C8.82234 14.1875 5.81262 11.1778 4.06582 7.45962C3.95383 7.22123 4.00328 6.93819 4.18957 6.75195L5.94012 5.0014L5.1421 1.27729Z" fill="#ED1B24"/>
<path d="M19.375 10.6246C19.0298 10.6246 18.75 10.3447 18.75 9.99959C18.75 5.17502 14.8249 1.24995 10.0003 1.24995C9.6552 1.24995 9.37537 0.970116 9.37537 0.624974C9.37537 0.279832 9.6552 0 10.0003 0C12.6714 0 15.1825 1.04011 17.0711 2.92879C18.9598 4.81746 19.9999 7.32857 19.9999 9.99959C19.9999 10.3447 19.7201 10.6246 19.375 10.6246Z" fill="#ED1B24"/>
<path d="M16.8751 10.6246C16.5299 10.6246 16.2501 10.3447 16.2501 9.99961C16.2501 6.55349 13.4465 3.74986 10.0003 3.74986C9.6552 3.74986 9.37537 3.47003 9.37537 3.12488C9.37537 2.77974 9.6552 2.49991 10.0003 2.49991C14.1357 2.49991 17.5 5.86426 17.5 9.99961C17.5 10.3447 17.2202 10.6246 16.8751 10.6246Z" fill="#ED1B24"/>
<path d="M14.3752 10.6246C14.03 10.6246 13.7502 10.3447 13.7502 9.99958C13.7502 7.93189 12.068 6.24974 10.0003 6.24974C9.6552 6.24974 9.37537 5.9699 9.37537 5.62476C9.37537 5.27962 9.6552 4.99979 10.0003 4.99979C12.7573 4.99979 15.0001 7.24266 15.0001 9.99958C15.0001 10.3447 14.7203 10.6246 14.3752 10.6246Z" fill="#ED1B24"/>
</g>
<defs>
<clipPath id="clip0">
<rect width="20" height="20" fill="white"/>
</clipPath>
</defs>
</svg>
