<svg width="20" height="20" viewBox="0 0 20 20" fill="none" xmlns="http://www.w3.org/2000/svg">
<g clip-path="url(#clip0)">
<path d="M14.3742 20C13.7286 20 13.0884 19.8859 12.4625 19.6585C9.70487 18.6567 7.14521 17.0251 5.06014 14.9401C2.97507 12.8551 1.34349 10.2954 0.341776 7.53774C0.0198747 6.65152 -0.0751214 5.73672 0.0595215 4.81863C0.185649 3.95867 0.518761 3.12382 1.02288 2.40432C1.52923 1.68165 2.20428 1.08058 2.97503 0.666105C3.79695 0.224131 4.69406 0 5.64152 0C5.93619 0 6.19087 0.20589 6.25263 0.494003L7.2336 5.0719C7.27802 5.2792 7.21431 5.49489 7.06443 5.64481L5.38821 7.32099C6.96947 10.4648 9.53531 13.0307 12.6792 14.6119L14.3553 12.9357C14.5052 12.7858 14.721 12.7222 14.9282 12.7665L19.5061 13.7475C19.7943 13.8093 20.0002 14.064 20.0002 14.3586C20.0002 15.3061 19.776 16.2032 19.334 17.0252C18.9195 17.7959 18.3185 18.471 17.5958 18.9773C16.8763 19.4814 16.0415 19.8145 15.1815 19.9407C14.912 19.9802 14.6426 20 14.3742 20ZM5.14217 1.27729C3.89241 1.41525 2.78316 2.07031 2.04655 3.12163C1.21822 4.30381 1.02507 5.75785 1.51661 7.111C3.44247 12.4126 7.58765 16.5578 12.8892 18.4836C14.2423 18.9752 15.6964 18.782 16.8786 17.9537C17.9299 17.2171 18.585 16.1078 18.7229 14.8581L14.9988 14.06L13.2483 15.8106C13.062 15.9969 12.779 16.0464 12.5406 15.9343C8.82241 14.1875 5.81268 11.1778 4.06588 7.45962C3.95389 7.22123 4.00334 6.93819 4.18963 6.75195L5.94018 5.0014L5.14217 1.27729Z" fill="white"/>
<path d="M19.3751 10.6246C19.0299 10.6246 18.7501 10.3447 18.7501 9.99959C18.7501 5.17502 14.825 1.24995 10.0005 1.24995C9.65532 1.24995 9.37549 0.970116 9.37549 0.624974C9.37549 0.279832 9.65532 0 10.0005 0C12.6715 0 15.1826 1.04011 17.0713 2.92879C18.9599 4.81746 20.0001 7.32857 20.0001 9.99959C20.0001 10.3447 19.7203 10.6246 19.3751 10.6246Z" fill="white"/>
<path d="M16.8752 10.6247C16.53 10.6247 16.2502 10.3448 16.2502 9.9997C16.2502 6.55359 13.4466 3.74995 10.0005 3.74995C9.65532 3.74995 9.37549 3.47012 9.37549 3.12497C9.37549 2.77983 9.65532 2.5 10.0005 2.5C14.1358 2.5 17.5002 5.86436 17.5002 9.9997C17.5002 10.3448 17.2204 10.6247 16.8752 10.6247Z" fill="white"/>
<path d="M14.3753 10.6248C14.0301 10.6248 13.7503 10.3449 13.7503 9.9998C13.7503 7.93211 12.0682 6.24995 10.0005 6.24995C9.65532 6.24995 9.37549 5.97012 9.37549 5.62497C9.37549 5.27983 9.65532 5 10.0005 5C12.7574 5 15.0003 7.24288 15.0003 9.9998C15.0003 10.3449 14.7205 10.6248 14.3753 10.6248Z" fill="white"/>
</g>
<defs>
<clipPath id="clip0">
<rect width="20" height="20" fill="white"/>
</clipPath>
</defs>
</svg>
